<?xml version="1.0" standalone="no"?>
<svg version="1.1" preserveAspectRatio="none" viewBox="0 0 24 24" class="ng-element" data-id="76bdd83f34812065d54fb71c72cde676" style="fill: rgb(0, 0, 0); width: 15px; height: 15px;" xmlns="http://www.w3.org/2000/svg"><g><path xmlns:default="http://www.w3.org/2000/svg" id="chevron-right" d="M17.4,11.99c0-0.18-0.07-0.35-0.2-0.47L9.48,3.8C9.23,3.55,8.82,3.54,8.56,3.78  C8.55,3.79,8.54,3.8,8.54,3.8L6.81,5.53C6.55,5.77,6.54,6.18,6.78,6.44C6.79,6.45,6.8,6.46,6.81,6.47l5.53,5.53l-5.53,5.53  c-0.26,0.25-0.27,0.66-0.02,0.92c0.01,0.01,0.01,0.01,0.02,0.02l1.73,1.73c0.25,0.26,0.66,0.27,0.92,0.02  c0.01-0.01,0.01-0.01,0.02-0.02l7.73-7.73C17.33,12.34,17.4,12.17,17.4,11.99z" style="fill: rgb(0, 0, 0);"/></g></svg>