<?xml version="1.0" standalone="no"?>
<!DOCTYPE svg PUBLIC "-//W3C//DTD SVG 20010904//EN"
 "http://www.w3.org/TR/2001/REC-SVG-20010904/DTD/svg10.dtd">
<svg version="1.0" xmlns="http://www.w3.org/2000/svg"
 width="288.000000pt" height="252.000000pt" viewBox="0 0 288.000000 252.000000"
 preserveAspectRatio="xMidYMid meet">
<metadata>
Created by potrace 1.10, written by Peter Selinger 2001-2011
</metadata>
<g transform="translate(0.000000,252.000000) scale(0.100000,-0.100000)"
fill="#998b66" stroke="none">
<path d="M410 1610 c0 -793 -3 -750 68 -872 49 -85 219 -256 299 -301 12 -7
53 -33 92 -59 72 -49 139 -88 226 -133 52 -27 73 -38 103 -55 9 -6 24 -13 32
-16 8 -3 22 -10 30 -15 8 -5 22 -12 30 -15 8 -3 27 -12 42 -20 14 -8 33 -14
41 -14 8 0 20 -7 27 -15 13 -15 60 -21 60 -7 0 4 24 17 53 30 28 13 59 27 67
33 8 5 22 12 30 15 8 3 22 10 30 15 8 5 22 12 30 15 8 3 22 9 30 14 8 5 38 21
65 35 87 45 154 84 226 133 39 26 80 52 92 59 80 45 250 216 299 301 71 122
68 79 68 872 l0 720 -1020 0 -1020 0 0 -720z m1917 596 c2 -2 4 -300 3 -662 0
-563 -3 -661 -15 -681 -8 -12 -15 -27 -15 -32 0 -19 -64 -106 -114 -156 -41
-41 -95 -84 -242 -192 -19 -14 -49 -33 -69 -43 -11 -6 -33 -19 -50 -30 -16
-10 -53 -30 -82 -44 -28 -15 -55 -31 -58 -36 -3 -6 -14 -10 -24 -10 -10 0 -24
-7 -31 -15 -7 -8 -20 -15 -30 -15 -10 0 -23 -7 -30 -15 -7 -8 -20 -15 -30 -15
-10 0 -23 -6 -29 -13 -6 -8 -28 -19 -48 -26 -38 -12 -67 -5 -123 28 -8 5 -22
12 -30 15 -8 3 -22 10 -30 15 -8 5 -22 12 -30 15 -8 3 -22 10 -30 14 -8 5 -24
14 -35 20 -11 7 -42 23 -70 37 -27 15 -63 35 -80 45 -16 11 -39 24 -50 30 -20
10 -50 29 -69 43 -202 148 -304 240 -327 291 -5 12 -13 28 -18 36 -42 75 -41
42 -41 734 -1 361 1 660 4 664 4 7 1786 6 1793 -2z"/>
<path d="M1334 1895 c-10 -8 -29 -15 -40 -15 -12 0 -27 -7 -34 -15 -7 -8 -17
-15 -22 -15 -5 0 -31 -22 -58 -50 -28 -27 -50 -53 -50 -58 0 -5 -7 -15 -15
-22 -8 -7 -15 -20 -15 -30 0 -10 -7 -31 -15 -46 -29 -57 -8 -225 34 -267 6 -6
11 -15 11 -19 0 -10 102 -108 112 -108 4 0 8 -63 8 -140 0 -116 3 -146 18
-174 76 -141 248 -141 324 0 15 29 18 59 18 204 l0 170 -60 0 -60 0 -2 -172
-3 -172 -27 -16 c-25 -13 -31 -13 -55 0 l-28 16 -3 168 c-2 160 -4 169 -25
187 -12 10 -27 18 -33 19 -19 0 -80 66 -102 109 -29 55 -30 147 -2 200 79 156
270 189 390 69 33 -33 70 -109 70 -144 0 -23 4 -24 60 -24 l60 0 0 35 c0 31
-18 85 -41 125 -5 8 -12 22 -16 30 -10 21 -100 110 -111 110 -5 0 -15 7 -22
15 -7 8 -22 15 -34 15 -11 0 -30 7 -40 15 -14 10 -45 15 -96 15 -51 0 -82 -5
-96 -15z"/>
</g>
</svg>
