<?xml version="1.0" standalone="no"?>
<svg version="1.1" preserveAspectRatio="none" viewBox="-78.65999999999997 0 684 684" class="ng-element" data-id="1ed4ae30b4891897c3ed61913008ac77" style="fill: rgb(153, 139, 102); width: 38px; height: 38px;" xmlns="http://www.w3.org/2000/svg"><g><g xmlns:default="http://www.w3.org/2000/svg">
	<path d="M263.1,0c0,0-105.2,105.2-263.1,105.2c0,128.9,0,315.7,0,315.7C0,565.6,118.4,684,263.1,684s263.1-118.4,263.1-263.1   c0,0,0-234.2,0-315.7C368.3,105.2,263.1,0,263.1,0z M499.9,420.9c0,131.5-105.2,236.8-236.8,236.8S26.3,552.5,26.3,420.9V131.5   c115.8-7.9,199.9-65.8,236.8-94.7c36.8,28.9,121,86.8,236.8,94.7V420.9z" style="fill: rgb(153, 139, 102);"/>
	<rect x="249.9" y="92.1" width="26.3" height="513" style="fill: rgb(153, 139, 102);"/>
</g></g></svg>