<?xml version="1.0" standalone="no"?>
<!DOCTYPE svg PUBLIC "-//W3C//DTD SVG 20010904//EN"
 "http://www.w3.org/TR/2001/REC-SVG-20010904/DTD/svg10.dtd">
<svg version="1.0" xmlns="http://www.w3.org/2000/svg"
 width="30.000000pt" height="30.000000pt" viewBox="0 0 30.000000 30.000000"
 preserveAspectRatio="xMidYMid meet">
<metadata>
Created by potrace 1.10, written by Peter Selinger 2001-2011
</metadata>
<g transform="translate(0.000000,30.000000) scale(0.050000,-0.050000)"
fill="#ffffff" stroke="none">
<path d="M161 566 c-260 -137 -186 -528 108 -561 299 -34 451 363 207 541 -75
56 -228 65 -315 20z m258 -43 c127 -68 172 -215 104 -342 -96 -180 -350 -180
-446 0 -89 166 37 379 223 379 28 0 81 -16 119 -37z"/>
<path d="M280 377 l0 -104 -48 45 c-26 25 -53 37 -59 27 -6 -10 20 -49 58 -86
l69 -67 69 67 c38 37 64 76 58 86 -6 10 -33 -2 -59 -27 l-48 -45 0 104 c0 56
-9 103 -20 103 -11 0 -20 -47 -20 -103z"/>
<path d="M200 140 c0 -11 45 -20 100 -20 55 0 100 9 100 20 0 11 -45 20 -100
20 -55 0 -100 -9 -100 -20z"/>
</g>
</svg>
