<?xml version="1.0" standalone="no"?>
<!DOCTYPE svg PUBLIC "-//W3C//DTD SVG 20010904//EN"
 "http://www.w3.org/TR/2001/REC-SVG-20010904/DTD/svg10.dtd">
<svg version="1.0" xmlns="http://www.w3.org/2000/svg"
 width="114.000000pt" height="114.000000pt" viewBox="0 0 114.000000 114.000000"
 preserveAspectRatio="xMidYMid meet">
<metadata>
Created by potrace 1.10, written by Peter Selinger 2001-2011
</metadata>
<g transform="translate(0.000000,114.000000) scale(0.100000,-0.100000)"
fill="#ffffff" stroke="none">
<path d="M861 1067 c-37 -19 -49 -43 -31 -62 13 -12 21 -13 48 -3 31 12 34 11
84 -40 51 -50 52 -53 40 -84 -10 -27 -9 -35 3 -48 19 -18 44 -5 62 32 22 43 6
81 -61 146 -65 64 -105 80 -145 59z"/>
<path d="M490 710 c-145 -147 -266 -272 -267 -277 -5 -15 23 -35 44 -31 10 2
124 111 253 243 129 132 241 241 248 243 7 2 38 -21 68 -52 31 -30 54 -61 52
-68 -2 -7 -111 -119 -243 -248 -132 -129 -241 -243 -243 -253 -4 -21 16 -49
31 -44 14 4 547 540 547 550 0 15 -197 207 -211 205 -8 0 -133 -121 -279 -268z"/>
<path d="M165 368 c-3 -12 -6 -27 -24 -128 -4 -25 -13 -62 -21 -82 -8 -21 -11
-41 -7 -44 4 -4 26 0 49 9 24 8 61 18 83 21 65 9 125 23 133 30 8 9 -9 36 -31
50 -11 7 -29 6 -64 -7 -86 -31 -100 -18 -68 60 20 47 19 66 -3 86 -22 20 -41
22 -47 5z"/>
<path d="M110 25 l0 -25 480 0 480 0 0 25 0 25 -480 0 -480 0 0 -25z"/>
</g>
</svg>
