<?xml version="1.0" standalone="no"?>
<!DOCTYPE svg PUBLIC "-//W3C//DTD SVG 20010904//EN"
 "http://www.w3.org/TR/2001/REC-SVG-20010904/DTD/svg10.dtd">
<svg version="1.0" xmlns="http://www.w3.org/2000/svg"
 width="34.000000pt" height="24.000000pt" viewBox="0 0 34.000000 24.000000"
 preserveAspectRatio="xMidYMid meet">
<metadata>
Created by potrace 1.10, written by Peter Selinger 2001-2011
</metadata>
<g transform="translate(0.000000,24.000000) scale(0.100000,-0.100000)"
fill="#8cc368" stroke="none">
<path d="M16 224 c-23 -22 -23 -186 0 -208 13 -13 42 -16 159 -16 171 0 165
-4 165 120 0 124 6 120 -165 120 -117 0 -146 -3 -159 -16z m299 -104 l0 -95
-145 0 -145 0 -3 84 c-2 46 -1 90 2 98 5 11 35 13 148 11 l143 -3 0 -95z"/>
<path d="M72 188 c-17 -17 -15 -45 6 -57 15 -9 14 -10 -6 -11 -23 0 -41 -25
-27 -38 4 -4 10 -1 12 6 3 7 22 12 44 12 37 0 39 -2 39 -30 0 -16 5 -30 11
-30 6 0 9 16 7 37 -2 30 -8 38 -28 43 -21 5 -22 7 -7 13 32 12 14 67 -23 67
-9 0 -21 -5 -28 -12z m44 -19 c10 -17 -13 -36 -27 -22 -12 12 -4 33 11 33 5 0
12 -5 16 -11z"/>
<path d="M180 170 c0 -5 23 -10 50 -10 28 0 50 5 50 10 0 6 -22 10 -50 10 -27
0 -50 -4 -50 -10z"/>
<path d="M180 130 c0 -5 23 -10 50 -10 28 0 50 5 50 10 0 6 -22 10 -50 10 -27
0 -50 -4 -50 -10z"/>
</g>
</svg>
