<?xml version="1.0" standalone="no"?>
<!DOCTYPE svg PUBLIC "-//W3C//DTD SVG 20010904//EN"
 "http://www.w3.org/TR/2001/REC-SVG-20010904/DTD/svg10.dtd">
<svg version="1.0" xmlns="http://www.w3.org/2000/svg"
 width="34.000000pt" height="24.000000pt" viewBox="0 0 34.000000 24.000000"
 preserveAspectRatio="xMidYMid meet">
<metadata>
Created by potrace 1.10, written by Peter Selinger 2001-2011
</metadata>
<g transform="translate(0.000000,24.000000) scale(0.050000,-0.050000)"
fill="#981e32" stroke="none">
<path d="M24 456 c-33 -33 -33 -399 0 -432 33 -33 599 -33 632 0 33 33 33 399
0 432 -33 33 -599 33 -632 0z m606 -216 l0 -190 -290 0 -290 0 -6 168 c-8 240
-30 224 301 218 l285 -6 0 -190z"/>
<path d="M145 377 c-32 -32 -32 -90 -2 -109 16 -10 9 -20 -20 -31 -43 -16 -61
-77 -23 -77 11 0 20 9 20 20 0 11 36 20 80 20 76 0 80 -3 80 -60 0 -33 9 -60
20 -60 40 0 23 143 -19 154 -33 8 -35 16 -15 48 45 73 -61 155 -121 95z m86
-39 c21 -33 -26 -71 -53 -44 -23 23 -9 66 22 66 10 0 24 -10 31 -22z"/>
<path d="M360 340 c0 -11 45 -20 100 -20 55 0 100 9 100 20 0 11 -45 20 -100
20 -55 0 -100 -9 -100 -20z"/>
<path d="M360 260 c0 -11 45 -20 100 -20 55 0 100 9 100 20 0 11 -45 20 -100
20 -55 0 -100 -9 -100 -20z"/>
</g>
</svg>
