<?xml version="1.0" standalone="no"?>
<svg version="1.1" preserveAspectRatio="none" viewBox="0 0 52 52" class="ng-element" data-id="76ac3b85b4606220cd913c9031fd9b41" style="fill: rgb(0, 0, 0); width: 24px; height: 23px;" xmlns="http://www.w3.org/2000/svg"><g><g xmlns:default="http://www.w3.org/2000/svg">
	<g>
		<path d="M26,0C11.7,0,0,11.7,0,26c0,14.3,11.7,26,26,26c14.3,0,26-11.7,26-26C52,11.7,40.3,0,26,0z M26,50C12.8,50,2,39.2,2,26    C2,12.8,12.8,2,26,2c13.2,0,24,10.8,24,24C50,39.2,39.2,50,26,50z M30.8,14.3c-0.7-0.7-1.5-1.2-2.4-1.6c-0.9-0.4-2-0.6-3.1-0.6    c-1.2,0-2.3,0.2-3.3,0.6c-1,0.4-1.9,1-2.6,1.7l1.8,1.9c0.3-0.3,0.6-0.5,0.8-0.7c0.3-0.2,0.6-0.4,0.9-0.6c0.3-0.2,0.6-0.3,1-0.4    c0.4-0.1,0.8-0.1,1.2-0.1c0.7,0,1.4,0.1,2,0.4c0.6,0.2,1.1,0.6,1.6,1c0.4,0.5,0.8,1,1,1.7c0.2,0.7,0.4,1.5,0.4,2.3    c0,0.7-0.1,1.3-0.3,1.9c-0.2,0.5-0.5,1-0.8,1.4c-0.3,0.4-0.7,0.8-1.2,1.1c-0.4,0.3-0.9,0.6-1.3,1c-0.4,0.3-0.9,0.7-1.3,1.1    c-0.4,0.4-0.8,0.8-1.2,1.3c-0.3,0.5-0.6,1.1-0.8,1.8s-0.3,1.5-0.3,2.5v1.2h2.7c0-0.7,0-1.3,0-1.8c0-0.5,0.1-1,0.2-1.4    c0.2-0.7,0.6-1.3,1-1.7c0.4-0.5,0.9-0.9,1.5-1.3c0.5-0.4,1.1-0.8,1.6-1.2c0.5-0.4,1-0.9,1.5-1.5c0.4-0.6,0.8-1.2,1.1-2    c0.3-0.8,0.4-1.8,0.4-3c0-1-0.2-1.9-0.5-2.8C31.9,15.7,31.4,14.9,30.8,14.3z M25.6,36.6c-0.2-0.2-0.4-0.3-0.6-0.5    c-0.2-0.1-0.5-0.2-0.8-0.2c-0.3,0-0.5,0.1-0.8,0.2c-0.2,0.1-0.4,0.3-0.6,0.5c-0.2,0.2-0.3,0.4-0.4,0.6c-0.1,0.2-0.1,0.5-0.1,0.8    c0,0.3,0.1,0.5,0.2,0.8c0.1,0.2,0.2,0.5,0.4,0.6c0.2,0.2,0.4,0.3,0.6,0.4C23.8,40,24,40,24.3,40c0.3,0,0.5-0.1,0.7-0.2    c0.2-0.1,0.4-0.3,0.6-0.5c0.2-0.2,0.3-0.4,0.4-0.6c0.1-0.2,0.1-0.5,0.1-0.8c0-0.2,0-0.5-0.1-0.7C25.9,37,25.8,36.8,25.6,36.6z" style="fill: rgb(0, 0, 0);"/>
	</g>
</g></g></svg>