<?xml version="1.0" standalone="no"?>
<!DOCTYPE svg PUBLIC "-//W3C//DTD SVG 20010904//EN"
 "http://www.w3.org/TR/2001/REC-SVG-20010904/DTD/svg10.dtd">
<svg version="1.0" xmlns="http://www.w3.org/2000/svg"
 width="40.000000pt" height="40.000000pt" viewBox="0 0 40.000000 40.000000"
 preserveAspectRatio="xMidYMid meet">
<metadata>
Created by potrace 1.10, written by Peter Selinger 2001-2011
</metadata>
<g transform="translate(0.000000,40.000000) scale(0.100000,-0.100000)"
fill="#75787b" stroke="none">
<path d="M149 391 c-47 -9 -92 -42 -120 -87 -17 -28 -22 -51 -22 -104 0 -80
21 -122 83 -165 35 -24 50 -28 110 -28 58 0 76 4 109 26 61 40 84 86 84 167 0
53 -5 76 -23 105 -43 69 -131 104 -221 86z m131 -33 c132 -67 132 -249 0 -316
-56 -28 -104 -28 -160 0 -132 67 -132 249 0 316 24 12 60 22 80 22 20 0 56
-10 80 -22z"/>
<path d="M152 287 c-21 -22 -29 -47 -16 -47 3 0 15 11 26 25 23 30 49 32 71 7
24 -26 21 -49 -8 -68 -26 -17 -50 -52 -42 -60 2 -3 23 13 46 36 47 47 52 76
18 108 -30 28 -68 28 -95 -1z"/>
<path d="M180 90 c0 -5 5 -10 10 -10 6 0 10 5 10 10 0 6 -4 10 -10 10 -5 0
-10 -4 -10 -10z"/>
</g>
</svg>
