<svg width="32" height="32" viewBox="0 0 32 32" fill="none" xmlns="http://www.w3.org/2000/svg">
<path d="M6 27.6423V20.343C6 19.7701 6.20433 19.2793 6.613 18.8707C7.02167 18.462 7.51256 18.2577 8.08567 18.2577H23.9143C24.4874 18.2577 24.9783 18.462 25.387 18.8707C25.7957 19.2793 26 19.7701 26 20.343V27.6423H6ZM7.67533 22.9757H24.3247V20.343C24.3247 20.2405 24.282 20.1465 24.1967 20.061C24.1111 19.9757 24.017 19.933 23.9143 19.933H8.08567C7.983 19.933 7.88889 19.9757 7.80333 20.061C7.718 20.1465 7.67533 20.2405 7.67533 20.343V22.9757ZM16 18.2577L10.0137 9.97566V9.84766C10.0137 8.18255 10.5961 6.76632 11.761 5.59899C12.9259 4.43143 14.3389 3.84766 16 3.84766C17.6611 3.84766 19.0741 4.43143 20.239 5.59899C21.4039 6.76632 21.9863 8.18255 21.9863 9.84766V9.97566L16 18.2577ZM16 15.9083L20.311 9.84766C20.311 8.64632 19.8909 7.6251 19.0507 6.78399C18.2107 5.9431 17.1933 5.52266 15.9987 5.52266C14.8042 5.52266 13.7873 5.9431 12.948 6.78399C12.1087 7.6251 11.689 8.64632 11.689 9.84766L16 15.9083Z" fill="#003168"/>
</svg>