<?xml version="1.0" encoding="UTF-8"?>
<svg width="34px" height="38px" viewBox="0 0 34 38" version="1.1" xmlns="http://www.w3.org/2000/svg" xmlns:xlink="http://www.w3.org/1999/xlink">
    <!-- Generator: Sketch 46.2 (44496) - http://www.bohemiancoding.com/sketch -->
    <title>icon_Krüpto</title>
    <desc>Created with Sketch.</desc>
    <defs></defs>
    <g id="Buttons&amp;Icons" stroke="none" stroke-width="1" fill="none" fill-rule="evenodd">
        <g id="eID" transform="translate(-32.000000, -478.000000)" fill="#FFFFFF">
            <g id="icon_Krüpto" transform="translate(25.000000, 475.000000)">
                <path d="M9,6.46880907 C9,17.5642722 9,18.2391304 9,26 C9,29.4801949 13.8990499,33.7479284 24,38.3098417 C34.1009501,33.7479284 39,29.4801949 39,26 C39,18.2391304 39,16.0954631 39,5 L9,5 L9,6.46880907 Z M7,3 L41,3 L41,26 C41,30.6666667 35.3333333,35.5 24,40.5 C12.6666667,35.5 7,30.6666667 7,26 L7,3 Z" id="Rectangle-10" fill-rule="nonzero"></path>
                <path d="M22.054661,21.6776101 L23,19.7999992 C21.3967862,19.2508168 20,17.723001 20,16 C20,13.790861 21.790861,12 24,12 C26.209139,12 28,13.790861 28,16 L30,16 C30,12.6862915 27.3137085,10 24,10 C20.6862915,10 18,12.6862915 18,16 C18,18.6328183 19.6957676,20.8695689 22.054661,21.6776101 Z" id="Oval" fill-rule="nonzero"></path>
                <path d="M23,25 C23,25.5522847 23.4477153,26 24,26 C24.5522847,26 25,25.5522847 25,25 L27,25 C27,26.6568542 25.6568542,28 24,28 C22.3431458,28 21,26.6568542 21,25 L21,20 L23,21.6666667 L23,25 Z" id="Rectangle-3" fill-rule="nonzero"></path>
                <polygon id="Rectangle-4" fill-rule="evenodd" points="21 20 23 19.7999992 23 22 21 22"></polygon>
                <rect id="Rectangle-4-Copy" fill-rule="evenodd" x="25" y="20" width="2" height="5"></rect>
            </g>
        </g>
    </g>
</svg>