<?xml version="1.0" encoding="UTF-8"?>
<svg width="17px" height="17px" viewBox="0 0 17 17" version="1.1" xmlns="http://www.w3.org/2000/svg" xmlns:xlink="http://www.w3.org/1999/xlink">
    <!-- Generator: Sketch 46.2 (44496) - http://www.bohemiancoding.com/sketch -->
    <title>Icon_ajatempel</title>
    <desc>Created with Sketch.</desc>
    <defs></defs>
    <g id="Buttons&amp;Icons" stroke="none" stroke-width="1" fill="none" fill-rule="evenodd">
        <g id="eID" transform="translate(-977.000000, -278.000000)">
            <g id="Icon_ajatempel" transform="translate(977.000000, 276.000000)">
                <path d="M17,19.25 L17,16.5 C17,15.6715729 16.2864538,15 15.40625,15 L1.59375,15 C0.71354618,15 -1.17961196e-16,15.6715729 0,16.5 L0,19.25 L0,19 L1,19 L1,16.5 C1,16.2238576 1.23984746,16 1.53571429,16 L15.4642857,16 C15.7601525,16 16,16.2238576 16,16.5 L16,19 L17,19 L17,19.25 Z" id="Combined-Shape" fill="#727679" fill-rule="nonzero"></path>
                <rect id="Rectangle-17" fill="#727679" fill-rule="evenodd" x="4" y="13" width="9" height="1"></rect>
                <rect id="Rectangle-3" fill="#727679" fill-rule="evenodd" x="8.5" y="18" width="8.5" height="1"></rect>
                <rect id="Rectangle-4" fill="#727679" fill-rule="evenodd" x="7" y="7" width="1" height="5"></rect>
                <rect id="Rectangle-5" fill="#727679" fill-rule="evenodd" x="9" y="7" width="1" height="5"></rect>
                <rect id="Rectangle-22" stroke="#727679" stroke-width="1" x="4.5" y="2.5" width="8" height="3" rx="1.5"></rect>
            </g>
        </g>
    </g>
</svg>
