<?xml version="1.0" encoding="UTF-8"?>
<svg width="14" height="14" viewBox="0 0 14 14" fill="none" xmlns="http://www.w3.org/2000/svg">
<path d="M11.3338 7.57163C11.3572 7.38496 11.3747 7.19829 11.3747 6.99996C11.3747 6.80163 11.3572 6.61496 11.3338 6.42829L12.5647 5.46579C12.6755 5.37829 12.7047 5.22079 12.6347 5.09246L11.468 3.07413C11.4155 2.98079 11.3163 2.92829 11.2113 2.92829C11.1763 2.92829 11.1413 2.93413 11.1122 2.94579L9.65966 3.52913C9.35633 3.29579 9.02966 3.10329 8.67383 2.95746L8.45216 1.41163C8.43466 1.27163 8.31216 1.16663 8.16633 1.16663H5.833C5.68716 1.16663 5.56466 1.27163 5.54716 1.41163L5.3255 2.95746C4.96966 3.10329 4.643 3.30163 4.33966 3.52913L2.88716 2.94579C2.85216 2.93413 2.81716 2.92829 2.78216 2.92829C2.683 2.92829 2.58383 2.98079 2.53133 3.07413L1.36466 5.09246C1.28883 5.22079 1.32383 5.37829 1.43466 5.46579L2.6655 6.42829C2.64216 6.61496 2.62466 6.80746 2.62466 6.99996C2.62466 7.19246 2.64216 7.38496 2.6655 7.57163L1.43466 8.53413C1.32383 8.62163 1.29466 8.77913 1.36466 8.90746L2.53133 10.9258C2.58383 11.0191 2.683 11.0716 2.788 11.0716C2.823 11.0716 2.858 11.0658 2.88716 11.0541L4.33966 10.4708C4.643 10.7041 4.96966 10.8966 5.3255 11.0425L5.54716 12.5883C5.56466 12.7283 5.68716 12.8333 5.833 12.8333H8.16633C8.31216 12.8333 8.43466 12.7283 8.45216 12.5883L8.67383 11.0425C9.02966 10.8966 9.35633 10.6983 9.65966 10.4708L11.1122 11.0541C11.1472 11.0658 11.1822 11.0716 11.2172 11.0716C11.3163 11.0716 11.4155 11.0191 11.468 10.9258L12.6347 8.90746C12.7047 8.77913 12.6755 8.62163 12.5647 8.53413L11.3338 7.57163ZM10.1788 6.57413C10.2022 6.75496 10.208 6.87746 10.208 6.99996C10.208 7.12246 10.1963 7.25079 10.1788 7.42579L10.0972 8.08496L10.6163 8.49329L11.2463 8.98329L10.838 9.68913L10.0972 9.39163L9.4905 9.14663L8.9655 9.54329C8.71466 9.72996 8.4755 9.86996 8.23633 9.96913L7.618 10.22L7.52466 10.8791L7.408 11.6666H6.59133L6.38716 10.22L5.76883 9.96913C5.518 9.86413 5.28466 9.72996 5.05133 9.55496L4.5205 9.14663L3.90216 9.39746L3.16133 9.69496L2.753 8.98913L3.383 8.49913L3.90216 8.09079L3.8205 7.43163C3.803 7.25079 3.79133 7.11663 3.79133 6.99996C3.79133 6.88329 3.803 6.74913 3.8205 6.57413L3.90216 5.91496L3.383 5.50663L2.753 5.01663L3.16133 4.31079L3.90216 4.60829L4.50883 4.85329L5.03383 4.45663C5.28466 4.26996 5.52383 4.12996 5.763 4.03079L6.38133 3.77996L6.47466 3.12079L6.59133 2.33329H7.40216L7.60633 3.77996L8.22466 4.03079C8.4755 4.13579 8.70883 4.26996 8.94216 4.44496L9.473 4.85329L10.0913 4.60246L10.8322 4.30496L11.2405 5.01079L10.6163 5.50663L10.0972 5.91496L10.1788 6.57413ZM6.99966 4.66663C5.7105 4.66663 4.66633 5.71079 4.66633 6.99996C4.66633 8.28913 5.7105 9.33329 6.99966 9.33329C8.28883 9.33329 9.333 8.28913 9.333 6.99996C9.333 5.71079 8.28883 4.66663 6.99966 4.66663ZM6.99966 8.16663C6.358 8.16663 5.833 7.64163 5.833 6.99996C5.833 6.35829 6.358 5.83329 6.99966 5.83329C7.64133 5.83329 8.16633 6.35829 8.16633 6.99996C8.16633 7.64163 7.64133 8.16663 6.99966 8.16663Z" fill="#2F70B6"/>
</svg>