<svg width="24" height="24" viewBox="0 0 24 24" fill="none" xmlns="http://www.w3.org/2000/svg">
<path d="M21.2436 20.1563V4.81408C21.2436 4.72433 21.2147 4.6506 21.157 4.5929C21.0993 4.53522 21.0256 4.50638 20.9359 4.50638H3.0641C2.97435 4.50638 2.90063 4.53522 2.84293 4.5929C2.78523 4.6506 2.75638 4.72433 2.75638 4.81408V12.5064H1.5V4.81408C1.5 4.38449 1.65398 4.01642 1.96195 3.70985C2.2699 3.40328 2.63728 3.25 3.0641 3.25H20.9359C21.3627 3.25 21.7301 3.40398 22.038 3.71193C22.346 4.01989 22.5 4.38728 22.5 4.81408V18.6057C22.5 18.9819 22.3819 19.3153 22.1458 19.6058C21.9097 19.8963 21.6089 20.0798 21.2436 20.1563ZM8.99998 13.682C8.03749 13.682 7.23384 13.3596 6.58903 12.7148C5.94421 12.07 5.6218 11.2653 5.6218 10.3006C5.6218 9.33601 5.94421 8.53236 6.58903 7.88968C7.23384 7.24701 8.03749 6.92568 8.99998 6.92568C9.96246 6.92568 10.7661 7.24701 11.4109 7.88968C12.0557 8.53236 12.3782 9.33601 12.3782 10.3006C12.3782 11.2653 12.0557 12.07 11.4109 12.7148C10.7661 13.3596 9.96246 13.682 8.99998 13.682ZM8.99998 12.4256C9.59954 12.4256 10.1031 12.2219 10.5106 11.8144C10.918 11.4069 11.1218 10.9034 11.1218 10.3038C11.1218 9.70426 10.918 9.20074 10.5106 8.79325C10.1031 8.38579 9.59954 8.18205 8.99998 8.18205C8.40041 8.18205 7.89688 8.38579 7.4894 8.79325C7.08192 9.20074 6.87818 9.70426 6.87818 10.3038C6.87818 10.9034 7.08192 11.4069 7.4894 11.8144C7.89688 12.2219 8.40041 12.4256 8.99998 12.4256ZM1.50002 21.3076V19.3013C1.50002 18.7799 1.63923 18.3168 1.91765 17.9119C2.19607 17.5069 2.56113 17.1957 3.01283 16.9782C4.04403 16.5047 5.05283 16.1485 6.03923 15.9096C7.02563 15.6707 8.01248 15.5513 8.99978 15.5513C9.98708 15.5513 10.9723 15.6724 11.9554 15.9148C12.9385 16.1571 13.9443 16.5131 14.9727 16.9828C15.4363 17.1999 15.8067 17.5102 16.084 17.9138C16.3613 18.3174 16.5 18.7799 16.5 19.3013V21.3076H1.50002ZM2.75638 20.0513H15.2436V19.3013C15.2436 19.0602 15.1691 18.8315 15.0202 18.615C14.8712 18.3986 14.6748 18.2269 14.4307 18.1C13.488 17.6397 12.5768 17.3093 11.6972 17.1086C10.8176 16.908 9.91852 16.8077 8.99998 16.8077C8.08143 16.8077 7.17786 16.908 6.28928 17.1086C5.40069 17.3093 4.49058 17.6397 3.55895 18.1C3.31493 18.2269 3.12017 18.3986 2.97465 18.615C2.82913 18.8315 2.75638 19.0602 2.75638 19.3013V20.0513Z" fill="#AD2A45"/>
</svg>