<?xml version="1.0" encoding="UTF-8"?>
<svg width="12" height="12" viewBox="0 0 12 12" fill="none" xmlns="http://www.w3.org/2000/svg">
<path d="M10.0096 6.405C10.0329 6.21833 10.0504 6.03167 10.0504 5.83333C10.0504 5.635 10.0329 5.44833 10.0096 5.26167L11.2404 4.29917C11.3513 4.21167 11.3804 4.05417 11.3104 3.92583L10.1438 1.9075C10.0913 1.81417 9.99211 1.76167 9.88711 1.76167C9.85211 1.76167 9.81711 1.7675 9.78794 1.77917L8.33544 2.3625C8.03211 2.12917 7.70544 1.93667 7.34961 1.79083L7.12794 0.245C7.11044 0.105 6.98794 0 6.84211 0H4.50878C4.36294 0 4.24044 0.105 4.22294 0.245L4.00128 1.79083C3.64544 1.93667 3.31878 2.135 3.01544 2.3625L1.56294 1.77917C1.52794 1.7675 1.49294 1.76167 1.45794 1.76167C1.35878 1.76167 1.25961 1.81417 1.20711 1.9075L0.0404434 3.92583C-0.0353899 4.05417 -0.000389843 4.21167 0.110443 4.29917L1.34128 5.26167C1.31794 5.44833 1.30044 5.64083 1.30044 5.83333C1.30044 6.02583 1.31794 6.21833 1.34128 6.405L0.110443 7.3675C-0.000389843 7.455 -0.0295566 7.6125 0.0404434 7.74083L1.20711 9.75917C1.25961 9.8525 1.35878 9.905 1.46378 9.905C1.49878 9.905 1.53378 9.89917 1.56294 9.8875L3.01544 9.30417C3.31878 9.5375 3.64544 9.73 4.00128 9.87583L4.22294 11.4217C4.24044 11.5617 4.36294 11.6667 4.50878 11.6667H6.84211C6.98794 11.6667 7.11044 11.5617 7.12794 11.4217L7.34961 9.87583C7.70544 9.73 8.03211 9.53167 8.33544 9.30417L9.78794 9.8875C9.82294 9.89917 9.85794 9.905 9.89294 9.905C9.99211 9.905 10.0913 9.8525 10.1438 9.75917L11.3104 7.74083C11.3804 7.6125 11.3513 7.455 11.2404 7.3675L10.0096 6.405ZM8.85461 5.4075C8.87794 5.58833 8.88378 5.71083 8.88378 5.83333C8.88378 5.95583 8.87211 6.08417 8.85461 6.25917L8.77294 6.91833L9.29211 7.32667L9.92211 7.81667L9.51378 8.5225L8.77294 8.225L8.16628 7.98L7.64128 8.37667C7.39044 8.56333 7.15128 8.70333 6.91211 8.8025L6.29378 9.05333L6.20044 9.7125L6.08378 10.5H5.26711L5.06294 9.05333L4.44461 8.8025C4.19378 8.6975 3.96044 8.56333 3.72711 8.38833L3.19628 7.98L2.57794 8.23083L1.83711 8.52833L1.42878 7.8225L2.05878 7.3325L2.57794 6.92417L2.49628 6.265C2.47878 6.08417 2.46711 5.95 2.46711 5.83333C2.46711 5.71667 2.47878 5.5825 2.49628 5.4075L2.57794 4.74833L2.05878 4.34L1.42878 3.85L1.83711 3.14417L2.57794 3.44167L3.18461 3.68667L3.70961 3.29C3.96044 3.10333 4.19961 2.96333 4.43878 2.86417L5.05711 2.61333L5.15044 1.95417L5.26711 1.16667H6.07794L6.28211 2.61333L6.90044 2.86417C7.15128 2.96917 7.38461 3.10333 7.61794 3.27833L8.14878 3.68667L8.76711 3.43583L9.50794 3.13833L9.91628 3.84417L9.29211 4.34L8.77294 4.74833L8.85461 5.4075ZM5.67544 3.5C4.38628 3.5 3.34211 4.54417 3.34211 5.83333C3.34211 7.1225 4.38628 8.16667 5.67544 8.16667C6.96461 8.16667 8.00878 7.1225 8.00878 5.83333C8.00878 4.54417 6.96461 3.5 5.67544 3.5ZM5.67544 7C5.03378 7 4.50878 6.475 4.50878 5.83333C4.50878 5.19167 5.03378 4.66667 5.67544 4.66667C6.31711 4.66667 6.84211 5.19167 6.84211 5.83333C6.84211 6.475 6.31711 7 5.67544 7Z" fill="white"/>
</svg>