<?xml version="1.0" encoding="UTF-8" standalone="no"?>
<svg
   width="1024"
   height="1024"
   viewBox="0 0 1024 1024"
   version="1.1"
   id="svg3"
   xmlns="http://www.w3.org/2000/svg">
  <rect
     style="fill:#ffffff"
     id="rect126"
     width="824"
     height="824"
     x="100"
     y="100"
     rx="185"
     ry="185" />
  <path
     style="fill:#ee4d22;stroke-width:0.75"
     d="m 394.39958,814.71595 c -10.4545,-2.53471 -21.49836,-10.68266 -26.37831,-19.46144 -5.84682,-10.51811 -8.06805,-26.08733 -5.41995,-37.99003 4.17084,-18.74707 18.4984,-32.46484 37.94228,-36.32737 14.05671,-2.79238 34.93133,0.85904 41.29581,7.22352 1.26104,1.26104 1.46888,2.52141 1.46888,8.90754 0,4.09126 -0.20485,7.97251 -0.45524,8.625 -0.58592,1.52688 -2.82936,1.5258 -4.09729,-0.002 -1.85764,-2.23833 -7.47274,-5.65119 -11.77266,-7.15545 -5.4827,-1.91804 -16.41044,-2.63707 -22.08942,-1.45346 -17.66006,3.68071 -28.12323,20.23759 -24.36236,38.55092 0.664,3.23328 1.92806,7.36767 2.80903,9.18751 2.28191,4.71379 7.56137,9.83354 12.55269,12.17294 3.90797,1.83165 5.0936,2.01083 13.30602,2.01083 8.67417,0 9.20523,-0.0933 14.01619,-2.4617 2.75024,-1.35393 5.88053,-3.50765 6.95622,-4.78603 1.68404,-2.00138 1.92495,-2.90985 1.73381,-6.5383 l -0.22199,-4.21367 -9.75,-0.375 -9.75,-0.375 v -6.75 -6.75 h 18 18 l 0.19848,23.15992 c 0.14399,16.80079 -0.0418,23.44938 -0.67644,24.21414 -0.66048,0.79583 -2.54733,1.00173 -7.69848,0.84008 l -6.82356,-0.21414 -0.23046,-4.125 c -0.12676,-2.26875 -0.55003,-4.44702 -0.94061,-4.84061 -0.44924,-0.4527 -1.88006,0.41286 -3.89453,2.35595 -5.78641,5.58136 -12.19566,7.74653 -22.6844,7.66327 -3.7125,-0.0295 -8.67767,-0.52095 -11.03371,-1.09217 z m 266.40871,-0.0137 c -12.40312,-3.24298 -24.09224,-12.69928 -29.80392,-24.11086 -4.26778,-8.52676 -5.75725,-15.71075 -5.23884,-25.26793 0.69107,-12.74037 5.0285,-22.71699 13.69011,-31.48897 8.44632,-8.55395 18.58962,-13.02599 31.10265,-13.71275 27.1427,-1.48967 48.52787,17.96862 50.01425,45.50777 1.24789,23.12055 -13.45767,43.54642 -35.35932,49.11373 -5.64017,1.4337 -18.84965,1.41152 -24.40493,-0.041 z m 20.89825,-16.73322 c 8.85346,-2.75551 16.61551,-10.87115 19.33079,-20.2114 1.67903,-5.77565 1.49975,-15.10072 -0.39514,-20.55293 -2.9229,-8.41014 -9.6255,-15.68996 -17.22358,-18.70684 -6.3856,-2.53545 -15.48559,-2.39515 -21.36345,0.32939 -5.34092,2.47564 -8.25335,4.84956 -11.93653,9.72945 -4.24718,5.62714 -6.0504,12.43968 -5.68706,21.48569 0.25668,6.39049 0.60014,7.94791 2.67871,12.14626 2.89127,5.8399 5.7914,9.43533 9.91665,12.29412 6.96468,4.82653 16.18738,6.12933 24.67961,3.48626 z m 94.0134,16.44293 c -21.20555,-5.73609 -33.91165,-23.01639 -33.91165,-46.11985 0,-9.16884 1.23553,-14.43533 5.36511,-22.86905 9.34416,-19.08328 31.10183,-28.95336 53.72901,-24.37346 5.85795,1.18569 14.41166,4.67392 16.8317,6.86402 1.87317,1.6952 1.99309,17.79872 0.13784,18.51065 -1.61802,0.62089 -1.29881,0.76881 -4.9302,-2.28463 -9.49962,-7.98773 -25.08107,-9.88657 -36.25736,-4.41852 -11.42876,5.59157 -18.42573,20.10616 -16.19729,33.59985 2.28735,13.8504 11.29457,23.14403 24.65048,25.43431 9.18408,1.5749 20.36249,-1.07271 27.49358,-6.51186 1.5226,-1.16134 3.30895,-1.87779 4.3234,-1.73398 1.66155,0.23554 1.73707,0.54685 1.94333,8.01057 0.14686,5.31436 -0.0757,8.1153 -0.70513,8.8737 -1.16872,1.40822 -8.82835,5.28958 -13.31999,6.74962 -2.06721,0.67197 -7.47911,1.24341 -13.56448,1.43226 -8.41558,0.26116 -11.04739,0.0647 -15.58835,-1.16363 z m -561.76165,-0.18245 c -0.6799,-0.67991 -0.9,-11.85304 -0.9,-45.68866 0,-24.63376 0.20486,-45.32251 0.45524,-45.975 0.39671,-1.0338 2.65448,-1.18634 17.55903,-1.18634 20.67371,0 26.1278,0.83535 35.16984,5.38661 20.30433,10.22009 30.1457,34.13342 22.93875,55.73839 -2.63207,7.89042 -5.31098,12.1531 -11.65479,18.54508 -6.94497,6.9977 -15.05042,11.30226 -24.42937,12.9737 -7.70966,1.37395 -37.81236,1.53256 -39.1387,0.20622 z m 41.51874,-17.01037 c 10.61567,-4.96768 17.54762,-16.40545 17.57236,-28.99456 0.0247,-12.59248 -6.54302,-23.81899 -16.92458,-28.92982 -4.40268,-2.16743 -5.63965,-2.41373 -13.81335,-2.75036 -6.57733,-0.27089 -9.28184,-0.11728 -10.1154,0.57452 -0.98247,0.81538 -1.13777,5.05711 -1.13777,31.07742 0,23.08253 0.21936,30.36306 0.9375,31.11568 0.71696,0.75138 3.02954,0.88263 9.83071,0.55792 7.78042,-0.37145 9.48847,-0.70314 13.65053,-2.6508 z m 62.76294,17.28853 c -0.74449,-0.47265 -0.90257,-10.31092 -0.75,-46.67602 l 0.19332,-46.07714 h 8.625 8.625 l 0.19335,45.6661 c 0.14017,33.10563 -0.0398,45.94704 -0.65434,46.6875 -0.94524,1.13895 -14.54055,1.4736 -16.23233,0.39956 z m 160.42442,-0.37532 c -0.64086,-0.7722 -0.81723,-12.98753 -0.67445,-46.71174 l 0.19335,-45.6661 h 8.625 8.625 v 46.5 46.5 l -7.95055,0.21174 c -6.08504,0.16205 -8.15417,-0.0336 -8.81835,-0.8339 z m 49.01969,0.1413 c -0.21439,-0.56052 -0.30227,-21.60664 -0.19529,-46.76914 l 0.1945,-45.75 17.4194,-0.20128 c 20.31639,-0.23475 24.93902,0.44495 34.62642,5.0914 4.97472,2.38606 7.49808,4.23574 12.02524,8.81479 6.57524,6.65061 9.9111,12.41665 12.07236,20.8671 4.17059,16.30689 -0.46072,33.09408 -12.39537,44.92963 -5.63853,5.5917 -12.99941,9.91463 -20.62305,12.11156 -5.79014,1.66857 -42.53727,2.44054 -43.12421,0.90594 z m 40.30921,-16.38146 c 6.14415,-2.30738 11.89276,-7.80579 15.17984,-14.51914 8.25901,-16.86781 2.02114,-36.79358 -13.86484,-44.28878 -4.62121,-2.18035 -5.36305,-2.30086 -14.25,-2.31493 l -9.375,-0.0149 -0.19593,31.07553 c -0.15346,24.33821 0.009,31.21855 0.75,31.73524 1.79588,1.2525 17.09944,0.0756 21.75593,-1.67308 z M 228.93458,648.92697 c -2.15503,-1.07389 -4.78099,-3.08367 -5.83548,-4.46618 -4.2042,-5.51198 -4.04081,-0.97593 -4.04081,-112.18319 V 429.66409 l 1.6875,-1.06906 c 1.67237,-1.05947 131.08902,-52.96552 132.05822,-52.96552 0.27735,0 0.50428,58.90459 0.50428,130.89909 0,144.54907 0.37109,133.63313 -4.72551,139.00499 -5.29822,5.58437 -2.11513,5.31104 -62.06473,5.32945 l -53.66524,0.0165 -3.91823,-1.95254 z m 182.95228,-0.0238 c -4.81291,-2.39837 -7.93777,-6.44847 -9.07851,-11.76657 -0.60163,-2.80484 -0.76921,-58.41096 -0.60388,-200.38212 l 0.22882,-196.5 1.61882,-3 c 1.8942,-3.51035 4.83218,-6.39504 8.50618,-8.35188 2.52854,-1.34675 6.86919,-1.39812 118.125,-1.39812 91.55689,0 117.28796,0.2077 124.125,1.00192 51.58222,5.99208 93.6027,24.61711 123.75,54.85057 28.96117,29.04395 45.59097,66.31205 51.88319,116.27251 0.69093,5.48596 0.98391,17.77244 0.96577,40.5 -0.0241,30.14255 -0.15553,33.45248 -1.72771,43.5 -6.20649,39.66462 -19.60704,72.21666 -40.54158,98.48181 -28.67226,35.97316 -72.35113,58.73195 -126.82967,66.08436 -18.44773,2.48969 -28.37296,2.68383 -137.21165,2.68383 H 415.85281 l -3.96595,-1.97632 z M 614.50423,533.91012 c 27.35779,-4.67705 49.3573,-17.86787 62.32033,-37.36704 10.73167,-16.14276 15.59639,-34.67462 15.59639,-59.41357 0,-30.73529 -7.67059,-52.78133 -24.02735,-69.057 -9.20943,-9.16377 -18.06561,-14.47103 -31.83169,-19.07585 -13.61851,-4.55545 -17.42813,-4.86078 -60.69112,-4.86414 l -38.8125,-0.003 v 95.625 95.625 h 34.42547 c 30.76172,0 35.3402,-0.15638 43.02047,-1.46939 z M 219.55829,378.87951 c -0.95158,-0.95158 -0.5794,-135.02045 0.38547,-138.85226 1.19277,-4.73696 7.09377,-10.72206 11.86453,-12.03364 2.56997,-0.70653 15.98726,-0.87552 56.25,-0.70848 l 52.875,0.21938 3.09316,1.65461 c 1.70123,0.91004 4.03051,2.76629 5.17615,4.125 4.61176,5.46944 4.46028,3.87966 4.7019,49.34539 0.17638,33.18826 0.0244,41.88111 -0.75,42.88858 -0.71027,0.92409 -131.27911,53.86142 -132.84809,53.86142 -0.13646,0 -0.47312,-0.225 -0.74812,-0.5 z"
     id="path38" />
  <path
     style="fill:#003067;stroke-width:0.75"
     d="m 394.39958,814.76243 c -10.4545,-2.53471 -21.49836,-10.68266 -26.37831,-19.46144 -5.84682,-10.51812 -8.06805,-26.08733 -5.41995,-37.99003 4.17084,-18.74708 18.4984,-32.46484 37.94228,-36.32738 14.05671,-2.79237 34.93133,0.85905 41.29581,7.22352 1.26104,1.26105 1.46888,2.52141 1.46888,8.90754 0,4.09127 -0.20485,7.97252 -0.45524,8.625 -0.58592,1.52688 -2.82936,1.52581 -4.09729,-0.002 -1.85764,-2.23832 -7.47274,-5.65119 -11.77266,-7.15545 -5.4827,-1.91803 -16.41044,-2.63706 -22.08942,-1.45345 -17.66006,3.68071 -28.12323,20.23759 -24.36236,38.55091 0.664,3.23329 1.92806,7.36767 2.80903,9.18752 2.28191,4.71379 7.56137,9.83353 12.55269,12.17294 3.90797,1.83165 5.0936,2.01083 13.30602,2.01083 8.67417,0 9.20523,-0.0933 14.01619,-2.46171 2.75024,-1.35393 5.88053,-3.50764 6.95622,-4.78602 1.68404,-2.00138 1.92495,-2.90985 1.73381,-6.5383 l -0.22199,-4.21367 -9.75,-0.375 -9.75,-0.375 v -6.75 -6.75 h 18 18 l 0.19848,23.15992 c 0.14399,16.80079 -0.0418,23.44938 -0.67644,24.21413 -0.66048,0.79584 -2.54733,1.00173 -7.69848,0.84009 l -6.82356,-0.21414 -0.23046,-4.125 c -0.12676,-2.26875 -0.55003,-4.44702 -0.94061,-4.84061 -0.44924,-0.4527 -1.88006,0.41285 -3.89453,2.35595 -5.78641,5.58135 -12.19566,7.74653 -22.6844,7.66327 -3.7125,-0.0295 -8.67767,-0.52095 -11.03371,-1.09217 z m 266.40871,-0.0137 c -12.40312,-3.24298 -24.09224,-12.69928 -29.80392,-24.11086 -4.26778,-8.52676 -5.75725,-15.71075 -5.23884,-25.26793 0.69107,-12.74038 5.0285,-22.71699 13.69011,-31.48897 8.44632,-8.55395 18.58962,-13.026 31.10265,-13.71275 27.1427,-1.48967 48.52787,17.96861 50.01425,45.50777 1.24789,23.12055 -13.45767,43.54641 -35.35932,49.11372 -5.64017,1.43371 -18.84965,1.41153 -24.40493,-0.041 z m 20.89825,-16.73322 c 8.85346,-2.75551 16.61551,-10.87115 19.33079,-20.2114 1.67903,-5.77565 1.49975,-15.10073 -0.39514,-20.55293 -2.9229,-8.41014 -9.6255,-15.68997 -17.22358,-18.70684 -6.3856,-2.53545 -15.48559,-2.39515 -21.36345,0.32938 -5.34092,2.47565 -8.25335,4.84957 -11.93653,9.72945 -4.24718,5.62715 -6.0504,12.43968 -5.68706,21.4857 0.25668,6.39049 0.60014,7.9479 2.67871,12.14626 2.89127,5.8399 5.7914,9.43532 9.91665,12.29412 6.96468,4.82653 16.18738,6.12933 24.67961,3.48626 z m 94.0134,16.44293 c -21.20555,-5.73609 -33.91165,-23.01639 -33.91165,-46.11985 0,-9.16884 1.23553,-14.43533 5.36511,-22.86905 9.34416,-19.08328 31.10183,-28.95336 53.72901,-24.37346 5.85795,1.18569 14.41166,4.67391 16.8317,6.86402 1.87317,1.69519 1.99309,17.79872 0.13784,18.51064 -1.61802,0.6209 -1.29881,0.76881 -4.9302,-2.28462 -9.49962,-7.98773 -25.08107,-9.88657 -36.25736,-4.41852 -11.42876,5.59157 -18.42573,20.10615 -16.19729,33.59985 2.28735,13.8504 11.29457,23.14403 24.65048,25.43431 9.18408,1.5749 20.36249,-1.07272 27.49358,-6.51186 1.5226,-1.16134 3.30895,-1.87779 4.3234,-1.73398 1.66155,0.23554 1.73707,0.54684 1.94333,8.01057 0.14686,5.31436 -0.0757,8.1153 -0.70513,8.8737 -1.16872,1.40822 -8.82835,5.28957 -13.31999,6.74962 -2.06721,0.67197 -7.47911,1.2434 -13.56448,1.43225 -8.41558,0.26117 -11.04739,0.0647 -15.58835,-1.16362 z m -561.76165,-0.18245 c -0.6799,-0.67991 -0.9,-11.85304 -0.9,-45.68866 0,-24.63377 0.20486,-45.32252 0.45524,-45.975 0.39671,-1.0338 2.65448,-1.18634 17.55903,-1.18634 20.67371,0 26.1278,0.83535 35.16984,5.38661 20.30433,10.22008 30.1457,34.13341 22.93875,55.73839 -2.63207,7.89042 -5.31098,12.1531 -11.65479,18.54508 -6.94497,6.9977 -15.05042,11.30225 -24.42937,12.9737 -7.70966,1.37394 -37.81236,1.53255 -39.1387,0.20622 z m 41.51874,-17.01037 c 10.61567,-4.96768 17.54762,-16.40546 17.57236,-28.99456 0.0247,-12.59248 -6.54302,-23.81899 -16.92458,-28.92982 -4.40268,-2.16744 -5.63965,-2.41373 -13.81335,-2.75037 -6.57733,-0.27088 -9.28184,-0.11727 -10.1154,0.57453 -0.98247,0.81537 -1.13777,5.05711 -1.13777,31.07742 0,23.08253 0.21936,30.36306 0.9375,31.11567 0.71696,0.75139 3.02954,0.88263 9.83071,0.55793 7.78042,-0.37145 9.48847,-0.70314 13.65053,-2.6508 z m 62.76294,17.28853 c -0.74449,-0.47265 -0.90257,-10.31092 -0.75,-46.67602 l 0.19332,-46.07714 h 8.625 8.625 l 0.19335,45.6661 c 0.14017,33.10562 -0.0398,45.94704 -0.65434,46.6875 -0.94524,1.13894 -14.54055,1.47359 -16.23233,0.39956 z m 160.42442,-0.37532 c -0.64086,-0.7722 -0.81723,-12.98753 -0.67445,-46.71174 l 0.19335,-45.6661 h 8.625 8.625 v 46.5 46.5 l -7.95055,0.21174 c -6.08504,0.16205 -8.15417,-0.0336 -8.81835,-0.8339 z m 49.01969,0.1413 c -0.21439,-0.56053 -0.30227,-21.60664 -0.19529,-46.76914 l 0.1945,-45.75 17.4194,-0.20128 c 20.31639,-0.23475 24.93902,0.44494 34.62642,5.0914 4.97472,2.38605 7.49808,4.23574 12.02524,8.81479 6.57524,6.65061 9.9111,12.41665 12.07236,20.86709 4.17059,16.30689 -0.46072,33.09409 -12.39537,44.92964 -5.63853,5.5917 -12.99941,9.91462 -20.62305,12.11156 -5.79014,1.66857 -42.53727,2.44054 -43.12421,0.90594 z m 40.30921,-16.38146 c 6.14415,-2.30738 11.89276,-7.80579 15.17984,-14.51915 8.25901,-16.8678 2.02114,-36.79357 -13.86484,-44.28877 -4.62121,-2.18035 -5.36305,-2.30086 -14.25,-2.31493 l -9.375,-0.0149 -0.19593,31.07552 c -0.15346,24.33822 0.009,31.21856 0.75,31.73525 1.79588,1.2525 17.09944,0.0756 21.75593,-1.67309 z M 228.93458,648.97345 c -2.15503,-1.07389 -4.78099,-3.08368 -5.83548,-4.46618 -4.2042,-5.51198 -4.04081,-0.97593 -4.04081,-112.18319 V 429.71057 l 1.6875,-1.06906 c 1.67237,-1.05947 131.08902,-52.96552 132.05822,-52.96552 0.27735,0 0.50428,58.90458 0.50428,130.89909 0,144.54906 0.37109,133.63313 -4.72551,139.00499 -5.29822,5.58437 -2.11513,5.31104 -62.06473,5.32945 l -53.66524,0.0165 -3.91823,-1.95254 z m 182.95228,-0.0238 c -4.81291,-2.39838 -7.93777,-6.44847 -9.07851,-11.76657 -0.60163,-2.80484 -0.76921,-58.41096 -0.60388,-200.38212 l 0.22882,-196.5 1.61882,-3 c 1.8942,-3.51036 4.83218,-6.39504 8.50618,-8.35188 2.52854,-1.34675 6.86919,-1.39812 118.125,-1.39812 91.55689,0 117.28796,0.20769 124.125,1.00192 51.58222,5.99207 93.6027,24.61711 123.75,54.85057 28.96117,29.04394 45.59097,66.31205 51.88319,116.27251 0.69093,5.48596 0.98391,17.77244 0.96577,40.5 -0.0241,30.14255 -0.15553,33.45248 -1.72771,43.5 -6.20649,39.66462 -19.60704,72.21666 -40.54158,98.48181 -28.67226,35.97316 -72.35113,58.73195 -126.82967,66.08436 -18.44773,2.48969 -28.37296,2.68383 -137.21165,2.68383 H 415.85281 l -3.96595,-1.97632 z M 614.50423,533.9566 c 27.35779,-4.67705 49.3573,-17.86787 62.32033,-37.36705 10.73167,-16.14275 15.59639,-34.67461 15.59639,-59.41356 0,-30.73529 -7.67059,-52.78133 -24.02735,-69.057 -9.20943,-9.16377 -18.06561,-14.47104 -31.83169,-19.07585 -13.61851,-4.55545 -17.42813,-4.86078 -60.69112,-4.86414 l -38.8125,-0.003 v 95.625 95.625 h 34.42547 c 30.76172,0 35.3402,-0.15639 43.02047,-1.46939 z"
     id="path36" />
</svg>
