<svg width="40" height="40" viewBox="0 0 40 40" fill="none" xmlns="http://www.w3.org/2000/svg">
<rect width="40" height="40"/>
<path d="M20.3108 28.7663L34.7488 14.356C34.8164 14.2812 34.8503 14.1904 34.8503 14.0836C34.8503 13.9767 34.8164 13.8859 34.7488 13.8111L32.5351 11.6252C32.4604 11.5504 32.3695 11.5131 32.2627 11.5131C32.1559 11.5131 32.065 11.5504 31.9902 11.6252L17.58 26.0355L20.3108 28.7663ZM9.46356 30.9981C7.1502 30.8478 5.39523 30.3068 4.19864 29.3752C3.00209 28.4436 2.40381 27.1434 2.40381 25.4746C2.40381 23.8578 3.09611 22.5403 4.48073 21.5221C5.86534 20.504 7.78841 19.8838 10.2499 19.6616C11.5327 19.5455 12.4901 19.303 13.1223 18.934C13.7544 18.5651 14.0705 18.0594 14.0705 17.4169C14.0705 16.5501 13.6654 15.8872 12.8552 15.4281C12.045 14.969 10.7026 14.6362 8.82793 14.4297L9.02131 12.3518C11.3881 12.6067 13.1703 13.1562 14.3679 14.0003C15.5656 14.8443 16.1644 15.9831 16.1644 17.4169C16.1644 18.6455 15.6639 19.6396 14.6628 20.3992C13.6618 21.1588 12.2471 21.6109 10.4187 21.7555C8.4415 21.9158 6.96036 22.3054 5.97531 22.9243C4.99028 23.5433 4.49777 24.3934 4.49777 25.4746C4.49777 26.5109 4.91068 27.3081 5.73652 27.8661C6.56238 28.4242 7.83321 28.7702 9.54902 28.9041L9.46356 30.9981ZM20.7018 31.3496L14.9967 25.6445L30.8877 9.7866C31.2965 9.3849 31.7618 9.18958 32.2835 9.20064C32.8052 9.21167 33.2705 9.40699 33.6794 9.7866L36.5767 12.6669C36.9856 13.0757 37.19 13.5483 37.19 14.0846C37.19 14.6209 36.9856 15.0899 36.5767 15.4916L20.7018 31.3496ZM15.1345 32.5002C14.7585 32.5899 14.4273 32.4916 14.1409 32.2053C13.8546 31.919 13.7563 31.5878 13.8461 31.2117L14.9967 25.6445L20.7018 31.3496L15.1345 32.5002Z" fill="#003168"/>
</svg>
