<svg width="40" height="40" viewBox="0 0 40 40" fill="none" xmlns="http://www.w3.org/2000/svg">
<rect width="40" height="40"/>
<path d="M18.0865 24.5834H21.9134L20.9369 18.9937C21.4604 18.7807 21.8847 18.4465 22.2099 17.991C22.535 17.5355 22.6976 17.0265 22.6976 16.4638C22.6976 15.7174 22.4346 15.0812 21.9086 14.5552C21.3826 14.0292 20.7464 13.7662 20 13.7662C19.2535 13.7662 18.6173 14.0292 18.0913 14.5552C17.5653 15.0812 17.3023 15.7174 17.3023 16.4638C17.3023 17.0265 17.4649 17.5355 17.79 17.991C18.1152 18.4465 18.5395 18.7807 19.063 18.9937L18.0865 24.5834ZM20 35.7842C16.3839 34.7942 13.3965 32.65 11.0379 29.3516C8.67931 26.0532 7.5 22.389 7.5 18.3591V8.89333L20 4.21387L32.4999 8.89333V18.3591C32.4999 22.389 31.3206 26.0532 28.962 29.3516C26.6034 32.65 23.616 34.7942 20 35.7842ZM20 33.5899C23.0356 32.6091 25.5288 30.6995 27.4797 27.8612C29.4305 25.0229 30.406 21.8555 30.406 18.3591V10.3431L20 6.44028L9.59396 10.3431V18.3591C9.59396 21.8555 10.5694 25.0229 12.5202 27.8612C14.4711 30.6995 16.9643 32.6091 20 33.5899Z" fill="#003168"/>
</svg>
