<svg width="32" height="32" viewBox="0 0 32 32" fill="none" xmlns="http://www.w3.org/2000/svg">
<rect width="32" height="32" />
<path d="M14.4692 19.7292H17.5307L16.7495 15.2575C17.1683 15.0871 17.5078 14.8197 17.7679 14.4553C18.028 14.0909 18.1581 13.6837 18.1581 13.2335C18.1581 12.6364 17.9477 12.1274 17.5269 11.7066C17.1061 11.2858 16.5971 11.0754 16 11.0754C15.4028 11.0754 14.8939 11.2858 14.4731 11.7066C14.0523 12.1274 13.8419 12.6364 13.8419 13.2335C13.8419 13.6837 13.9719 14.0909 14.232 14.4553C14.4921 14.8197 14.8316 15.0871 15.2504 15.2575L14.4692 19.7292ZM16 28.6899C13.1071 27.8979 10.7172 26.1825 8.83033 23.5438C6.94344 20.905 6 17.9737 6 14.7498V7.17716L16 3.43359L25.9999 7.17716V14.7498C25.9999 17.9737 25.0565 20.905 23.1696 23.5438C21.2827 26.1825 18.8928 27.8979 16 28.6899ZM16 26.9344C18.4285 26.1498 20.423 24.6221 21.9837 22.3515C23.5444 20.0808 24.3248 17.5469 24.3248 14.7498V8.33696L16 5.21473L7.67517 8.33696V14.7498C7.67517 17.5469 8.45551 20.0808 10.0162 22.3515C11.5769 24.6221 13.5715 26.1498 16 26.9344Z" fill="#003168"/>
</svg>
