<svg width="16" height="16" viewBox="0 0 16 16" fill="none" xmlns="http://www.w3.org/2000/svg">
<path d="M14.1624 13.4349V3.20678C14.1624 3.14695 14.1432 3.0978 14.1047 3.05933C14.0662 3.02087 14.0171 3.00165 13.9572 3.00165H2.04273C1.9829 3.00165 1.93375 3.02087 1.89528 3.05933C1.85682 3.0978 1.83758 3.14695 1.83758 3.20678V8.33498H1V3.20678C1 2.92039 1.10266 2.67501 1.30797 2.47063C1.51327 2.26625 1.75819 2.16406 2.04273 2.16406H13.9572C14.2418 2.16406 14.4867 2.26671 14.692 2.47201C14.8973 2.67732 15 2.92225 15 3.20678V12.4012C15 12.652 14.9213 12.8743 14.7639 13.0679C14.6065 13.2616 14.406 13.3839 14.1624 13.4349ZM5.99998 9.11873C5.35833 9.11873 4.82256 8.90379 4.39268 8.47391C3.96281 8.04405 3.74787 7.50757 3.74787 6.86448C3.74787 6.2214 3.96281 5.68564 4.39268 5.25718C4.82256 4.82874 5.35833 4.61451 5.99998 4.61451C6.64164 4.61451 7.17741 4.82874 7.60728 5.25718C8.03716 5.68564 8.2521 6.2214 8.2521 6.86448C8.2521 7.50757 8.03716 8.04405 7.60728 8.47391C7.17741 8.90379 6.64164 9.11873 5.99998 9.11873ZM5.99998 8.28115C6.39969 8.28115 6.73538 8.14532 7.00703 7.87368C7.27869 7.60202 7.41452 7.26634 7.41452 6.86661C7.41452 6.4669 7.27869 6.13122 7.00703 5.85956C6.73538 5.58792 6.39969 5.4521 5.99998 5.4521C5.60027 5.4521 5.26459 5.58792 4.99293 5.85956C4.72128 6.13122 4.58545 6.4669 4.58545 6.86661C4.58545 7.26634 4.72128 7.60202 4.99293 7.87368C5.26459 8.14532 5.60027 8.28115 5.99998 8.28115ZM1.00002 14.2025V12.8649C1.00002 12.5173 1.09282 12.2086 1.27843 11.9386C1.46404 11.6687 1.70742 11.4612 2.00855 11.3162C2.69602 11.0005 3.36855 10.7631 4.02615 10.6038C4.68375 10.4445 5.34165 10.3649 5.99985 10.3649C6.65805 10.3649 7.31486 10.4457 7.97027 10.6072C8.62568 10.7688 9.29619 11.0061 9.9818 11.3192C10.2908 11.464 10.5378 11.6709 10.7227 11.9399C10.9075 12.209 11 12.5173 11 12.8649V14.2025H1.00002ZM1.83758 13.3649H10.1624V12.8649C10.1624 12.7042 10.1127 12.5517 10.0135 12.4074C9.91416 12.2631 9.78317 12.1487 9.62048 12.064C8.99199 11.7572 8.38455 11.5369 7.79815 11.4031C7.21174 11.2694 6.61235 11.2025 5.99998 11.2025C5.38762 11.2025 4.78524 11.2694 4.19285 11.4031C3.60046 11.5369 2.99372 11.7572 2.37263 12.064C2.20996 12.1487 2.08011 12.2631 1.9831 12.4074C1.88609 12.5517 1.83758 12.7042 1.83758 12.8649V13.3649Z" fill="#218123"/>
</svg>