<?xml version="1.0" encoding="UTF-8"?>
<svg width="48px" height="36px" viewBox="0 0 48 36" version="1.1" xmlns="http://www.w3.org/2000/svg" xmlns:xlink="http://www.w3.org/1999/xlink">
    <!-- Generator: Sketch 46.2 (44496) - http://www.bohemiancoding.com/sketch -->
    <title>icon_Allkiri</title>
    <desc>Created with Sketch.</desc>
    <defs></defs>
    <g id="Buttons&amp;Icons" stroke="none" stroke-width="1" fill="none" fill-rule="evenodd">
        <g id="eID" transform="translate(-25.000000, -410.000000)" fill-rule="nonzero" fill="#FFFFFF">
            <g id="icon_Allkiri" transform="translate(25.000000, 408.000000)">
                <path d="M44.595244,34.4142137 L44.5935059,34.4068604 L44.6607015,34.4242894 L44.5919797,34.4027217 L42.728557,27.8426503 L44.3477414,26.2234658 L46.8745918,35.1190961 L46.8680969,35.1170577 L47.5283002,37.4204384 L45.1290283,36.6724243 L45.1277587,36.6670531 L36.5851608,33.9860465 L38.1806237,32.3905836 L44.5919797,34.4027217 L44.595244,34.4142137 Z M21.1365016,5.69379829 L19.7903577,4.34765439 C19.7394313,4.29672802 19.6381666,4.29160807 19.6906758,4.2390989 L14.7278299,9.20194481 C14.7906666,9.13910812 14.7956222,9.221226 14.8562041,9.28180795 L16.2023481,10.6279519 L14.7881345,12.0421654 L13.4419906,10.6960215 C12.660942,9.91497293 12.5325677,8.56877983 13.3136163,7.78773125 L18.2764622,2.82488534 C19.0575108,2.04383676 20.4235227,2.15239224 21.2045713,2.93344082 L22.5507152,4.27958473 L21.1365016,5.69379829 Z M18.9492616,13.4565311 L36.6269311,31.1342007 L35.2127176,32.5484142 L16.1208345,13.4565311 L23.8990091,5.67835656 L42.9908922,24.7702396 L41.5766786,26.1844532 L23.8990091,8.50678368 L18.9492616,13.4565311 Z" id="Combined-Shape"></path>
                <path d="M16.9645556,34 C16.7219407,35.6961471 15.263236,37 13.5,37 C11.5670034,37 10,35.4329966 10,33.5 L12,33.5 C12,34.3284271 12.6715729,35 13.5,35 C14.3284271,35 15,34.3284271 15,33.5 L15,32 L17,32 L17,34 L16.9645556,34 Z M20.0931065,32 L21,32.5679654 L21,34 C21,34.5522847 21.4477153,35 22,35 L24.8833283,35 L28.0768095,37 L22,37 C20.3431458,37 19,35.6568542 19,34 L19,31.9999998 C19,31.4477153 18.5522847,31 18,31 C17.4477153,31 17,31.4477153 17,32 L15,32 C15,30.3431458 16.3431458,29 18,29 C19.6568542,29 21,30.3431458 21,32 L20.0931065,32 Z M0,26 C0,22.6862915 2.6862915,20 6,20 C9.3137085,20 12,22.6862915 12,26 L10,26 C10,23.790861 8.209139,22 6,22 C3.790861,22 2,23.790861 2,26 L0,26 Z M19,32 L21,32 L21,34 L19,34 L19,32 Z M25,35 L29,35 L29,37 L25,37 L25,35 Z M10,26 L12,26 L12,34 L10,34 L10,26 Z M0,26 L2,26 L2,37 L0,37 L0,26 Z" id="Combined-Shape"></path>
            </g>
        </g>
    </g>
</svg>