<?xml version="1.0" encoding="UTF-8"?>
<svg width="17px" height="20px" viewBox="0 0 17 20" version="1.1" xmlns="http://www.w3.org/2000/svg" xmlns:xlink="http://www.w3.org/1999/xlink">
    <!-- Generator: Sketch 46.2 (44496) - http://www.bohemiancoding.com/sketch -->
    <title>Icon_Allkiri_small</title>
    <desc>Created with Sketch.</desc>
    <defs></defs>
    <g id="Buttons&amp;Icons" stroke="none" stroke-width="1" fill="none" fill-rule="evenodd">
        <g id="eID" transform="translate(-977.000000, -246.000000)">
            <g id="Icon_Allkiri_small" transform="translate(977.000000, 246.000000)">
                <g id="Icon_Edit" transform="translate(9.500000, 10.000000) scale(-1, 1) translate(-9.500000, -10.000000) ">
                    <g id="Group-5" transform="translate(9.500000, 9.500000) rotate(-315.000000) translate(-9.500000, -9.500000) translate(7.000000, -1.000000)" stroke="#75787B">
                        <polyline id="Path-2" points="0.5 16 0.5 3.5 4.5 3.5 4.5 16"></polyline>
                        <path d="M0.902123821,17.5 L2.5,20.0566019 L4.09787618,17.5 L0.902123821,17.5 Z" id="Path-3"></path>
                        <path d="M0.5,2 L0.5,1.5 C0.5,0.94771525 0.94771525,0.5 1.5,0.5 L3.5,0.5 C4.05228475,0.5 4.5,0.94771525 4.5,1.5 L4.5,2" id="Path-4"></path>
                    </g>
                    <rect id="Rectangle" fill="#75787B" x="2" y="19" width="5" height="1"></rect>
                    <path d="M13,18 C13,19.1045695 12.1045695,20 11,20 L11,19 C11.5522847,19 12,18.5522847 12,18 L13,18 Z" id="Combined-Shape-Copy-3" fill="#75787B" transform="translate(12.000000, 19.000000) scale(-1, 1) translate(-12.000000, -19.000000) "></path>
                    <rect id="Rectangle-12" fill="#75787B" x="14" y="15" width="1" height="3"></rect>
                    <path d="M15,18 C15,19.1045695 14.1045695,20 13,20 L13,19 C13.5522847,19 14,18.5522847 14,18 L15,18 Z" id="Combined-Shape-Copy-4" fill="#75787B"></path>
                    <path d="M9,18 C9,19.1045695 8.1045695,20 7,20 L7,19 C7.55228475,19 8,18.5522847 8,18 L9,18 Z" id="Combined-Shape-Copy-7" fill="#75787B"></path>
                    <path d="M16,13 C16,14.1045695 15.1045695,15 14,15 L14,14 C14.5522847,14 15,13.5522847 15,13 L16,13 Z" id="Combined-Shape-Copy" fill="#75787B" transform="translate(15.000000, 14.000000) rotate(-180.000000) translate(-15.000000, -14.000000) "></path>
                    <path d="M10,16 C10,17.1045695 9.1045695,18 8,18 L8,17 C8.55228475,17 9,16.5522847 9,16 L10,16 Z" id="Combined-Shape-Copy-5" fill="#75787B" transform="translate(9.000000, 17.000000) rotate(-180.000000) translate(-9.000000, -17.000000) "></path>
                    <path d="M18,13 C18,14.1045695 17.1045695,15 16,15 L16,14 C16.5522847,14 17,13.5522847 17,13 L18,13 Z" id="Combined-Shape-Copy-2" fill="#75787B" transform="translate(17.000000, 14.000000) scale(-1, 1) rotate(-180.000000) translate(-17.000000, -14.000000) "></path>
                    <path d="M12,16 C12,17.1045695 11.1045695,18 10,18 L10,17 C10.5522847,17 11,16.5522847 11,16 L12,16 Z" id="Combined-Shape-Copy-6" fill="#75787B" transform="translate(11.000000, 17.000000) scale(-1, 1) rotate(-180.000000) translate(-11.000000, -17.000000) "></path>
                    <rect id="Rectangle-11" fill="#75787B" x="17" y="15" width="1" height="5"></rect>
                </g>
            </g>
        </g>
    </g>
</svg>