<?xml version="1.0" standalone="no"?>
<!DOCTYPE svg PUBLIC "-//W3C//DTD SVG 20010904//EN"
 "http://www.w3.org/TR/2001/REC-SVG-20010904/DTD/svg10.dtd">
<svg version="1.0" xmlns="http://www.w3.org/2000/svg"
 width="150.000000pt" height="150.000000pt" viewBox="0 0 150.000000 150.000000"
 preserveAspectRatio="xMidYMid meet">
<g transform="translate(0.000000,150.000000) scale(0.050000,-0.050000)"
fill="#023664" stroke="none">
<path d="M1178 2970 c-402 -129 -510 -659 -195 -955 l102 -95 -84 0 c-539 0
-682 -606 -398 -1685 l62 -235 685 0 684 0 42 135 c215 696 215 1410 -2 1642
-70 75 -186 124 -324 137 l-128 12 97 87 c451 406 35 1142 -541 957z m370
-203 c446 -225 152 -821 -338 -685 -103 29 -238 163 -270 269 -91 303 301 571
608 416z m141 -930 c56 -56 -235 -969 -326 -1025 -11 -7 -56 107 -102 253 -45
146 -122 379 -170 519 -62 177 -81 257 -65 264 34 14 648 5 663 -11z"/>
</g>
</svg>
