<?xml version="1.0" encoding="UTF-8"?>
<svg width="44px" height="31px" viewBox="0 0 44 31" version="1.1" xmlns="http://www.w3.org/2000/svg" xmlns:xlink="http://www.w3.org/1999/xlink">
    <!-- Generator: Sketch 46.2 (44496) - http://www.bohemiancoding.com/sketch -->
    <title>icon_Minu eID hover</title>
    <desc>Created with Sketch.</desc>
    <defs></defs>
    <g id="Buttons&amp;Icons" stroke="none" stroke-width="1" fill="none" fill-rule="evenodd">
        <g id="eID" transform="translate(-97.000000, -548.000000)" fill="#998B66">
            <g id="icon_Minu-eID-hover" transform="translate(95.000000, 542.000000)">
                <path d="M6,8 C4.8954305,8 4,8.8954305 4,10 L4,33 C4,34.1045695 4.8954305,35 6,35 L42,35 C43.1045695,35 44,34.1045695 44,33 L44,10 C44,8.8954305 43.1045695,8 42,8 L6,8 Z M6,6 L42,6 C44.209139,6 46,7.790861 46,10 L46,33 C46,35.209139 44.209139,37 42,37 L6,37 C3.790861,37 2,35.209139 2,33 L2,10 C2,7.790861 3.790861,6 6,6 Z" id="Rectangle-4" fill-rule="nonzero"></path>
                <rect id="Rectangle-6" fill-rule="evenodd" x="26" y="14" width="13" height="2"></rect>
                <rect id="Rectangle-6-Copy" fill-rule="evenodd" x="26" y="19" width="13" height="2"></rect>
                <path d="M15,19 C16.6568542,19 18,17.6568542 18,16 C18,14.3431458 16.6568542,13 15,13 C13.3431458,13 12,14.3431458 12,16 C12,17.6568542 13.3431458,19 15,19 Z M15,21 C12.2385763,21 10,18.7614237 10,16 C10,13.2385763 12.2385763,11 15,11 C17.7614237,11 20,13.2385763 20,16 C20,18.7614237 17.7614237,21 15,21 Z" id="Oval" fill-rule="nonzero"></path>
                <path d="M23,32 L23,25.75 C23,23.6789322 21.209139,22 19,22 L11,22 C8.790861,22 7,23.6789322 7,25.75 L7,27.5 L9,27.5 L9,25.75 C9,24.8133842 9.86760984,24 11,24 L19,24 C20.1323902,24 21,24.8133842 21,25.75 L21,31.4375 L23,32 Z" id="Rectangle-5" fill-rule="nonzero"></path>
                <rect id="Rectangle" fill-rule="evenodd" x="21" y="30" width="2" height="2"></rect>
                <rect id="Rectangle-Copy" fill-rule="evenodd" x="7" y="26" width="2" height="2"></rect>
            </g>
        </g>
    </g>
</svg>