<?xml version="1.0" encoding="UTF-8"?>
<svg width="17px" height="19px" viewBox="0 0 17 19" version="1.1" xmlns="http://www.w3.org/2000/svg" xmlns:xlink="http://www.w3.org/1999/xlink">
    <!-- Generator: Sketch 46.2 (44496) - http://www.bohemiancoding.com/sketch -->
    <title>icon_Krüpto_small</title>
    <desc>Created with Sketch.</desc>
    <defs></defs>
    <g id="Buttons&amp;Icons" stroke="none" stroke-width="1" fill="none" fill-rule="evenodd">
        <g id="eID" transform="translate(-977.000000, -336.000000)" fill="#727679">
            <g id="icon_Krüpto_small" transform="translate(977.000000, 336.000000)">
                <path d="M1,11.5 C1,13.2400974 3.44952495,15.3739642 8.5,17.6549208 C13.5504751,15.3739642 16,13.2400974 16,11.5 C16,7.61956522 16,6.54773157 16,1 L1,1 C1,5.41304348 1,8.91304348 1,11.5 Z M8.45053194e-14,0 L17,0 L17,11.5 C17,13.8333333 14.1666667,16.25 8.5,18.75 C2.83333333,16.25 1.21309213e-13,13.8333333 8.45053194e-14,11.5 L8.45053194e-14,0 Z" id="Rectangle-10" fill-rule="nonzero"></path>
                <path d="M10,12.5 C10,13.3284271 9.32842712,14 8.5,14 C7.67157288,14 7,13.3284271 7,12.5 L7,9 L8,9 L8,11.7926764 L8,12.5 C8,12.7761424 8.22385763,13 8.5,13 C8.77614237,13 9,12.7761424 9,12.5 L9,11.7926764 L9,9 L10,9 L10,12.5 Z" id="Combined-Shape" fill-rule="evenodd"></path>
                <path d="M8,9.96455557 C6.30385293,9.72194074 5,8.26323595 5,6.5 C5,4.56700338 6.56700338,3 8.5,3 C10.4329966,3 12,4.56700338 12,6.5 L11,6.5 C11,5.11928813 9.88071187,4 8.5,4 C7.11928813,4 6,5.11928813 6,6.5 C6,7.70947896 6.85887984,8.71835578 8,8.94999094 L8,9.96455557 Z" id="Combined-Shape" fill-rule="evenodd"></path>
            </g>
        </g>
    </g>
</svg>
