<svg width="40" height="40" viewBox="0 0 40 40" fill="none" xmlns="http://www.w3.org/2000/svg">
<rect width="40" height="40"/>
<path d="M35.406 33.5937V8.0233C35.406 7.87371 35.3579 7.75084 35.2617 7.65467C35.1655 7.55853 35.0427 7.51046 34.8931 7.51046H5.10683C4.95725 7.51046 4.83438 7.55853 4.73821 7.65467C4.64204 7.75084 4.59396 7.87371 4.59396 8.0233V20.8438H2.5V8.0233C2.5 7.30733 2.75664 6.69387 3.26992 6.18292C3.78317 5.67198 4.39547 5.4165 5.10683 5.4165H34.8931C35.6044 5.4165 36.2168 5.67313 36.73 6.18638C37.2433 6.69966 37.4999 7.31196 37.4999 8.0233V31.0094C37.4999 31.6364 37.3032 32.192 36.9096 32.6762C36.5161 33.1604 36.0149 33.4662 35.406 33.5937ZM15 22.8032C13.3958 22.8032 12.0564 22.2658 10.9817 21.1911C9.90701 20.1165 9.36967 18.7753 9.36967 17.1675C9.36967 15.5599 9.90701 14.2204 10.9817 13.1493C12.0564 12.0782 13.3958 11.5426 15 11.5426C16.6041 11.5426 17.9435 12.0782 19.0182 13.1493C20.0929 14.2204 20.6303 15.5599 20.6303 17.1675C20.6303 18.7753 20.0929 20.1165 19.0182 21.1911C17.9435 22.2658 16.6041 22.8032 15 22.8032ZM15 20.7092C15.9992 20.7092 16.8384 20.3697 17.5176 19.6905C18.1967 19.0114 18.5363 18.1722 18.5363 17.1729C18.5363 16.1736 18.1967 15.3344 17.5176 14.6553C16.8384 13.9761 15.9992 13.6366 15 13.6366C14.0007 13.6366 13.1615 13.9761 12.4823 14.6553C11.8032 15.3344 11.4636 16.1736 11.4636 17.1729C11.4636 18.1722 11.8032 19.0114 12.4823 19.6905C13.1615 20.3697 14.0007 20.7092 15 20.7092ZM2.50004 35.5125V32.1686C2.50004 31.2996 2.73206 30.5278 3.19608 29.8529C3.66011 29.1781 4.26854 28.6594 5.02138 28.2968C6.74004 27.5077 8.42138 26.914 10.0654 26.5158C11.7094 26.1177 13.3541 25.9186 14.9996 25.9186C16.6451 25.9186 18.2871 26.1206 19.9257 26.5244C21.5642 26.9283 23.2405 27.5216 24.9545 28.3044C25.7271 28.6663 26.3445 29.1836 26.8066 29.8562C27.2688 30.5289 27.4999 31.2996 27.4999 32.1686V35.5125H2.50004ZM4.59396 33.4186H25.406V32.1686C25.406 31.7669 25.2818 31.3856 25.0336 31.0249C24.7854 30.6641 24.4579 30.378 24.0512 30.1664C22.48 29.3993 20.9614 28.8486 19.4954 28.5142C18.0293 28.1798 16.5309 28.0126 15 28.0126C13.469 28.0126 11.9631 28.1798 10.4821 28.5142C9.00115 28.8486 7.48431 29.3993 5.93158 30.1664C5.52489 30.378 5.20028 30.6641 4.95775 31.0249C4.71522 31.3856 4.59396 31.7669 4.59396 32.1686V33.4186Z" fill="#E7EAEF"/>
</svg>
