<svg width="32" height="32" viewBox="0 0 32 32" fill="none" xmlns="http://www.w3.org/2000/svg">
<path d="M16.2484 23.0122L27.7988 11.484C27.853 11.4242 27.88 11.3515 27.88 11.2661C27.88 11.1806 27.853 11.1079 27.7988 11.0481L26.0279 9.2994C25.9681 9.23958 25.8954 9.20966 25.81 9.20966C25.7245 9.20966 25.6518 9.23958 25.592 9.2994L14.0638 20.8276L16.2484 23.0122ZM7.57065 24.7977C5.71996 24.6774 4.31598 24.2447 3.35872 23.4994C2.40147 22.7541 1.92285 21.7139 1.92285 20.3789C1.92285 19.0855 2.4767 18.0315 3.58438 17.2169C4.69207 16.4024 6.23053 15.9063 8.19975 15.7285C9.22595 15.6356 9.99191 15.4416 10.4976 15.1464C11.0033 14.8513 11.2562 14.4467 11.2562 13.9327C11.2562 13.2393 10.9321 12.7089 10.284 12.3417C9.6358 11.9745 8.56186 11.7082 7.06215 11.543L7.21685 9.88063C9.11027 10.0846 10.536 10.5242 11.4942 11.1994C12.4523 11.8746 12.9314 12.7857 12.9314 13.9327C12.9314 14.9156 12.5309 15.7109 11.7301 16.3186C10.9292 16.9263 9.79745 17.288 8.33478 17.4036C6.75301 17.5319 5.5681 17.8435 4.78005 18.3387C3.99203 18.8339 3.59802 19.5139 3.59802 20.3789C3.59802 21.208 3.92835 21.8457 4.58902 22.2921C5.24971 22.7386 6.26637 23.0154 7.63902 23.1225L7.57065 24.7977ZM16.5612 25.0789L11.9972 20.5148L24.71 7.8285C25.037 7.50714 25.4092 7.35089 25.8266 7.35973C26.244 7.36855 26.6162 7.52481 26.9433 7.8285L29.2612 10.1327C29.5883 10.4598 29.7518 10.8379 29.7518 11.2669C29.7518 11.696 29.5883 12.0712 29.2612 12.3925L16.5612 25.0789ZM12.1074 25.9994C11.8066 26.0711 11.5416 25.9925 11.3126 25.7635C11.0835 25.5344 11.0049 25.2694 11.0767 24.9686L11.9972 20.5148L16.5612 25.0789L12.1074 25.9994Z" fill="#003168"/>
</svg>