<svg width="20" height="20" viewBox="0 0 20 20" fill="none" xmlns="http://www.w3.org/2000/svg">
<circle cx="10" cy="10" r="9" fill="#E1C1C6"/>
<path d="M6.39998 14.6538L9.99998 11.0538L13.6 14.6538L14.6538 13.6L11.0538 9.99998L14.6538 6.39998L13.6 5.34615L9.99998 8.94615L6.39998 5.34615L5.34615 6.39998L8.94615 9.99998L5.34615 13.6L6.39998 14.6538ZM10.0016 19.5C8.68772 19.5 7.45268 19.2506 6.29655 18.752C5.1404 18.2533 4.13472 17.5765 3.2795 16.7217C2.42427 15.8669 1.74721 14.8616 1.24833 13.706C0.749442 12.5504 0.5 11.3156 0.5 10.0017C0.5 8.68772 0.749334 7.45268 1.248 6.29655C1.74667 5.1404 2.42342 4.13472 3.27825 3.2795C4.1331 2.42427 5.13834 1.74721 6.29398 1.24833C7.44959 0.749443 8.68437 0.5 9.9983 0.5C11.3122 0.5 12.5473 0.749334 13.7034 1.248C14.8596 1.74667 15.8652 2.42342 16.7205 3.27825C17.5757 4.1331 18.2527 5.13834 18.7516 6.29398C19.2505 7.44959 19.5 8.68437 19.5 9.9983C19.5 11.3122 19.2506 12.5473 18.752 13.7034C18.2533 14.8596 17.5765 15.8652 16.7217 16.7205C15.8669 17.5757 14.8616 18.2527 13.706 18.7516C12.5504 19.2505 11.3156 19.5 10.0016 19.5ZM9.99998 18C12.2333 18 14.125 17.225 15.675 15.675C17.225 14.125 18 12.2333 18 9.99998C18 7.76664 17.225 5.87498 15.675 4.32498C14.125 2.77498 12.2333 1.99998 9.99998 1.99998C7.76664 1.99998 5.87498 2.77498 4.32498 4.32498C2.77498 5.87498 1.99998 7.76664 1.99998 9.99998C1.99998 12.2333 2.77498 14.125 4.32498 15.675C5.87498 17.225 7.76664 18 9.99998 18Z" fill="#AD2A45"/>
</svg>