<?xml version="1.0" standalone="no"?>
<svg version="1.1" preserveAspectRatio="none" viewBox="0 0 24 24" class="ng-element" data-id="665cb5a15a8258e3074323666869fde2" style="fill: rgb(113, 73, 21); width: 20px; height: 20px;" xmlns="http://www.w3.org/2000/svg"><g><path xmlns:default="http://www.w3.org/2000/svg" id="angle-double-down" d="M17.2,11.84c0-0.09-0.04-0.18-0.1-0.24l-0.52-0.52c-0.13-0.13-0.33-0.14-0.47-0.01  c0,0-0.01,0.01-0.01,0.01l-4.1,4.1l-4.09-4.1c-0.13-0.13-0.33-0.14-0.47-0.01c0,0-0.01,0.01-0.01,0.01L6.91,11.6  c-0.13,0.13-0.14,0.33-0.01,0.47c0,0,0.01,0.01,0.01,0.01l4.85,4.85c0.13,0.13,0.33,0.14,0.47,0.01c0,0,0.01-0.01,0.01-0.01  l4.85-4.85c0.06-0.06,0.1-0.15,0.1-0.24l0,0H17.2z M17.2,7.84c0-0.09-0.04-0.18-0.1-0.24l-0.52-0.52c-0.13-0.13-0.33-0.14-0.47-0.01  c0,0-0.01,0.01-0.01,0.01l-4.1,4.1L7.91,7.09C7.78,6.95,7.57,6.95,7.44,7.07c0,0-0.01,0.01-0.01,0.01L6.91,7.61  C6.77,7.73,6.77,7.94,6.89,8.07c0,0,0.01,0.01,0.01,0.01l4.85,4.85c0.13,0.13,0.33,0.14,0.47,0.01c0,0,0.01-0.01,0.01-0.01  l4.85-4.85c0.06-0.06,0.1-0.15,0.1-0.24l0,0L17.2,7.84z" style="fill: rgb(113, 73, 21);"/></g></svg>