<?xml version="1.0" encoding="UTF-8"?>
<svg width="200" height="200" viewBox="0 0 200 200" version="1.1" xmlns="http://www.w3.org/2000/svg" xmlns:xlink="http://www.w3.org/1999/xlink">
    <title>icon_Seaded</title>
    <g id="Buttons&amp;Icons" transform="scale(10)" stroke-width="1" fill="none" stroke="#006EB5">
        <path d="M 0.61767651,8.5 C 0.53956291,8.9926617 0.5,9.4936922 0.5,10 c 0,0.506308 0.0395629,1.007338 0.11767651,1.5 H 2.6396397 l 0.096614,0.375371 c 0.1752704,0.680973 0.4455932,1.331299 0.8018494,1.934201 l 0.1972286,0.333776 -1.4297555,1.429756 c 0.5906499,0.813985 1.3073354,1.53067 2.1213205,2.12132 l 1.4297553,-1.429756 0.3337757,0.197229 c 0.6029028,0.356256 1.2532284,0.626579 1.9342017,0.801849 L 8.5,17.36036 v 2.021963 C 8.9926617,19.460437 9.4936922,19.5 10,19.5 c 0.506308,0 1.007338,-0.03956 1.5,-0.117677 V 17.36036 l 0.375371,-0.09661 c 0.680973,-0.17527 1.331299,-0.445593 1.934201,-0.801849 l 0.333776,-0.197229 1.429756,1.429756 c 0.813985,-0.59065 1.53067,-1.307335 2.12132,-2.12132 l -1.429756,-1.429756 0.197229,-0.333776 c 0.356256,-0.602902 0.626579,-1.253228 0.801849,-1.934201 L 17.36036,11.5 h 2.021963 C 19.460437,11.007338 19.5,10.506308 19.5,10 19.5,9.4936922 19.460437,8.9926617 19.382323,8.5 H 17.36036 L 17.263746,8.1246292 C 17.088476,7.4436559 16.818153,6.7933303 16.461897,6.1904275 L 16.264668,5.8566518 17.694424,4.4268965 C 17.103774,3.6129114 16.387089,2.8962259 15.573104,2.3055762 L 14.143348,3.7353315 13.809572,3.5381029 C 13.20667,3.1818467 12.556344,2.9115239 11.875371,2.7362535 L 11.5,2.6396397 V 0.61767658 C 11.007338,0.53956292 10.506308,0.5 10,0.5 9.4936922,0.5 8.9926617,0.53956291 8.5,0.61767651 V 2.6396397 L 8.1246292,2.7362535 C 7.4436559,2.9115239 6.7933303,3.1818467 6.1904275,3.5381029 L 5.8566518,3.7353315 4.4268964,2.305576 C 3.6129114,2.8962259 2.8962259,3.6129114 2.3055762,4.4268965 L 3.7353315,5.8566518 3.5381029,6.1904275 C 3.1818467,6.7933303 2.9115239,7.4436559 2.7362535,8.1246292 L 2.6396397,8.5 Z" id="Combined-Shape"></path>
        <path d="M13,10 C13,8.34314575 11.6568542,7 10,7 C8.34314575,7 7,8.34314575 7,10 C7,11.6568542 8.34314575,13 10,13 L10,13" id="Oval-3"></path>
    </g>
</svg>
