<?xml version="1.0" encoding="UTF-8" standalone="no"?>
<svg
   xmlns:dc="http://purl.org/dc/elements/1.1/"
   xmlns:cc="http://creativecommons.org/ns#"
   xmlns:rdf="http://www.w3.org/1999/02/22-rdf-syntax-ns#"
   xmlns:svg="http://www.w3.org/2000/svg"
   xmlns="http://www.w3.org/2000/svg"
   xmlns:sodipodi="http://sodipodi.sourceforge.net/DTD/sodipodi-0.dtd"
   xmlns:inkscape="http://www.inkscape.org/namespaces/inkscape"
   width="44px"
   height="31px"
   viewBox="0 0 44 31"
   version="1.1"
   id="svg3923"
   sodipodi:docname="icon_Minu_eID-copy.svg"
   inkscape:version="0.92.2 (5c3e80d, 2017-08-06)">
  <metadata
     id="metadata3927">
    <rdf:RDF>
      <cc:Work
         rdf:about="">
        <dc:format>image/svg+xml</dc:format>
        <dc:type
           rdf:resource="http://purl.org/dc/dcmitype/StillImage" />
        <dc:title>icon_Minu eID</dc:title>
      </cc:Work>
    </rdf:RDF>
  </metadata>
  <sodipodi:namedview
     pagecolor="#ffffff"
     bordercolor="#666666"
     borderopacity="1"
     objecttolerance="10"
     gridtolerance="10"
     guidetolerance="10"
     inkscape:pageopacity="0"
     inkscape:pageshadow="2"
     inkscape:window-width="640"
     inkscape:window-height="480"
     id="namedview3925"
     showgrid="false"
     inkscape:zoom="6.4545455"
     inkscape:cx="22"
     inkscape:cy="15.5"
     inkscape:window-x="0"
     inkscape:window-y="23"
     inkscape:window-maximized="0"
     inkscape:current-layer="svg3923" />
  <!-- Generator: Sketch 46.2 (44496) - http://www.bohemiancoding.com/sketch -->
  <title
     id="title3907">icon_Minu eID</title>
  <desc
     id="desc3909">Created with Sketch.</desc>
  <defs
     id="defs3911" />
  <g
     id="Buttons&amp;Icons"
     stroke="none"
     stroke-width="1"
     fill="none"
     fill-rule="evenodd">
    <g
       id="eID"
       transform="translate(-27.000000, -548.000000)"
       fill="#FFFFFF">
      <g
         id="icon_Minu-eID"
         transform="translate(25.000000, 542.000000)">
        <path
           d="M6,8 C4.8954305,8 4,8.8954305 4,10 L4,33 C4,34.1045695 4.8954305,35 6,35 L42,35 C43.1045695,35 44,34.1045695 44,33 L44,10 C44,8.8954305 43.1045695,8 42,8 L6,8 Z M6,6 L42,6 C44.209139,6 46,7.790861 46,10 L46,33 C46,35.209139 44.209139,37 42,37 L6,37 C3.790861,37 2,35.209139 2,33 L2,10 C2,7.790861 3.790861,6 6,6 Z"
           id="Rectangle-4"
           fill-rule="nonzero" />
        <rect
           id="Rectangle-6"
           fill-rule="evenodd"
           x="26"
           y="14"
           width="13"
           height="2" />
        <rect
           id="Rectangle-6-Copy"
           fill-rule="evenodd"
           x="26"
           y="19"
           width="13"
           height="2" />
        <path
           d="M15,19 C16.6568542,19 18,17.6568542 18,16 C18,14.3431458 16.6568542,13 15,13 C13.3431458,13 12,14.3431458 12,16 C12,17.6568542 13.3431458,19 15,19 Z M15,21 C12.2385763,21 10,18.7614237 10,16 C10,13.2385763 12.2385763,11 15,11 C17.7614237,11 20,13.2385763 20,16 C20,18.7614237 17.7614237,21 15,21 Z"
           id="Oval"
           fill-rule="nonzero" />
        <path
           d="M23,32 L23,25.75 C23,23.6789322 21.209139,22 19,22 L11,22 C8.790861,22 7,23.6789322 7,25.75 L7,27.5 L9,27.5 L9,25.75 C9,24.8133842 9.86760984,24 11,24 L19,24 C20.1323902,24 21,24.8133842 21,25.75 L21,31.4375 L23,32 Z"
           id="Rectangle-5"
           fill-rule="nonzero" />
        <rect
           id="Rectangle"
           fill-rule="evenodd"
           x="21"
           y="30"
           width="2"
           height="2" />
        <rect
           id="Rectangle-Copy"
           fill-rule="evenodd"
           x="7"
           y="26"
           width="2"
           height="2" />
      </g>
    </g>
  </g>
</svg>
