<?xml version="1.0" encoding="UTF-8"?>
<svg width="28" height="22" viewBox="0 0 28 22" fill="none" xmlns="http://www.w3.org/2000/svg">
<path d="M25.3005 0H2.69947C1.21093 0 0 1.23448 0 2.75187V19.248C0 20.7655 1.21093 22 2.69947 22H25.3005C26.7889 22 28 20.7655 28 19.248V2.75187C28 1.23448 26.7889 0 25.3005 0Z" fill="white"/>
<path d="M16.916 14.5091H14.7616V7.51714H16.9947C16.9947 7.51714 20.1386 7.26808 20.1386 10.9218C20.1386 14.5754 16.916 14.5091 16.916 14.5091ZM17.998 3.26562H14.1614H11.7024H10.7349C10.4048 3.26562 10.1348 3.55156 10.1348 3.90105V18.0878C10.1348 18.4374 10.4048 18.7234 10.7349 18.7234H11.5983H14.1614H17.5806C24.3866 18.7234 24.9298 13.0643 24.9298 11.5031V10.3074C24.6946 4.11248 19.9269 3.26562 17.998 3.26562Z" fill="#003168"/>
<path d="M8.45596 6.86687V3.90118C8.45596 3.55156 8.18597 3.26562 7.85584 3.26562H4.42922C4.09909 3.26562 3.8291 3.55156 3.8291 3.90118V8.82688L8.45596 6.86687Z" fill="#F04E22"/>
<path d="M3.82812 10.6221V18.0892C3.82812 18.4388 4.09812 18.7247 4.42825 18.7247H7.85486C8.18499 18.7247 8.45498 18.4388 8.45498 18.0892V8.66211L3.82812 10.6221Z" fill="#003168"/>
<path d="M25.3005 0H2.69947C1.21093 0 0 1.23448 0 2.75187V19.248C0 20.7655 1.21093 22 2.69947 22H25.3005C26.7889 22 28 20.7655 28 19.248V2.75187C28 1.23448 26.7889 0 25.3005 0ZM25.3005 0.818036C26.363 0.818036 27.2275 1.68566 27.2275 2.75187V19.248C27.2275 20.3143 26.363 21.182 25.3005 21.182H2.69947C1.63696 21.182 0.772546 20.3143 0.772546 19.248V2.75187C0.772546 1.68566 1.63696 0.818036 2.69947 0.818036H25.3005Z" fill="#003168"/>
</svg>