<?xml version="1.0" standalone="no"?>
<!DOCTYPE svg PUBLIC "-//W3C//DTD SVG 20010904//EN"
 "http://www.w3.org/TR/2001/REC-SVG-20010904/DTD/svg10.dtd">
<svg version="1.0" xmlns="http://www.w3.org/2000/svg"
 width="288.000000pt" height="252.000000pt" viewBox="0 0 288.000000 252.000000"
 preserveAspectRatio="xMidYMid meet">
<metadata>
Created by potrace 1.10, written by Peter Selinger 2001-2011
</metadata>
<g transform="translate(0.000000,252.000000) scale(0.100000,-0.100000)"
fill="#ffffff" stroke="none">
<path d="M274 2135 c-10 -8 -26 -15 -35 -15 -20 0 -99 -79 -99 -99 0 -9 -7
-25 -15 -35 -22 -30 -22 -1502 0 -1532 8 -10 15 -26 15 -35 0 -20 79 -99 99
-99 9 0 25 -7 35 -15 30 -22 2282 -22 2312 0 10 8 26 15 35 15 20 0 99 79 99
99 0 9 7 25 15 35 22 30 22 1502 0 1532 -8 10 -15 26 -15 35 0 22 -77 99 -99
99 -9 0 -25 7 -35 15 -30 22 -2282 22 -2312 0z m2319 -142 l37 -36 0 -737 0
-737 -37 -36 -36 -37 -1127 0 -1127 0 -36 37 -37 36 0 737 0 737 37 36 36 37
1127 0 1127 0 36 -37z"/>
<path d="M790 1832 c-95 -46 -139 -91 -182 -186 -47 -102 -3 -247 101 -327 81
-62 175 -79 276 -49 67 20 163 114 188 185 53 152 -21 301 -187 377 -49 23
-148 22 -196 0z m190 -127 c61 -38 90 -89 90 -155 0 -43 -6 -64 -25 -93 -79
-116 -224 -118 -306 -4 -57 79 -31 193 59 251 52 35 128 35 182 1z"/>
<path d="M1550 1610 l0 -60 390 0 390 0 0 60 0 60 -390 0 -390 0 0 -60z"/>
<path d="M1550 1310 l0 -60 390 0 390 0 0 60 0 60 -390 0 -390 0 0 -60z"/>
<path d="M557 1171 c-108 -51 -147 -118 -147 -252 l0 -89 60 0 60 0 0 89 0 90
37 30 38 31 285 0 285 0 38 -31 37 -30 0 -210 0 -209 60 0 60 0 0 213 c0 172
-3 217 -15 233 -8 10 -15 26 -15 35 0 20 -68 77 -121 100 -37 17 -69 19 -333
18 -256 -1 -296 -3 -329 -18z"/>
</g>
</svg>