<?xml version="1.0" standalone="no"?>
<svg version="1.1" preserveAspectRatio="none" viewBox="0 0 24 24" class="ng-element" data-id="3463accb4cf38d89f34fe99f0b0cece6" style="fill: rgb(255, 255, 255); width: 38px; height: 38px; pointer-events: all;" xmlns="http://www.w3.org/2000/svg"><g><path xmlns:default="http://www.w3.org/2000/svg" id="id-card-o" d="M10.67,15.29c0-0.33-0.03-0.67-0.08-1c-0.05-0.32-0.14-0.64-0.26-0.94c-0.1-0.28-0.29-0.53-0.53-0.71  c-0.23-0.19-0.51-0.29-0.8-0.31C8.57,12.78,7.96,13.02,7.34,13c-0.61,0.01-1.2-0.23-1.62-0.67c-0.3-0.01-0.6,0.08-0.84,0.26  c-0.24,0.18-0.43,0.43-0.53,0.71c-0.12,0.3-0.21,0.62-0.26,0.94c-0.05,0.33-0.08,0.67-0.08,1c-0.02,0.36,0.1,0.72,0.33,1  c0.19,0.25,0.48,0.4,0.79,0.4h4.42c0.31,0,0.6-0.15,0.79-0.4c0.23-0.28,0.35-0.64,0.33-1l0,0V15.29z M8.75,9.29  c-0.78-0.78-2.05-0.78-2.83,0c0,0,0,0,0,0c-0.78,0.78-0.77,2.05,0.01,2.83c0.38,0.37,0.88,0.58,1.41,0.58  c1.1,0.02,2.01-0.86,2.03-1.97c0.01-0.56-0.22-1.1-0.62-1.48V9.29z M19.9,14.76c-0.06-0.06-0.15-0.09-0.24-0.09h-7.33  c-0.18-0.01-0.32,0.13-0.33,0.31c0,0.01,0,0.01,0,0.02v0.67c-0.01,0.18,0.13,0.32,0.31,0.33c0.01,0,0.01,0,0.02,0h7.33  c0.18,0.01,0.33-0.12,0.34-0.3c0-0.01,0-0.03,0-0.04V15C20,14.91,19.97,14.82,19.9,14.76z M15.9,12.09  C15.84,12.03,15.75,12,15.66,12h-3.33c-0.18-0.01-0.32,0.13-0.33,0.31c0,0.01,0,0.01,0,0.02V13c-0.01,0.18,0.13,0.32,0.31,0.33  c0.01,0,0.01,0,0.02,0h3.33c0.18,0.01,0.33-0.12,0.34-0.3c0-0.01,0-0.02,0-0.03v-0.67C16,12.24,15.97,12.15,15.9,12.09z M19.9,12.09  C19.84,12.03,19.75,12,19.66,12h-2c-0.18-0.01-0.32,0.13-0.33,0.31c0,0.01,0,0.01,0,0.02V13c-0.01,0.18,0.13,0.32,0.31,0.33  c0.01,0,0.01,0,0.02,0h2c0.18,0.01,0.33-0.12,0.34-0.3c0-0.01,0-0.02,0-0.03v-0.67C20,12.24,19.97,12.15,19.9,12.09z M19.9,9.42  c-0.06-0.06-0.15-0.09-0.24-0.09h-7.33C12.15,9.32,12.01,9.46,12,9.64c0,0.01,0,0.01,0,0.02v0.67c-0.01,0.18,0.13,0.32,0.31,0.33  c0.01,0,0.01,0,0.02,0h7.33c0.18,0.01,0.33-0.12,0.34-0.3c0-0.01,0-0.02,0-0.03V9.67c0-0.09-0.03-0.18-0.1-0.24V9.42z M21.33,18.32  c-0.01,0.18-0.15,0.32-0.33,0.33H3c-0.18-0.01-0.32-0.15-0.33-0.33V6.67h18.66v11.66l0,0V18.32z M22.17,4.49  C21.86,4.17,21.44,4,21,4H3C2.56,3.99,2.13,4.17,1.82,4.49C1.5,4.8,1.32,5.23,1.33,5.67v12.66c-0.01,0.44,0.17,0.87,0.49,1.18  C2.13,19.83,2.56,20.01,3,20h18c0.92,0,1.67-0.75,1.67-1.67l0,0V5.67C22.68,5.22,22.49,4.8,22.17,4.49z" style="fill: rgb(255, 255, 255);"/></g></svg>