<?xml version="1.0" standalone="no"?>
<!DOCTYPE svg PUBLIC "-//W3C//DTD SVG 20010904//EN"
 "http://www.w3.org/TR/2001/REC-SVG-20010904/DTD/svg10.dtd">
<svg version="1.0" xmlns="http://www.w3.org/2000/svg"
 width="30.000000pt" height="30.000000pt" viewBox="0 0 30.000000 30.000000"
 preserveAspectRatio="xMidYMid meet">
<metadata>
Created by potrace 1.10, written by Peter Selinger 2001-2011
</metadata>
<g transform="translate(0.000000,30.000000) scale(0.100000,-0.100000)"
fill="#981e32" stroke="none">
<path d="M102 293 c-35 -7 -89 -66 -96 -107 -22 -114 66 -202 180 -180 108 20
149 168 69 248 -40 41 -85 52 -153 39z m127 -42 c80 -57 56 -194 -40 -222 -53
-16 -110 1 -140 42 -86 122 58 267 180 180z"/>
<path d="M97 203 c-4 -3 3 -17 15 -30 l21 -23 -21 -23 c-29 -31 -16 -44 15
-15 l23 21 23 -21 c31 -29 44 -16 15 15 l-21 23 21 23 c29 31 16 44 -15 15
l-23 -21 -23 21 c-13 12 -27 19 -30 15z"/>
</g>
</svg>
