<?xml version="1.0" standalone="no"?>
<!DOCTYPE svg PUBLIC "-//W3C//DTD SVG 20010904//EN"
 "http://www.w3.org/TR/2001/REC-SVG-20010904/DTD/svg10.dtd">
<svg version="1.0" xmlns="http://www.w3.org/2000/svg"
 width="40.000000pt" height="40.000000pt" viewBox="0 0 40.000000 40.000000"
 preserveAspectRatio="xMidYMid meet">
<metadata>
Created by potrace 1.10, written by Peter Selinger 2001-2011
</metadata>
<g transform="translate(0.000000,40.000000) scale(0.050000,-0.050000)"
fill="#75787b" stroke="none">
<path d="M320 752 c0 -59 -75 -85 -119 -42 -45 46 -155 -62 -112 -109 43 -48
18 -121 -41 -121 -43 0 -48 -9 -48 -80 0 -71 5 -80 48 -80 59 0 85 -75 42
-119 -46 -45 62 -155 109 -112 48 43 121 18 121 -41 0 -43 9 -48 80 -48 71 0
80 5 80 48 0 59 75 85 119 42 45 -46 155 62 112 109 -43 48 -18 121 41 121 43
0 48 9 48 80 0 71 -5 80 -48 80 -59 0 -85 75 -42 119 46 45 -62 155 -109 112
-48 -43 -121 -18 -121 41 0 43 -9 48 -80 48 -71 0 -80 -5 -80 -48z m120 -32
c0 -57 117 -106 161 -68 45 39 90 -6 51 -51 -38 -44 11 -161 68 -161 27 0 40
-13 40 -40 0 -27 -13 -40 -40 -40 -57 0 -106 -117 -68 -161 39 -45 -6 -90 -51
-51 -44 38 -161 -11 -161 -68 0 -27 -13 -40 -40 -40 -27 0 -40 13 -40 40 0 57
-117 106 -161 68 -45 -39 -90 6 -51 51 38 44 -11 161 -68 161 -27 0 -40 13
-40 40 0 27 13 40 40 40 57 0 106 117 68 161 -39 45 6 90 51 51 44 -38 161 11
161 68 0 27 13 40 40 40 27 0 40 -13 40 -40z"/>
<path d="M303 494 c-74 -80 -30 -234 67 -234 43 0 37 19 -20 72 -60 56 -62 76
-10 128 52 52 72 50 128 -10 53 -57 72 -63 72 -20 0 100 -162 143 -237 64z"/>
</g>
</svg>
