<?xml version="1.0" standalone="no"?>
<svg version="1.1" preserveAspectRatio="none" viewBox="-0.5130000000000017 0 57 57" class="ng-element" data-id="6dde551bec95d944589487bc14685620" style="fill: rgb(0, 0, 0); width: 24px; height: 24px;" xmlns="http://www.w3.org/2000/svg"><g>
	<g>
		<path d="M56.5,22.1L55.9,20c-0.6-2.3-2.7-4-5.1-4c-0.5,0-0.9,0.1-1.4,0.2l-2.7,0.7c-0.7-1.2-1.5-2.2-2.5-3.2l1.1-1.9    c0.7-1.2,0.9-2.7,0.5-4.1c-0.4-1.4-1.2-2.5-2.5-3.3l-1.9-1.1c-0.8-0.5-1.7-0.7-2.7-0.7c-1.9,0-3.7,1-4.6,2.7l-1.1,1.9    c-1.3-0.3-2.7-0.5-4-0.5L28.4,4c-0.6-2.3-2.7-4-5.1-4c-0.5,0-0.9,0.1-1.4,0.2l-2.1,0.6c-1.4,0.4-2.5,1.3-3.2,2.5    c-0.7,1.2-0.9,2.7-0.5,4.1l0.7,2.8c-1.1,0.7-2.1,1.5-3,2.4l-1.8-1c-0.8-0.5-1.7-0.7-2.7-0.7c-1.9,0-3.7,1-4.6,2.7l-1.1,1.9    C2.8,16.5,2.7,18,3,19.3c0.4,1.4,1.2,2.5,2.5,3.3l1.8,1.1c-0.3,1.3-0.5,2.6-0.5,3.9L4,28.3c-1.4,0.4-2.5,1.3-3.2,2.5    c-0.7,1.2-0.9,2.7-0.5,4.1L0.7,37c0.6,2.3,2.7,4,5.1,4c0.5,0,0.9-0.1,1.4-0.2l2.9-0.8c0.7,1.1,1.5,2.1,2.4,3.1l-1,1.8    c-0.7,1.2-0.9,2.7-0.5,4.1c0.4,1.4,1.2,2.5,2.5,3.3l1.9,1.1c0.8,0.5,1.7,0.7,2.7,0.7c1.9,0,3.7-1,4.6-2.7l1-1.8    c1.3,0.3,2.5,0.5,3.8,0.5l0.8,2.9c0.6,2.3,2.7,4,5.1,4c0.5,0,0.9-0.1,1.4-0.2l2.1-0.6c2.8-0.8,4.5-3.7,3.8-6.6l-0.8-2.9    c1.1-0.7,2.1-1.5,3.1-2.4l1.8,1.1c0.8,0.5,1.7,0.7,2.7,0.7c1.9,0,3.7-1,4.6-2.7l1.1-1.9c0.7-1.2,0.9-2.7,0.5-4.1    c-0.4-1.4-1.2-2.5-2.5-3.3l-1.8-1c0.3-1.3,0.5-2.5,0.5-3.8l2.8-0.7c1.4-0.4,2.5-1.3,3.2-2.5C56.6,24.9,56.8,23.5,56.5,22.1z     M54.2,25.2c-0.4,0.8-1.2,1.3-2,1.6L48,27.9l0,0.8c0,1.6-0.2,3.2-0.7,4.8l-0.2,0.7l3.1,1.8c0.8,0.4,1.3,1.2,1.6,2    c0.2,0.9,0.1,1.8-0.3,2.5l-1.1,1.9c-0.6,1-1.7,1.7-2.9,1.7c-0.6,0-1.2-0.2-1.7-0.5l-3.1-1.8l-0.5,0.5c-1.2,1.2-2.5,2.2-3.9,3    l-0.7,0.4l1.2,4.4c0.5,1.8-0.6,3.6-2.4,4.1l-2.1,0.6C34,55,33.7,55,33.4,55c-1.5,0-2.8-1-3.2-2.5L29,48.1l-0.8,0    c-1.6,0-3.2-0.2-4.8-0.7l-0.7-0.2l-1.8,3.1c-0.6,1-1.7,1.7-2.9,1.7c-0.6,0-1.2-0.2-1.7-0.4l-1.9-1.1c-0.8-0.5-1.3-1.2-1.6-2    c-0.2-0.9-0.1-1.8,0.3-2.5l1.8-3.1l-0.5-0.5c-1.2-1.2-2.2-2.5-3-3.9l-0.4-0.7l-4.4,1.2C6.5,39,6.2,39,5.9,39c-1.5,0-2.8-1-3.2-2.5    l-0.6-2.1c-0.2-0.9-0.1-1.8,0.3-2.5c0.4-0.8,1.2-1.3,2-1.6l4.3-1.2l0-0.8c0-1.6,0.2-3.3,0.6-4.9l0.2-0.7l-3.1-1.8    c-0.8-0.5-1.3-1.2-1.6-2c-0.2-0.9-0.1-1.8,0.3-2.5l1.1-1.9c0.6-1,1.7-1.7,2.9-1.7c0.6,0,1.2,0.2,1.7,0.5L14,15l0.5-0.5    c1.2-1.2,2.5-2.2,3.8-3L19,11l-1.1-4.2c-0.2-0.9-0.1-1.8,0.3-2.5c0.4-0.8,1.2-1.3,2-1.6l2.1-0.6c1.8-0.5,3.6,0.6,4.1,2.4l0.9,3.4    l0.3,0.7h0.8c1.7,0,3.3,0.2,5,0.7l0.7,0.2l1.8-3.2c0.6-1,1.7-1.7,2.9-1.7c0.6,0,1.2,0.2,1.7,0.5l1.9,1.1c0.8,0.4,1.3,1.2,1.6,2    c0.2,0.9,0.1,1.8-0.3,2.5L41.8,14l0.5,0.5c1.2,1.2,2.2,2.6,3.1,4.1l0.4,0.7l4.1-1.1c1.8-0.5,3.6,0.6,4.1,2.4l0.6,2.1    C54.8,23.5,54.7,24.4,54.2,25.2z M28.3,16.9c-6.3,0-11.5,5.2-11.5,11.6S22,40.1,28.3,40.1s11.5-5.2,11.5-11.6S34.7,16.9,28.3,16.9    z M28.3,38.1c-5.3,0-9.5-4.3-9.5-9.6c0-5.3,4.3-9.6,9.5-9.6s9.5,4.3,9.5,9.6C37.8,33.8,33.6,38.1,28.3,38.1z" style="fill: rgb(0, 0, 0);"/>
	</g>
</g><g/></svg>