<?xml version="1.0" standalone="no"?>
<svg version="1.1" preserveAspectRatio="none" viewBox="-0.5040000000000013 0 42 42" class="ng-element" data-id="2b7eaefd4cc4c73992cb0b181003340f" style="fill: rgb(153, 139, 102); width: 38px; height: 38px; pointer-events: all;" xmlns="http://www.w3.org/2000/svg"><path d="M38.8,3.3L38.8,3.3c-4.3-4.3-11.2-4.3-15.5-0.1L0.1,26.3l0.2,0.1C0.1,26.6,0,26.8,0,27.1V41C0,41.6,0.3,42,0.8,42h13.9  c0.3,0,0.6-0.1,0.7-0.3l0.1,0.1l23.2-23.1C43,14.4,43,7.5,38.8,3.3z M3.9,38C3.3,37.5,3,37.3,2,37.5v-8.6l4.9,0.2L7,33.8L7,34.9  l0.1,0l0,0.1l1.1,0l4.8,0.1l0.2,4.9H4.3C4.5,39,4.4,38.5,3.9,38z M28.9,17.3L13,33.1L9,33l-0.1-4.2L24.6,13L28.9,17.3z M15.5,38.9  C15.5,39,15.5,39,15.5,38.9c-0.2,0.2-0.4,0.4-0.5,0.5l-0.2-5.2l0-0.2l15.4-15.4l2.8,2.8L15.5,38.9L15.5,38.9  C15.6,38.9,15.6,38.9,15.5,38.9z M21.8,7.4L23.2,6l12.7,12.6l-1.4,1.4L21.8,7.4z M2.9,26.3C2.9,26.3,2.9,26.3,2.9,26.3L20.4,8.8  l2.8,2.8L7.7,27.1h0l-5.4-0.2C2.5,26.7,2.7,26.5,2.9,26.3z M37.4,17.2L37.4,17.2L24.6,4.6l0.1-0.1c3.5-3.4,9.1-3.4,12.6,0l0.1,0.1  C40.8,8.1,40.8,13.7,37.4,17.2z" style="fill: rgb(153, 139, 102);"/><g/></svg>