<?xml version="1.0" encoding="utf-8"?>
<!-- Generator: Adobe Illustrator 22.1.0, SVG Export Plug-In . SVG Version: 6.00 Build 0)  -->
<svg version="1.1" id="Layer_1" xmlns="http://www.w3.org/2000/svg" xmlns:xlink="http://www.w3.org/1999/xlink" x="0px" y="0px"
	 viewBox="0 0 156 91" style="enable-background:new 0 0 156 91;" xml:space="preserve">
<style type="text/css">
	.st0{fill-rule:evenodd;clip-rule:evenodd;fill:#FFFFFF;}
	.st1{fill-rule:evenodd;clip-rule:evenodd;fill:#134094;}
	.st2{fill-rule:evenodd;clip-rule:evenodd;fill:#FFED00;}
	.st3{fill-rule:evenodd;clip-rule:evenodd;fill:#0076BE;}
	.st4{fill-rule:evenodd;clip-rule:evenodd;}
</style>
<g>
	<rect y="0.5" class="st0" width="155.9" height="90.3"/>
	<polygon points="24.3,68.8 24.3,63.2 28.4,63.2 28.4,63.8 25.1,63.8 25.1,65.6 28.2,65.6 28.2,66.2 25.1,66.2 25.1,68.2 28.5,68.2 
		28.5,68.8 	"/>
	<path d="M32.2,68.8v-0.6c-0.3,0.5-0.8,0.7-1.3,0.7c-0.2,0-0.5,0-0.7-0.1c-0.2-0.1-0.4-0.2-0.5-0.3c-0.1-0.1-0.2-0.3-0.2-0.5
		c0-0.1,0-0.4,0-0.6v-2.5h0.7V67c0,0.4,0,0.6,0,0.7c0,0.2,0.1,0.3,0.3,0.4c0.1,0.1,0.3,0.2,0.5,0.2c0.2,0,0.4-0.1,0.6-0.2
		c0.2-0.1,0.3-0.3,0.4-0.4c0.1-0.2,0.1-0.5,0.1-0.8v-2.2h0.7v4.1H32.2z"/>
	<path d="M33.9,68.8v-4.1h0.6v0.6c0.2-0.3,0.3-0.5,0.4-0.6c0.1-0.1,0.3-0.1,0.4-0.1c0.2,0,0.5,0.1,0.7,0.2l-0.2,0.6
		c-0.2-0.1-0.3-0.2-0.5-0.2c-0.2,0-0.3,0-0.4,0.1c-0.1,0.1-0.2,0.2-0.3,0.4c-0.1,0.2-0.1,0.5-0.1,0.8v2.1H33.9z"/>
	<path d="M36.2,66.8c0-0.8,0.2-1.3,0.6-1.7c0.4-0.3,0.8-0.5,1.3-0.5c0.6,0,1,0.2,1.4,0.6c0.4,0.4,0.5,0.9,0.5,1.5
		c0,0.5-0.1,0.9-0.2,1.2c-0.2,0.3-0.4,0.5-0.7,0.7c-0.3,0.2-0.6,0.3-1,0.3c-0.6,0-1-0.2-1.4-0.6C36.4,68,36.2,67.5,36.2,66.8
		L36.2,66.8z M37,66.8c0,0.5,0.1,0.9,0.3,1.2c0.2,0.3,0.5,0.4,0.9,0.4c0.3,0,0.6-0.1,0.9-0.4c0.2-0.3,0.3-0.7,0.3-1.2
		c0-0.5-0.1-0.9-0.3-1.2c-0.2-0.3-0.5-0.4-0.9-0.4c-0.3,0-0.6,0.1-0.9,0.4C37.1,65.9,37,66.3,37,66.8z"/>
	<path d="M40.6,66.8c0-0.8,0.2-1.3,0.6-1.7c0.4-0.3,0.8-0.5,1.3-0.5c0.6,0,1,0.2,1.4,0.6c0.4,0.4,0.5,0.9,0.5,1.5
		c0,0.5-0.1,0.9-0.2,1.2c-0.2,0.3-0.4,0.5-0.7,0.7c-0.3,0.2-0.6,0.3-1,0.3c-0.6,0-1-0.2-1.4-0.6C40.8,68,40.6,67.5,40.6,66.8
		L40.6,66.8z M41.4,66.8c0,0.5,0.1,0.9,0.3,1.2c0.2,0.3,0.5,0.4,0.9,0.4c0.3,0,0.6-0.1,0.9-0.4c0.2-0.3,0.3-0.7,0.3-1.2
		c0-0.5-0.1-0.9-0.3-1.2c-0.2-0.3-0.5-0.4-0.9-0.4c-0.3,0-0.6,0.1-0.9,0.4C41.5,65.9,41.4,66.3,41.4,66.8z"/>
	<path d="M45.3,70.4v-5.7h0.6v0.5c0.1-0.2,0.3-0.4,0.5-0.5c0.2-0.1,0.4-0.2,0.7-0.2c0.4,0,0.7,0.1,0.9,0.3c0.3,0.2,0.5,0.4,0.6,0.8
		c0.1,0.3,0.2,0.7,0.2,1.1c0,0.4-0.1,0.8-0.2,1.1c-0.2,0.3-0.4,0.6-0.7,0.8c-0.3,0.2-0.6,0.3-0.9,0.3c-0.2,0-0.4,0-0.6-0.1
		c-0.2-0.1-0.3-0.2-0.5-0.4v2H45.3L45.3,70.4z M45.9,66.8c0,0.5,0.1,0.9,0.3,1.2c0.2,0.3,0.5,0.4,0.8,0.4c0.3,0,0.6-0.1,0.8-0.4
		c0.2-0.3,0.3-0.7,0.3-1.2c0-0.5-0.1-0.9-0.3-1.2c-0.2-0.3-0.5-0.4-0.8-0.4c-0.3,0-0.6,0.1-0.8,0.4C46,65.9,45.9,66.3,45.9,66.8z"/>
	<path d="M52.4,68.3c-0.3,0.2-0.5,0.4-0.7,0.5c-0.2,0.1-0.5,0.1-0.8,0.1c-0.5,0-0.8-0.1-1-0.3c-0.2-0.2-0.4-0.5-0.4-0.8
		c0-0.2,0-0.4,0.1-0.6c0.1-0.2,0.2-0.3,0.4-0.4c0.1-0.1,0.3-0.2,0.5-0.2c0.1,0,0.3-0.1,0.6-0.1c0.6-0.1,1-0.1,1.2-0.2
		c0-0.1,0-0.2,0-0.2c0-0.3-0.1-0.5-0.2-0.6c-0.2-0.2-0.4-0.2-0.8-0.2c-0.3,0-0.6,0.1-0.7,0.2c-0.2,0.1-0.3,0.3-0.3,0.6l-0.7-0.1
		c0.1-0.3,0.2-0.5,0.3-0.7c0.1-0.2,0.3-0.3,0.6-0.4c0.3-0.1,0.6-0.1,0.9-0.1c0.4,0,0.6,0,0.9,0.1c0.2,0.1,0.4,0.2,0.5,0.3
		c0.1,0.1,0.2,0.3,0.2,0.5c0,0.1,0,0.3,0,0.6v0.9c0,0.6,0,1.1,0,1.2c0,0.2,0.1,0.3,0.2,0.5h-0.7C52.4,68.7,52.4,68.5,52.4,68.3
		L52.4,68.3z M52.3,66.8c-0.3,0.1-0.6,0.2-1.1,0.3c-0.3,0-0.5,0.1-0.6,0.1c-0.1,0.1-0.2,0.1-0.3,0.2c-0.1,0.1-0.1,0.2-0.1,0.3
		c0,0.2,0.1,0.3,0.2,0.5c0.1,0.1,0.3,0.2,0.6,0.2c0.3,0,0.5-0.1,0.7-0.2c0.2-0.1,0.4-0.3,0.5-0.5c0.1-0.2,0.1-0.4,0.1-0.7V66.8z"/>
	<polygon points="56.3,68.8 56.3,63.2 57.1,63.2 57.1,68.2 59.9,68.2 59.9,68.8 	"/>
	<path d="M60.7,64v-0.8h0.7V64H60.7L60.7,64z M60.7,68.8v-4.1h0.7v4.1H60.7z"/>
	<path d="M62.4,64v-0.8h0.7V64H62.4L62.4,64z M62.4,68.8v-4.1h0.7v4.1H62.4z"/>
	<path d="M65.7,68.2l0.1,0.6c-0.2,0-0.4,0.1-0.5,0.1c-0.3,0-0.4,0-0.6-0.1c-0.1-0.1-0.2-0.2-0.3-0.3c-0.1-0.1-0.1-0.4-0.1-0.8v-2.4
		h-0.5v-0.5h0.5v-1l0.7-0.4v1.4h0.7v0.5H65v2.4c0,0.2,0,0.3,0,0.4c0,0.1,0.1,0.1,0.1,0.1c0.1,0,0.1,0,0.2,0
		C65.5,68.2,65.6,68.2,65.7,68.2z"/>
	<polygon points="30.5,76.9 30.5,71.2 34.5,71.2 34.5,71.9 31.2,71.9 31.2,73.6 34.3,73.6 34.3,74.3 31.2,74.3 31.2,76.2 34.7,76.2 
		34.7,76.9 	"/>
	<path d="M38.3,76.9v-0.6C38,76.8,37.6,77,37,77c-0.2,0-0.5,0-0.7-0.1c-0.2-0.1-0.4-0.2-0.5-0.3c-0.1-0.1-0.2-0.3-0.2-0.5
		c0-0.1,0-0.4,0-0.6v-2.5h0.7v2.3c0,0.4,0,0.6,0,0.7c0,0.2,0.1,0.3,0.3,0.4c0.1,0.1,0.3,0.2,0.5,0.2c0.2,0,0.4-0.1,0.6-0.2
		c0.2-0.1,0.3-0.3,0.4-0.4c0.1-0.2,0.1-0.5,0.1-0.8v-2.2h0.7v4.1H38.3z"/>
	<path d="M40,76.9v-4.1h0.6v0.6c0.2-0.3,0.3-0.5,0.4-0.6c0.1-0.1,0.3-0.1,0.4-0.1c0.2,0,0.5,0.1,0.7,0.2L42,73.6
		c-0.2-0.1-0.3-0.2-0.5-0.2c-0.2,0-0.3,0-0.4,0.1c-0.1,0.1-0.2,0.2-0.3,0.4c-0.1,0.2-0.1,0.5-0.1,0.8v2.1H40z"/>
	<path d="M42.4,74.9c0-0.8,0.2-1.3,0.6-1.7c0.4-0.3,0.8-0.5,1.3-0.5c0.6,0,1,0.2,1.4,0.6c0.4,0.4,0.5,0.9,0.5,1.5
		c0,0.5-0.1,0.9-0.2,1.2c-0.2,0.3-0.4,0.5-0.7,0.7c-0.3,0.2-0.6,0.3-1,0.3c-0.6,0-1-0.2-1.4-0.6C42.6,76.1,42.4,75.5,42.4,74.9
		L42.4,74.9z M43.1,74.9c0,0.5,0.1,0.9,0.3,1.2c0.2,0.3,0.5,0.4,0.9,0.4c0.3,0,0.6-0.1,0.9-0.4c0.2-0.3,0.3-0.7,0.3-1.2
		c0-0.5-0.1-0.9-0.3-1.2c-0.2-0.3-0.5-0.4-0.9-0.4c-0.3,0-0.6,0.1-0.9,0.4C43.2,73.9,43.1,74.3,43.1,74.9z"/>
	<path d="M46.8,74.9c0-0.8,0.2-1.3,0.6-1.7c0.4-0.3,0.8-0.5,1.3-0.5c0.6,0,1,0.2,1.4,0.6c0.4,0.4,0.5,0.9,0.5,1.5
		c0,0.5-0.1,0.9-0.2,1.2c-0.2,0.3-0.4,0.5-0.7,0.7c-0.3,0.2-0.6,0.3-1,0.3c-0.6,0-1-0.2-1.4-0.6C47,76.1,46.8,75.5,46.8,74.9
		L46.8,74.9z M47.5,74.9c0,0.5,0.1,0.9,0.3,1.2c0.2,0.3,0.5,0.4,0.9,0.4c0.3,0,0.6-0.1,0.9-0.4c0.2-0.3,0.3-0.7,0.3-1.2
		c0-0.5-0.1-0.9-0.3-1.2c-0.2-0.3-0.5-0.4-0.9-0.4c-0.3,0-0.6,0.1-0.9,0.4C47.6,73.9,47.5,74.3,47.5,74.9z"/>
	<path d="M51.5,78.5v-5.7h0.6v0.5c0.1-0.2,0.3-0.4,0.5-0.5c0.2-0.1,0.4-0.2,0.7-0.2c0.4,0,0.7,0.1,0.9,0.3c0.3,0.2,0.5,0.4,0.6,0.8
		c0.1,0.3,0.2,0.7,0.2,1.1c0,0.4-0.1,0.8-0.2,1.1c-0.2,0.3-0.4,0.6-0.7,0.8c-0.3,0.2-0.6,0.3-0.9,0.3c-0.2,0-0.4,0-0.6-0.1
		c-0.2-0.1-0.3-0.2-0.5-0.4v2H51.5L51.5,78.5z M52.1,74.9c0,0.5,0.1,0.9,0.3,1.2c0.2,0.3,0.5,0.4,0.8,0.4c0.3,0,0.6-0.1,0.8-0.4
		c0.2-0.3,0.3-0.7,0.3-1.2c0-0.5-0.1-0.9-0.3-1.2c-0.2-0.3-0.5-0.4-0.8-0.4c-0.3,0-0.6,0.1-0.8,0.4C52.2,73.9,52.1,74.4,52.1,74.9z"
		/>
	<path d="M58.5,76.4c-0.3,0.2-0.5,0.4-0.7,0.5C57.5,77,57.3,77,57,77c-0.5,0-0.8-0.1-1-0.3c-0.2-0.2-0.4-0.5-0.4-0.8
		c0-0.2,0-0.4,0.1-0.6c0.1-0.2,0.2-0.3,0.4-0.4c0.1-0.1,0.3-0.2,0.5-0.2c0.1,0,0.3-0.1,0.6-0.1c0.6-0.1,1-0.1,1.2-0.2
		c0-0.1,0-0.2,0-0.2c0-0.3-0.1-0.5-0.2-0.6c-0.2-0.2-0.4-0.2-0.8-0.2c-0.3,0-0.6,0.1-0.7,0.2c-0.2,0.1-0.3,0.3-0.3,0.6L55.7,74
		c0.1-0.3,0.2-0.5,0.3-0.7c0.1-0.2,0.3-0.3,0.6-0.4c0.3-0.1,0.6-0.1,0.9-0.1c0.4,0,0.6,0,0.9,0.1c0.2,0.1,0.4,0.2,0.5,0.3
		c0.1,0.1,0.2,0.3,0.2,0.5c0,0.1,0,0.3,0,0.6v0.9c0,0.6,0,1.1,0,1.2c0,0.2,0.1,0.3,0.2,0.5h-0.7C58.6,76.8,58.5,76.6,58.5,76.4
		L58.5,76.4z M58.5,74.8c-0.3,0.1-0.6,0.2-1.1,0.3c-0.3,0-0.5,0.1-0.6,0.1c-0.1,0.1-0.2,0.1-0.3,0.2c-0.1,0.1-0.1,0.2-0.1,0.3
		c0,0.2,0.1,0.3,0.2,0.5c0.1,0.1,0.3,0.2,0.6,0.2c0.3,0,0.5-0.1,0.7-0.2c0.2-0.1,0.4-0.3,0.5-0.5c0.1-0.2,0.1-0.4,0.1-0.7V74.8z"/>
	<path d="M5.2,85v-5.7h2.5c0.5,0,0.9,0.1,1.2,0.2c0.3,0.1,0.5,0.3,0.6,0.5c0.2,0.3,0.2,0.5,0.2,0.9c0,0.4-0.1,0.7-0.4,1
		c-0.3,0.3-0.7,0.5-1.2,0.5c0.2,0.1,0.3,0.2,0.5,0.3c0.2,0.2,0.4,0.5,0.6,0.8l1,1.5H9.2l-0.7-1.2c-0.2-0.3-0.4-0.6-0.5-0.8
		c-0.1-0.2-0.3-0.3-0.4-0.4c-0.1-0.1-0.2-0.1-0.3-0.2c-0.1,0-0.2,0-0.4,0H5.9V85H5.2L5.2,85z M5.9,81.8h1.6c0.3,0,0.6,0,0.8-0.1
		c0.2-0.1,0.3-0.2,0.4-0.3c0.1-0.2,0.2-0.3,0.2-0.5c0-0.3-0.1-0.5-0.3-0.7c-0.2-0.2-0.5-0.3-0.9-0.3H5.9V81.8z"/>
	<path d="M13.6,83.7l0.7,0.1c-0.1,0.4-0.3,0.7-0.6,1c-0.3,0.2-0.7,0.3-1.2,0.3c-0.6,0-1.1-0.2-1.4-0.6c-0.4-0.4-0.5-0.9-0.5-1.6
		c0-0.7,0.2-1.2,0.5-1.6c0.4-0.4,0.8-0.6,1.4-0.6c0.5,0,1,0.2,1.3,0.6c0.3,0.4,0.5,0.9,0.5,1.6c0,0,0,0.1,0,0.2h-3.1
		c0,0.5,0.2,0.8,0.4,1c0.2,0.2,0.5,0.4,0.9,0.4c0.3,0,0.5-0.1,0.7-0.2C13.3,84.2,13.5,84,13.6,83.7L13.6,83.7z M11.3,82.5h2.3
		c0-0.3-0.1-0.6-0.3-0.8c-0.2-0.3-0.5-0.4-0.9-0.4c-0.3,0-0.6,0.1-0.8,0.3C11.5,81.9,11.3,82.2,11.3,82.5z"/>
	<path d="M15.1,85.3l0.7,0.1c0,0.2,0.1,0.4,0.2,0.5c0.2,0.1,0.4,0.2,0.7,0.2c0.3,0,0.6-0.1,0.7-0.2c0.2-0.1,0.3-0.3,0.4-0.5
		c0-0.1,0.1-0.4,0-0.9c-0.3,0.4-0.7,0.5-1.1,0.5c-0.6,0-1-0.2-1.3-0.6c-0.3-0.4-0.5-0.9-0.5-1.5c0-0.4,0.1-0.8,0.2-1.1
		c0.1-0.3,0.3-0.6,0.6-0.8c0.3-0.2,0.6-0.3,0.9-0.3c0.5,0,0.9,0.2,1.2,0.6v-0.5h0.6v3.5c0,0.6-0.1,1.1-0.2,1.4
		c-0.1,0.3-0.3,0.5-0.6,0.6c-0.3,0.2-0.6,0.2-1,0.2c-0.5,0-0.9-0.1-1.2-0.3C15.2,86.1,15,85.8,15.1,85.3L15.1,85.3z M15.6,82.9
		c0,0.5,0.1,0.9,0.3,1.2c0.2,0.2,0.5,0.4,0.8,0.4c0.3,0,0.6-0.1,0.8-0.4c0.2-0.2,0.3-0.6,0.3-1.2c0-0.5-0.1-0.9-0.3-1.1
		c-0.2-0.3-0.5-0.4-0.8-0.4c-0.3,0-0.6,0.1-0.8,0.4C15.7,82,15.6,82.4,15.6,82.9z"/>
	<path d="M19.6,80.1v-0.8h0.7v0.8H19.6L19.6,80.1z M19.6,85v-4.1h0.7V85H19.6z"/>
	<path d="M21.1,82.9c0-0.8,0.2-1.3,0.6-1.7c0.4-0.3,0.8-0.5,1.3-0.5c0.6,0,1,0.2,1.4,0.6c0.4,0.4,0.5,0.9,0.5,1.5
		c0,0.5-0.1,0.9-0.2,1.2c-0.2,0.3-0.4,0.5-0.7,0.7c-0.3,0.2-0.6,0.3-1,0.3c-0.6,0-1-0.2-1.4-0.6C21.3,84.1,21.1,83.6,21.1,82.9
		L21.1,82.9z M21.8,82.9c0,0.5,0.1,0.9,0.3,1.2c0.2,0.3,0.5,0.4,0.9,0.4c0.3,0,0.6-0.1,0.9-0.4c0.2-0.3,0.3-0.7,0.3-1.2
		c0-0.5-0.1-0.9-0.3-1.2c-0.2-0.3-0.5-0.4-0.9-0.4c-0.3,0-0.6,0.1-0.9,0.4C21.9,82,21.8,82.4,21.8,82.9z"/>
	<path d="M25.7,85v-4.1h0.6v0.6c0.3-0.5,0.7-0.7,1.3-0.7c0.2,0,0.5,0,0.7,0.1c0.2,0.1,0.4,0.2,0.5,0.4c0.1,0.1,0.2,0.3,0.2,0.5
		c0,0.1,0,0.4,0,0.7V85h-0.7v-2.5c0-0.3,0-0.5-0.1-0.6c-0.1-0.1-0.2-0.3-0.3-0.3c-0.1-0.1-0.3-0.1-0.5-0.1c-0.3,0-0.6,0.1-0.8,0.3
		c-0.2,0.2-0.3,0.5-0.3,1.1V85H25.7z"/>
	<path d="M32.8,84.5c-0.3,0.2-0.5,0.4-0.7,0.5c-0.2,0.1-0.5,0.1-0.8,0.1c-0.5,0-0.8-0.1-1-0.3c-0.2-0.2-0.4-0.5-0.4-0.8
		c0-0.2,0-0.4,0.1-0.6c0.1-0.2,0.2-0.3,0.4-0.4c0.1-0.1,0.3-0.2,0.5-0.2c0.1,0,0.3-0.1,0.6-0.1c0.6-0.1,1-0.1,1.2-0.2
		c0-0.1,0-0.2,0-0.2c0-0.3-0.1-0.5-0.2-0.6c-0.2-0.2-0.4-0.2-0.8-0.2c-0.3,0-0.6,0.1-0.7,0.2c-0.2,0.1-0.3,0.3-0.3,0.6L30,82
		c0.1-0.3,0.2-0.5,0.3-0.7c0.1-0.2,0.3-0.3,0.6-0.4c0.3-0.1,0.6-0.1,0.9-0.1c0.4,0,0.6,0,0.9,0.1c0.2,0.1,0.4,0.2,0.5,0.3
		c0.1,0.1,0.2,0.3,0.2,0.5c0,0.1,0,0.3,0,0.6v0.9c0,0.6,0,1.1,0,1.2c0,0.2,0.1,0.3,0.2,0.5h-0.7C32.9,84.8,32.8,84.7,32.8,84.5
		L32.8,84.5z M32.7,82.9c-0.3,0.1-0.6,0.2-1.1,0.3c-0.3,0-0.5,0.1-0.6,0.1c-0.1,0.1-0.2,0.1-0.3,0.2c-0.1,0.1-0.1,0.2-0.1,0.3
		c0,0.2,0.1,0.3,0.2,0.5c0.1,0.1,0.3,0.2,0.6,0.2c0.3,0,0.5-0.1,0.7-0.2c0.2-0.1,0.4-0.3,0.5-0.5c0.1-0.2,0.1-0.4,0.1-0.7V82.9z"/>
	<path d="M37.2,84.5c-0.3,0.2-0.5,0.4-0.7,0.5c-0.2,0.1-0.5,0.1-0.8,0.1c-0.5,0-0.8-0.1-1-0.3c-0.2-0.2-0.4-0.5-0.4-0.8
		c0-0.2,0-0.4,0.1-0.6c0.1-0.2,0.2-0.3,0.4-0.4c0.1-0.1,0.3-0.2,0.5-0.2c0.1,0,0.3-0.1,0.6-0.1c0.6-0.1,1-0.1,1.2-0.2
		c0-0.1,0-0.2,0-0.2c0-0.3-0.1-0.5-0.2-0.6c-0.2-0.2-0.4-0.2-0.8-0.2c-0.3,0-0.6,0.1-0.7,0.2c-0.2,0.1-0.3,0.3-0.3,0.6L34.4,82
		c0.1-0.3,0.2-0.5,0.3-0.7c0.1-0.2,0.3-0.3,0.6-0.4c0.3-0.1,0.6-0.1,0.9-0.1c0.4,0,0.6,0,0.9,0.1c0.2,0.1,0.4,0.2,0.5,0.3
		c0.1,0.1,0.2,0.3,0.2,0.5c0,0.1,0,0.3,0,0.6v0.9c0,0.6,0,1.1,0,1.2c0,0.2,0.1,0.3,0.2,0.5h-0.7C37.3,84.8,37.2,84.7,37.2,84.5
		L37.2,84.5z M37.1,82.9c-0.3,0.1-0.6,0.2-1.1,0.3c-0.3,0-0.5,0.1-0.6,0.1c-0.1,0.1-0.2,0.1-0.3,0.2c-0.1,0.1-0.1,0.2-0.1,0.3
		c0,0.2,0.1,0.3,0.2,0.5c0.1,0.1,0.3,0.2,0.6,0.2c0.3,0,0.5-0.1,0.7-0.2c0.2-0.1,0.4-0.3,0.5-0.5c0.1-0.2,0.1-0.4,0.1-0.7V82.9z"/>
	<rect x="38.9" y="79.3" width="0.7" height="5.7"/>
	<path d="M43.4,84.5c-0.3,0.2-0.5,0.4-0.7,0.5c-0.2,0.1-0.5,0.1-0.8,0.1c-0.5,0-0.8-0.1-1-0.3c-0.2-0.2-0.4-0.5-0.4-0.8
		c0-0.2,0-0.4,0.1-0.6c0.1-0.2,0.2-0.3,0.4-0.4c0.1-0.1,0.3-0.2,0.5-0.2c0.1,0,0.3-0.1,0.6-0.1c0.6-0.1,1-0.1,1.2-0.2
		c0-0.1,0-0.2,0-0.2c0-0.3-0.1-0.5-0.2-0.6c-0.2-0.2-0.4-0.2-0.8-0.2c-0.3,0-0.6,0.1-0.7,0.2c-0.2,0.1-0.3,0.3-0.3,0.6L40.6,82
		c0.1-0.3,0.2-0.5,0.3-0.7c0.1-0.2,0.3-0.3,0.6-0.4c0.3-0.1,0.6-0.1,0.9-0.1c0.4,0,0.6,0,0.9,0.1c0.2,0.1,0.4,0.2,0.5,0.3
		c0.1,0.1,0.2,0.3,0.2,0.5c0,0.1,0,0.3,0,0.6v0.9c0,0.6,0,1.1,0,1.2c0,0.2,0.1,0.3,0.2,0.5h-0.7C43.4,84.8,43.4,84.7,43.4,84.5
		L43.4,84.5z M43.3,82.9c-0.3,0.1-0.6,0.2-1.1,0.3c-0.3,0-0.5,0.1-0.6,0.1c-0.1,0.1-0.2,0.1-0.3,0.2c-0.1,0.1-0.1,0.2-0.1,0.3
		c0,0.2,0.1,0.3,0.2,0.5c0.1,0.1,0.3,0.2,0.6,0.2c0.3,0,0.5-0.1,0.7-0.2c0.2-0.1,0.4-0.3,0.5-0.5c0.1-0.2,0.1-0.4,0.1-0.7V82.9z"/>
	<path d="M45.1,85v-4.1h0.6v0.6c0.2-0.3,0.3-0.5,0.4-0.6c0.1-0.1,0.3-0.1,0.4-0.1c0.2,0,0.5,0.1,0.7,0.2l-0.2,0.6
		c-0.2-0.1-0.3-0.2-0.5-0.2c-0.2,0-0.3,0-0.4,0.1c-0.1,0.1-0.2,0.2-0.3,0.4c-0.1,0.2-0.1,0.5-0.1,0.8V85H45.1z"/>
	<path d="M50.5,83.7l0.7,0.1c-0.1,0.4-0.3,0.7-0.6,1c-0.3,0.2-0.7,0.3-1.2,0.3c-0.6,0-1.1-0.2-1.4-0.6c-0.4-0.4-0.5-0.9-0.5-1.6
		c0-0.7,0.2-1.2,0.5-1.6c0.4-0.4,0.8-0.6,1.4-0.6c0.5,0,1,0.2,1.3,0.6c0.3,0.4,0.5,0.9,0.5,1.6c0,0,0,0.1,0,0.2h-3.1
		c0,0.5,0.2,0.8,0.4,1c0.2,0.2,0.5,0.4,0.9,0.4c0.3,0,0.5-0.1,0.7-0.2C50.3,84.2,50.4,84,50.5,83.7L50.5,83.7z M48.2,82.5h2.3
		c0-0.3-0.1-0.6-0.3-0.8c-0.2-0.3-0.5-0.4-0.9-0.4c-0.3,0-0.6,0.1-0.8,0.3C48.4,81.9,48.3,82.2,48.2,82.5z"/>
	<path d="M52.1,85v-4.1h0.6v0.6c0.3-0.5,0.7-0.7,1.3-0.7c0.2,0,0.5,0,0.7,0.1c0.2,0.1,0.4,0.2,0.5,0.4c0.1,0.1,0.2,0.3,0.2,0.5
		c0,0.1,0,0.4,0,0.7V85h-0.7v-2.5c0-0.3,0-0.5-0.1-0.6c-0.1-0.1-0.2-0.3-0.3-0.3c-0.1-0.1-0.3-0.1-0.5-0.1c-0.3,0-0.6,0.1-0.8,0.3
		c-0.2,0.2-0.3,0.5-0.3,1.1V85H52.1z"/>
	<path d="M56.4,85.3l0.7,0.1c0,0.2,0.1,0.4,0.2,0.5c0.2,0.1,0.4,0.2,0.7,0.2c0.3,0,0.6-0.1,0.7-0.2c0.2-0.1,0.3-0.3,0.4-0.5
		c0-0.1,0.1-0.4,0-0.9C58.8,84.8,58.5,85,58,85c-0.6,0-1-0.2-1.3-0.6c-0.3-0.4-0.5-0.9-0.5-1.5c0-0.4,0.1-0.8,0.2-1.1
		c0.1-0.3,0.3-0.6,0.6-0.8c0.3-0.2,0.6-0.3,0.9-0.3c0.5,0,0.9,0.2,1.2,0.6v-0.5h0.6v3.5c0,0.6-0.1,1.1-0.2,1.4
		c-0.1,0.3-0.3,0.5-0.6,0.6c-0.3,0.2-0.6,0.2-1,0.2c-0.5,0-0.9-0.1-1.2-0.3C56.5,86.1,56.4,85.8,56.4,85.3L56.4,85.3z M57,82.9
		c0,0.5,0.1,0.9,0.3,1.2c0.2,0.2,0.5,0.4,0.8,0.4c0.3,0,0.6-0.1,0.8-0.4c0.2-0.2,0.3-0.6,0.3-1.2c0-0.5-0.1-0.9-0.3-1.1
		c-0.2-0.3-0.5-0.4-0.8-0.4c-0.3,0-0.6,0.1-0.8,0.4C57.1,82,57,82.4,57,82.9z"/>
	<path d="M63.6,85v-0.6c-0.3,0.5-0.8,0.7-1.3,0.7c-0.2,0-0.5,0-0.7-0.1c-0.2-0.1-0.4-0.2-0.5-0.3c-0.1-0.1-0.2-0.3-0.2-0.5
		c0-0.1,0-0.4,0-0.6v-2.5h0.7v2.3c0,0.4,0,0.6,0,0.7c0,0.2,0.1,0.3,0.3,0.4c0.1,0.1,0.3,0.2,0.5,0.2c0.2,0,0.4-0.1,0.6-0.2
		c0.2-0.1,0.3-0.3,0.4-0.4c0.1-0.2,0.1-0.5,0.1-0.8v-2.2h0.7V85H63.6z"/>
	<polygon points="67.6,85 67.6,79.3 71.4,79.3 71.4,80 68.4,80 68.4,81.7 71,81.7 71,82.4 68.4,82.4 68.4,85 	"/>
	<path d="M72.1,82.9c0-0.8,0.2-1.3,0.6-1.7c0.4-0.3,0.8-0.5,1.3-0.5c0.6,0,1,0.2,1.4,0.6c0.4,0.4,0.5,0.9,0.5,1.5
		c0,0.5-0.1,0.9-0.2,1.2c-0.2,0.3-0.4,0.5-0.7,0.7c-0.3,0.2-0.6,0.3-1,0.3c-0.6,0-1-0.2-1.4-0.6C72.2,84.1,72.1,83.6,72.1,82.9
		L72.1,82.9z M72.8,82.9c0,0.5,0.1,0.9,0.3,1.2c0.2,0.3,0.5,0.4,0.9,0.4c0.3,0,0.6-0.1,0.9-0.4c0.2-0.3,0.3-0.7,0.3-1.2
		c0-0.5-0.1-0.9-0.3-1.2c-0.2-0.3-0.5-0.4-0.9-0.4c-0.3,0-0.6,0.1-0.9,0.4C72.9,82,72.8,82.4,72.8,82.9z"/>
	<path d="M76.7,85v-4.1h0.6v0.6c0.3-0.5,0.7-0.7,1.3-0.7c0.2,0,0.5,0,0.7,0.1c0.2,0.1,0.4,0.2,0.5,0.4c0.1,0.1,0.2,0.3,0.2,0.5
		c0,0.1,0,0.4,0,0.7V85h-0.7v-2.5c0-0.3,0-0.5-0.1-0.6c-0.1-0.1-0.2-0.3-0.3-0.3c-0.1-0.1-0.3-0.1-0.5-0.1c-0.3,0-0.6,0.1-0.8,0.3
		c-0.2,0.2-0.3,0.5-0.3,1.1V85H76.7z"/>
	<path d="M83.8,85v-0.5c-0.3,0.4-0.6,0.6-1.1,0.6c-0.3,0-0.6-0.1-0.9-0.3c-0.3-0.2-0.5-0.4-0.6-0.8c-0.2-0.3-0.2-0.7-0.2-1.1
		c0-0.4,0.1-0.8,0.2-1.1c0.1-0.3,0.3-0.6,0.6-0.8c0.3-0.2,0.6-0.3,0.9-0.3c0.2,0,0.5,0.1,0.7,0.2c0.2,0.1,0.4,0.2,0.5,0.4v-2h0.7V85
		H83.8L83.8,85z M81.6,82.9c0,0.5,0.1,0.9,0.3,1.2c0.2,0.3,0.5,0.4,0.8,0.4c0.3,0,0.6-0.1,0.8-0.4c0.2-0.2,0.3-0.6,0.3-1.1
		c0-0.6-0.1-1-0.3-1.2c-0.2-0.3-0.5-0.4-0.8-0.4c-0.3,0-0.6,0.1-0.8,0.4C81.7,82,81.6,82.4,81.6,82.9z"/>
	<g>
		<rect x="5.7" y="6" class="st1" width="77.9" height="52.1"/>
		<g>
			<polygon class="st2" points="45.2,13.6 47.4,13.6 45.6,15 46.3,17.1 44.5,15.8 42.7,17.1 43.4,15 41.6,13.6 43.9,13.6 44.5,11.5 
							"/>
			<polygon class="st2" points="45.3,48.4 47.5,48.4 45.7,49.7 46.4,51.9 44.6,50.5 42.8,51.9 43.5,49.7 41.7,48.4 44,48.4 
				44.6,46.3 			"/>
			<polygon class="st2" points="53.9,46.1 56.1,46.1 54.3,47.4 55,49.6 53.2,48.2 51.4,49.6 52.1,47.4 50.3,46.1 52.6,46.1 
				53.2,43.9 			"/>
			<polygon class="st2" points="53.9,15.9 56.1,15.9 54.3,17.3 55,19.4 53.2,18.1 51.4,19.4 52.1,17.3 50.3,15.9 52.6,15.9 
				53.2,13.8 			"/>
			<polygon class="st2" points="60.3,22.3 62.5,22.3 60.7,23.6 61.4,25.8 59.6,24.5 57.8,25.8 58.5,23.6 56.7,22.3 58.9,22.3 
				59.6,20.2 			"/>
			<polygon class="st2" points="60.3,39.8 62.5,39.8 60.7,41.1 61.4,43.3 59.6,41.9 57.8,43.3 58.5,41.1 56.7,39.8 58.9,39.8 
				59.6,37.7 			"/>
			<polygon class="st2" points="62.7,30.9 64.9,30.9 63.1,32.2 63.8,34.4 62,33.1 60.2,34.4 60.9,32.2 59.1,30.9 61.3,30.9 62,28.8 
							"/>
			<polygon class="st2" points="36.4,15.9 38.7,15.9 36.9,17.3 37.6,19.4 35.8,18.1 34,19.4 34.7,17.3 32.9,15.9 35.1,15.9 
				35.8,13.8 			"/>
			<polygon class="st2" points="30.2,22.3 32.5,22.3 30.7,23.7 31.4,25.8 29.6,24.5 27.8,25.8 28.5,23.7 26.6,22.3 28.9,22.3 
				29.6,20.2 			"/>
			<polygon class="st2" points="27.9,30.9 30.2,30.9 28.4,32.3 29.1,34.4 27.3,33.1 25.5,34.4 26.2,32.3 24.3,30.9 26.6,30.9 
				27.3,28.8 			"/>
			<polygon class="st2" points="30.2,39.8 32.5,39.8 30.7,41.1 31.4,43.3 29.6,42 27.8,43.3 28.5,41.1 26.6,39.8 28.9,39.8 
				29.6,37.7 			"/>
			<polygon class="st2" points="36.5,46.1 38.8,46.1 37,47.4 37.7,49.6 35.9,48.3 34,49.6 34.8,47.4 32.9,46.1 35.2,46.1 35.9,44 
							"/>
		</g>
	</g>
	<g>
		<path class="st3" d="M127,16.4c6.1,0.6,11.7,2.6,16.5,5.6c0,0,0.1,0.1,0.3,0.2c-6.1-8.7-16-14.9-27.6-15.9
			c-10.1-0.9-19.7,2.2-27,8c5.6,1.1,10.5,3.9,14.2,7.8C110.2,17.8,118.4,15.6,127,16.4z"/>
		<path class="st0" d="M150.4,40.4C150.4,40.4,150.4,40.4,150.4,40.4C150.4,40.4,150.4,40.4,150.4,40.4
			C150.4,40.4,150.4,40.4,150.4,40.4z"/>
		<path class="st4" d="M150.4,40.8c0-0.1-0.1-0.6-0.1-0.7c-0.6-6.5-2.9-12.6-6.5-17.8c-0.2-0.1-0.3-0.2-0.3-0.2
			c-4.8-3-10.4-5-16.5-5.6c-8.6-0.8-16.8,1.4-23.5,5.6c4.2,4.4,6.9,10.1,7.4,16.4c0.1,1.6,0.1,3.2,0,4.8c-0.2,2.5-0.8,5-1.7,7.2
			c-1.6,4.1-4.2,7.7-7.4,10.6l0.1-0.1c12.5-7.2,27.9-10.3,43.2-8c-1.4,1.3-3.5,2.4-5.2,3.3c2.1-0.5,9.3-3.4,9.4-3.6c0,0,0,0,0,0h0
			C149.3,52.6,151,47.2,150.4,40.8z"/>
		<path class="st0" d="M149.8,39.9c-4.8-3.3-8.8-5.2-17.2-6c-6.4-0.6-12.6,0.5-18.1,2.8c0.1,1.5,0.2,3.1,0,4.7
			c-0.7,7.8-4.8,14.4-10.8,18.5c15.3-8.8,29.2-10,41-8.2c0.8,0.1,3.2,0.5,4.3,0.8C150.4,45.7,149.9,41.1,149.8,39.9z"/>
	</g>
	<polygon points="118.9,68.9 118.9,63.2 122.9,63.2 122.9,63.9 119.6,63.9 119.6,65.6 122.7,65.6 122.7,66.3 119.6,66.3 119.6,68.2 
		123.1,68.2 123.1,68.9 	"/>
	<path d="M126.8,67.5l0.7,0.1c-0.1,0.4-0.3,0.7-0.6,1c-0.3,0.2-0.7,0.3-1.2,0.3c-0.6,0-1.1-0.2-1.4-0.6c-0.4-0.4-0.5-0.9-0.5-1.6
		c0-0.7,0.2-1.2,0.5-1.6c0.4-0.4,0.8-0.6,1.4-0.6c0.5,0,1,0.2,1.3,0.6c0.3,0.4,0.5,0.9,0.5,1.6c0,0,0,0.1,0,0.2h-3.1
		c0,0.5,0.2,0.8,0.4,1c0.2,0.2,0.5,0.4,0.9,0.4c0.3,0,0.5-0.1,0.7-0.2C126.6,68,126.7,67.8,126.8,67.5L126.8,67.5z M124.5,66.4h2.3
		c0-0.3-0.1-0.6-0.3-0.8c-0.2-0.3-0.5-0.4-0.9-0.4c-0.3,0-0.6,0.1-0.8,0.3C124.7,65.8,124.6,66.1,124.5,66.4z"/>
	<path d="M128.1,67.6l0.7-0.1c0,0.3,0.1,0.5,0.3,0.6c0.2,0.1,0.4,0.2,0.7,0.2c0.3,0,0.6-0.1,0.7-0.2c0.2-0.1,0.2-0.3,0.2-0.5
		c0-0.2-0.1-0.3-0.2-0.4c-0.1-0.1-0.3-0.1-0.7-0.2c-0.5-0.1-0.9-0.2-1.1-0.3c-0.2-0.1-0.3-0.2-0.4-0.4c-0.1-0.2-0.2-0.3-0.2-0.5
		c0-0.2,0-0.4,0.1-0.5c0.1-0.2,0.2-0.3,0.3-0.4c0.1-0.1,0.3-0.1,0.4-0.2c0.2-0.1,0.4-0.1,0.6-0.1c0.3,0,0.6,0,0.8,0.1
		c0.2,0.1,0.4,0.2,0.5,0.4c0.1,0.2,0.2,0.4,0.2,0.6l-0.7,0.1c0-0.2-0.1-0.4-0.3-0.5c-0.1-0.1-0.4-0.2-0.6-0.2
		c-0.3,0-0.5,0.1-0.7,0.2c-0.1,0.1-0.2,0.2-0.2,0.4c0,0.1,0,0.2,0.1,0.2c0.1,0.1,0.1,0.1,0.3,0.2c0.1,0,0.3,0.1,0.6,0.2
		c0.5,0.1,0.8,0.2,1,0.3c0.2,0.1,0.3,0.2,0.5,0.4c0.1,0.2,0.2,0.4,0.2,0.6c0,0.2-0.1,0.4-0.2,0.7c-0.1,0.2-0.3,0.4-0.6,0.5
		c-0.3,0.1-0.5,0.2-0.9,0.2c-0.5,0-0.9-0.1-1.2-0.3C128.4,68.4,128.2,68.1,128.1,67.6z"/>
	<path d="M133.9,68.2l0.1,0.6c-0.2,0-0.4,0.1-0.5,0.1c-0.3,0-0.4,0-0.6-0.1c-0.1-0.1-0.2-0.2-0.3-0.3c-0.1-0.1-0.1-0.4-0.1-0.8v-2.4
		H132v-0.5h0.5v-1l0.7-0.4v1.4h0.7v0.5h-0.7v2.4c0,0.2,0,0.3,0,0.4c0,0.1,0.1,0.1,0.1,0.1c0.1,0,0.1,0,0.2,0
		C133.7,68.3,133.8,68.3,133.9,68.2z"/>
	<path d="M134.6,64v-0.8h0.7V64H134.6L134.6,64z M134.6,68.9v-4.1h0.7v4.1H134.6z"/>
	<path d="M104,76.3l0.1,0.6c-0.2,0-0.4,0.1-0.5,0.1c-0.3,0-0.4,0-0.6-0.1c-0.1-0.1-0.2-0.2-0.3-0.3c-0.1-0.1-0.1-0.4-0.1-0.8v-2.4
		h-0.5v-0.5h0.5v-1l0.7-0.4v1.4h0.7v0.5h-0.7v2.4c0,0.2,0,0.3,0,0.4c0,0.1,0.1,0.1,0.1,0.1c0.1,0,0.1,0,0.2,0
		C103.8,76.3,103.9,76.3,104,76.3z"/>
	<path d="M107.4,76.9v-0.6c-0.3,0.5-0.8,0.7-1.3,0.7c-0.2,0-0.5,0-0.7-0.1c-0.2-0.1-0.4-0.2-0.5-0.3c-0.1-0.1-0.2-0.3-0.2-0.5
		c0-0.1,0-0.4,0-0.6v-2.5h0.7v2.3c0,0.4,0,0.6,0,0.7c0,0.2,0.1,0.3,0.3,0.4c0.1,0.1,0.3,0.2,0.5,0.2c0.2,0,0.4-0.1,0.6-0.2
		c0.2-0.1,0.3-0.3,0.4-0.4c0.1-0.2,0.1-0.5,0.1-0.8v-2.2h0.7v4.1H107.4z"/>
	<rect x="109.1" y="71.2" width="0.7" height="5.7"/>
	<path d="M113.6,75.6l0.7,0.1c-0.1,0.4-0.3,0.7-0.6,1c-0.3,0.2-0.7,0.3-1.2,0.3c-0.6,0-1.1-0.2-1.4-0.6c-0.4-0.4-0.5-0.9-0.5-1.6
		c0-0.7,0.2-1.2,0.5-1.6c0.4-0.4,0.8-0.6,1.4-0.6c0.5,0,1,0.2,1.3,0.6c0.3,0.4,0.5,0.9,0.5,1.6c0,0,0,0.1,0,0.2h-3.1
		c0,0.5,0.2,0.8,0.4,1c0.2,0.2,0.5,0.4,0.9,0.4c0.3,0,0.5-0.1,0.7-0.2C113.4,76.1,113.5,75.9,113.6,75.6L113.6,75.6z M111.4,74.5
		h2.3c0-0.3-0.1-0.6-0.3-0.8c-0.2-0.3-0.5-0.4-0.9-0.4c-0.3,0-0.6,0.1-0.8,0.3C111.5,73.8,111.4,74.1,111.4,74.5z"/>
	<path d="M116.4,76.9l-1.6-4.1h0.7l0.9,2.5c0.1,0.3,0.2,0.5,0.3,0.8c0.1-0.2,0.1-0.5,0.3-0.8l0.9-2.5h0.7l-1.6,4.1H116.4z"/>
	<path d="M119.2,72v-0.8h0.7V72H119.2L119.2,72z M119.2,76.9v-4.1h0.7v4.1H119.2z"/>
	<polygon points="120.9,76.9 120.9,71.2 121.6,71.2 121.6,74.5 123.3,72.8 124.2,72.8 122.6,74.3 124.3,76.9 123.5,76.9 122.1,74.8 
		121.6,75.3 121.6,76.9 	"/>
	<path d="M127.6,76.9v-0.6c-0.3,0.5-0.8,0.7-1.3,0.7c-0.2,0-0.5,0-0.7-0.1c-0.2-0.1-0.4-0.2-0.5-0.3c-0.1-0.1-0.2-0.3-0.2-0.5
		c0-0.1,0-0.4,0-0.6v-2.5h0.7v2.3c0,0.4,0,0.6,0,0.7c0,0.2,0.1,0.3,0.3,0.4c0.1,0.1,0.3,0.2,0.5,0.2c0.2,0,0.4-0.1,0.6-0.2
		c0.2-0.1,0.3-0.3,0.4-0.4c0.1-0.2,0.1-0.5,0.1-0.8v-2.2h0.7v4.1H127.6z"/>
	<path d="M131.5,76.9v-5.7h0.7v2c0.3-0.4,0.7-0.6,1.2-0.6c0.3,0,0.6,0.1,0.8,0.2c0.2,0.1,0.4,0.3,0.5,0.5c0.1,0.2,0.1,0.5,0.1,0.9
		v2.6h-0.7v-2.6c0-0.3-0.1-0.6-0.2-0.8c-0.2-0.2-0.4-0.2-0.6-0.2c-0.2,0-0.4,0.1-0.6,0.2c-0.2,0.1-0.3,0.3-0.4,0.4
		c-0.1,0.2-0.1,0.4-0.1,0.8v2.2H131.5z"/>
	<path d="M138.7,75.6l0.7,0.1c-0.1,0.4-0.3,0.7-0.6,1c-0.3,0.2-0.7,0.3-1.2,0.3c-0.6,0-1.1-0.2-1.4-0.6c-0.4-0.4-0.5-0.9-0.5-1.6
		c0-0.7,0.2-1.2,0.5-1.6c0.4-0.4,0.8-0.6,1.4-0.6c0.5,0,1,0.2,1.3,0.6c0.3,0.4,0.5,0.9,0.5,1.6c0,0,0,0.1,0,0.2h-3.1
		c0,0.5,0.2,0.8,0.4,1c0.2,0.2,0.5,0.4,0.9,0.4c0.3,0,0.5-0.1,0.7-0.2C138.4,76.1,138.6,75.9,138.7,75.6L138.7,75.6z M136.4,74.5
		h2.3c0-0.3-0.1-0.6-0.3-0.8c-0.2-0.3-0.5-0.4-0.9-0.4c-0.3,0-0.6,0.1-0.8,0.3C136.6,73.8,136.4,74.1,136.4,74.5z"/>
	<path d="M143,76.4c-0.3,0.2-0.5,0.4-0.7,0.5c-0.2,0.1-0.5,0.1-0.8,0.1c-0.5,0-0.8-0.1-1-0.3c-0.2-0.2-0.4-0.5-0.4-0.8
		c0-0.2,0-0.4,0.1-0.6c0.1-0.2,0.2-0.3,0.4-0.4c0.1-0.1,0.3-0.2,0.5-0.2c0.1,0,0.3-0.1,0.6-0.1c0.6-0.1,1-0.1,1.2-0.2
		c0-0.1,0-0.2,0-0.2c0-0.3-0.1-0.5-0.2-0.6c-0.2-0.2-0.4-0.2-0.8-0.2c-0.3,0-0.6,0.1-0.7,0.2c-0.2,0.1-0.3,0.3-0.3,0.6l-0.7-0.1
		c0.1-0.3,0.2-0.5,0.3-0.7c0.1-0.2,0.3-0.3,0.6-0.4c0.3-0.1,0.6-0.1,0.9-0.1c0.4,0,0.6,0,0.9,0.1c0.2,0.1,0.4,0.2,0.5,0.3
		c0.1,0.1,0.2,0.3,0.2,0.5c0,0.1,0,0.3,0,0.6v0.9c0,0.6,0,1.1,0,1.2c0,0.2,0.1,0.3,0.2,0.5h-0.7C143,76.8,143,76.6,143,76.4
		L143,76.4z M142.9,74.8c-0.3,0.1-0.6,0.2-1.1,0.3c-0.3,0-0.5,0.1-0.6,0.1c-0.1,0.1-0.2,0.1-0.3,0.2c-0.1,0.1-0.1,0.2-0.1,0.3
		c0,0.2,0.1,0.3,0.2,0.5c0.1,0.1,0.3,0.2,0.6,0.2c0.3,0,0.5-0.1,0.7-0.2c0.2-0.1,0.4-0.3,0.5-0.5c0.1-0.2,0.1-0.4,0.1-0.7V74.8z"/>
	<polygon points="144.7,76.9 144.7,71.2 145.4,71.2 145.4,74.5 147,72.8 147.9,72.8 146.4,74.3 148.1,76.9 147.2,76.9 145.9,74.8 
		145.4,75.3 145.4,76.9 	"/>
	<path d="M148.4,75.7l0.7-0.1c0,0.3,0.1,0.5,0.3,0.6c0.2,0.1,0.4,0.2,0.7,0.2c0.3,0,0.6-0.1,0.7-0.2c0.2-0.1,0.2-0.3,0.2-0.5
		c0-0.2-0.1-0.3-0.2-0.4c-0.1-0.1-0.3-0.1-0.7-0.2c-0.5-0.1-0.9-0.2-1.1-0.3c-0.2-0.1-0.3-0.2-0.4-0.4c-0.1-0.2-0.2-0.3-0.2-0.5
		c0-0.2,0-0.4,0.1-0.5c0.1-0.2,0.2-0.3,0.3-0.4c0.1-0.1,0.3-0.1,0.4-0.2c0.2-0.1,0.4-0.1,0.6-0.1c0.3,0,0.6,0,0.8,0.1
		c0.2,0.1,0.4,0.2,0.5,0.4c0.1,0.2,0.2,0.4,0.2,0.6l-0.7,0.1c0-0.2-0.1-0.4-0.3-0.5c-0.1-0.1-0.4-0.2-0.6-0.2
		c-0.3,0-0.5,0.1-0.7,0.2c-0.1,0.1-0.2,0.2-0.2,0.4c0,0.1,0,0.2,0.1,0.2c0.1,0.1,0.1,0.1,0.3,0.2c0.1,0,0.3,0.1,0.6,0.2
		c0.5,0.1,0.8,0.2,1,0.3c0.2,0.1,0.3,0.2,0.5,0.4c0.1,0.2,0.2,0.4,0.2,0.6c0,0.2-0.1,0.4-0.2,0.7c-0.1,0.2-0.3,0.4-0.6,0.5
		c-0.3,0.1-0.5,0.2-0.9,0.2c-0.5,0-0.9-0.1-1.2-0.3C148.6,76.4,148.4,76.1,148.4,75.7z"/>
</g>
</svg>
