<?xml version="1.0" encoding="UTF-8"?>
<svg width="111px" height="61px" viewBox="0 0 111 61" version="1.1" xmlns="http://www.w3.org/2000/svg" xmlns:xlink="http://www.w3.org/1999/xlink">
    <!-- Generator: Sketch 46.2 (44496) - http://www.bohemiancoding.com/sketch -->
    <title>Struktuurifondid</title>
    <desc>Created with Sketch.</desc>
    <defs></defs>
    <g id="Buttons&amp;Icons" stroke="none" stroke-width="1" fill="none" fill-rule="evenodd">
        <g id="eID" transform="translate(-237.000000, -1348.000000)">
            <g id="Struktuurifondid" transform="translate(237.000000, 1348.000000)">
                <path d="M14.0453094,46.4958763 L14.0453094,42.180133 L17.1286924,42.180133 L17.1286924,42.689426 L14.6096266,42.689426 L14.6096266,44.0112328 L16.9687056,44.0112328 L16.9687056,44.517582 L14.6096266,44.517582 L14.6096266,45.9865833 L17.2275934,45.9865833 L17.2275934,46.4958763 L14.0453094,46.4958763 Z M19.9642273,46.4958763 L19.9642273,46.0366294 C19.723761,46.389898 19.3970033,46.5665297 18.9839442,46.5665297 C18.8016552,46.5665297 18.6314891,46.5312033 18.4734407,46.4605496 C18.3153923,46.3898959 18.1980698,46.3010894 18.1214696,46.1941275 C18.0448695,46.0871657 17.9910562,45.9561638 17.9600283,45.8011182 C17.9386966,45.6971002 17.928031,45.532244 17.928031,45.3065446 L17.928031,43.3694647 L18.4516243,43.3694647 L18.4516243,45.1034162 C18.4516243,45.3801432 18.46229,45.5665878 18.4836217,45.6627553 C18.5165888,45.8021002 18.5864006,45.9115137 18.693059,45.9909991 C18.7997175,46.0704845 18.9315841,46.1102267 19.0886629,46.1102267 C19.2457417,46.1102267 19.393122,46.0695033 19.5308084,45.9880552 C19.6684947,45.9066072 19.7659403,45.7957217 19.823148,45.6553956 C19.8803557,45.5150695 19.9089591,45.3114524 19.9089591,45.0445384 L19.9089591,43.3694647 L20.4325525,43.3694647 L20.4325525,46.4958763 L19.9642273,46.4958763 Z M21.2482225,46.4958763 L21.2482225,43.3694647 L21.7194565,43.3694647 L21.7194565,43.8434311 C21.8396896,43.6216569 21.9507097,43.4754451 22.05252,43.4047914 C22.1543304,43.3341377 22.2663201,43.2988114 22.3884924,43.2988114 C22.5649637,43.2988114 22.7443411,43.355726 22.9266301,43.469557 L22.7462812,43.9611867 C22.6182911,43.8846452 22.4903029,43.846375 22.3623128,43.846375 C22.2478974,43.846375 22.145119,43.8812107 22.0539745,43.9508831 C21.96283,44.0205555 21.8978663,44.1172123 21.8590814,44.2408563 C21.8009041,44.4292662 21.7718158,44.6353365 21.7718158,44.8590733 L21.7718158,46.4958763 L21.2482225,46.4958763 Z M23.0435799,44.9326705 C23.0435799,44.3537025 23.2025955,43.9248801 23.5206316,43.6461904 C23.7863081,43.4146032 24.110157,43.2988114 24.4921881,43.2988114 C24.9168826,43.2988114 25.2640022,43.439626 25.5335571,43.7212596 C25.8031121,44.0028932 25.9378875,44.3919735 25.9378875,44.8885122 C25.9378875,45.2908459 25.8782567,45.6073109 25.7589931,45.8379168 C25.6397296,46.0685227 25.4661699,46.2476076 25.2383086,46.3751768 C25.0104474,46.502746 24.7617431,46.5665297 24.4921881,46.5665297 C24.0597366,46.5665297 23.7101931,46.4262056 23.443547,46.1455534 C23.1769009,45.8649011 23.0435799,45.4606108 23.0435799,44.9326705 Z M23.5817175,44.9326705 C23.5817175,45.3330416 23.6680125,45.6328248 23.8406053,45.832029 C24.013198,46.0312333 24.2303901,46.1308339 24.4921881,46.1308339 C24.7520469,46.1308339 24.9682694,46.0307426 25.1408621,45.8305571 C25.3134549,45.6303715 25.3997499,45.3251913 25.3997499,44.9150072 C25.3997499,44.5283743 25.3129701,44.2354601 25.1394077,44.0362559 C24.9658453,43.8370517 24.7501076,43.737451 24.4921881,43.737451 C24.2303901,43.737451 24.013198,43.836561 23.8406053,44.034784 C23.6680125,44.2330069 23.5817175,44.5322994 23.5817175,44.9326705 Z M26.3579537,44.9326705 C26.3579537,44.3537025 26.5169693,43.9248801 26.8350054,43.6461904 C27.1006819,43.4146032 27.4245308,43.2988114 27.806562,43.2988114 C28.2312565,43.2988114 28.578376,43.439626 28.8479309,43.7212596 C29.1174859,44.0028932 29.2522614,44.3919735 29.2522614,44.8885122 C29.2522614,45.2908459 29.1926305,45.6073109 29.073367,45.8379168 C28.9541034,46.0685227 28.7805437,46.2476076 28.5526825,46.3751768 C28.3248213,46.502746 28.0761169,46.5665297 27.806562,46.5665297 C27.3741105,46.5665297 27.0245669,46.4262056 26.7579208,46.1455534 C26.4912747,45.8649011 26.3579537,45.4606108 26.3579537,44.9326705 Z M26.8960913,44.9326705 C26.8960913,45.3330416 26.9823864,45.6328248 27.1549791,45.832029 C27.3275719,46.0312333 27.544764,46.1308339 27.806562,46.1308339 C28.0664207,46.1308339 28.2826432,46.0307426 28.4552359,45.8305571 C28.6278287,45.6303715 28.7141238,45.3251913 28.7141238,44.9150072 C28.7141238,44.5283743 28.6273439,44.2354601 28.4537815,44.0362559 C28.2802191,43.8370517 28.0644814,43.737451 27.806562,43.737451 C27.544764,43.737451 27.3275719,43.836561 27.1549791,44.034784 C26.9823864,44.2330069 26.8960913,44.5322994 26.8960913,44.9326705 Z M29.8672206,47.6940397 L29.8672206,43.3694647 L30.3442723,43.3694647 L30.3442723,43.7757216 C30.4567485,43.6167507 30.5837671,43.4975244 30.7253319,43.4180389 C30.8668967,43.3385535 31.0385173,43.2988114 31.2401987,43.2988114 C31.5039359,43.2988114 31.7366418,43.3675014 31.9383232,43.5048837 C32.1400046,43.6422659 32.292233,43.8360701 32.3950129,44.086302 C32.4977929,44.336534 32.5491821,44.6108037 32.5491821,44.9091194 C32.5491821,45.2290237 32.49246,45.5170315 32.3790142,45.7731512 C32.2655684,46.029271 32.1007351,46.2255284 31.8845094,46.3619293 C31.6682837,46.4983302 31.4409107,46.5665297 31.2023836,46.5665297 C31.0278516,46.5665297 30.87126,46.5292408 30.732604,46.4546618 C30.5939481,46.3800829 30.4800192,46.2858794 30.3908139,46.1720484 L30.3908139,47.6940397 L29.8672206,47.6940397 Z M30.3413635,44.9503339 C30.3413635,45.3526676 30.4218409,45.6499975 30.5827982,45.8423326 C30.7437554,46.0346678 30.9386466,46.1308339 31.1674774,46.1308339 C31.4001867,46.1308339 31.5994411,46.0312333 31.7652465,45.832029 C31.9310519,45.6328248 32.0139533,45.32421 32.0139533,44.9061755 C32.0139533,44.507767 31.9329911,44.2094558 31.7710642,44.0112328 C31.6091373,43.8130099 31.4157006,43.7138999 31.1907482,43.7138999 C30.9677351,43.7138999 30.77042,43.8193882 30.5987968,44.0303681 C30.4271737,44.241348 30.3413635,44.5480002 30.3413635,44.9503339 Z M35.1974288,46.1102267 C35.0035044,46.277048 34.8168549,46.3948024 34.6374748,46.4634935 C34.4580947,46.5321846 34.2656276,46.5665297 34.0600677,46.5665297 C33.7206999,46.5665297 33.4598755,46.4826296 33.2775865,46.3148271 C33.0952976,46.1470245 33.0041544,45.9326133 33.0041544,45.671587 C33.0041544,45.5185039 33.0385755,45.3786705 33.1074187,45.2520826 C33.1762619,45.1254947 33.2664354,45.0239315 33.3779419,44.94739 C33.4894485,44.8708484 33.6150126,44.8129525 33.7546382,44.7737004 C33.8574182,44.746224 34.0125554,44.7197292 34.2200546,44.6942154 C34.6428098,44.6431877 34.9540539,44.5823479 35.153796,44.5116942 C35.1557353,44.4390779 35.1567049,44.3929574 35.1567049,44.3733313 C35.1567049,44.157445 35.1072549,44.0053455 35.0083534,43.9170283 C34.8745456,43.7973095 34.675776,43.737451 34.4120388,43.737451 C34.1657548,43.737451 33.9839533,43.7811183 33.866629,43.8684541 C33.7493048,43.95579 33.6625249,44.1103427 33.6062868,44.3321169 L33.0943289,44.2614635 C33.1408707,44.0396893 33.2174697,43.8606045 33.3241282,43.7242035 C33.4307866,43.5878026 33.5849542,43.4828049 33.7866356,43.4092072 C33.988317,43.3356096 34.2219925,43.2988114 34.4876689,43.2988114 C34.7514062,43.2988114 34.9656894,43.3302125 35.1305252,43.3930158 C35.295361,43.4558192 35.4165619,43.5348128 35.4941317,43.629999 C35.5717015,43.7251853 35.6259995,43.8453929 35.6570274,43.9906256 C35.6744806,44.0809054 35.6832071,44.243799 35.6832071,44.4793114 L35.6832071,45.1858451 C35.6832071,45.6784585 35.6943576,45.9900172 35.7166589,46.1205303 C35.7389602,46.2510434 35.7830773,46.3761575 35.8490116,46.4958763 L35.3021475,46.4958763 C35.2478486,46.3859705 35.2129428,46.2574219 35.1974288,46.1102267 Z M35.153796,44.9267827 C34.9637501,45.0052869 34.6786854,45.0720144 34.2985936,45.1269673 C34.0833374,45.1583689 33.931109,45.1936953 33.8419038,45.2329473 C33.7526986,45.2721994 33.6838564,45.3296047 33.6353753,45.4051649 C33.5868942,45.4807252 33.562654,45.5646252 33.562654,45.6568676 C33.562654,45.798175 33.6154976,45.9159294 33.7211864,46.0101344 C33.8268753,46.1043394 33.9815277,46.1514411 34.1851483,46.1514411 C34.3868297,46.1514411 34.5662071,46.1067926 34.7232859,46.0174941 C34.8803647,45.9281957 34.995748,45.8060254 35.0694393,45.6509798 C35.1256774,45.531261 35.153796,45.3546293 35.153796,45.1210795 L35.153796,44.9267827 Z M38.1945469,46.4958763 L38.1945469,42.180133 L38.7588642,42.180133 L38.7588642,45.9865833 L40.8590553,45.9865833 L40.8590553,46.4958763 L38.1945469,46.4958763 Z M41.4681968,42.7895183 L41.4681968,42.180133 L41.9917902,42.180133 L41.9917902,42.7895183 L41.4681968,42.7895183 Z M41.4681968,46.4958763 L41.4681968,43.3694647 L41.9917902,43.3694647 L41.9917902,46.4958763 L41.4681968,46.4958763 Z M42.7929159,42.7895183 L42.7929159,42.180133 L43.3165093,42.180133 L43.3165093,42.7895183 L42.7929159,42.7895183 Z M42.7929159,46.4958763 L42.7929159,43.3694647 L43.3165093,43.3694647 L43.3165093,46.4958763 L42.7929159,46.4958763 Z M45.257905,46.02191 L45.3335351,46.4899885 C45.1861526,46.5213902 45.0542859,46.5370908 44.9379313,46.5370908 C44.7478853,46.5370908 44.600505,46.5066709 44.4957858,46.4458302 C44.3910666,46.3849895 44.3173764,46.3050146 44.274713,46.2059031 C44.2320497,46.1067916 44.2107183,45.8982682 44.2107183,45.5803264 L44.2107183,43.7816094 L43.8267498,43.7816094 L43.8267498,43.3694647 L44.2107183,43.3694647 L44.2107183,42.5952216 L44.7314028,42.2772814 L44.7314028,43.3694647 L45.257905,43.3694647 L45.257905,43.7816094 L44.7314028,43.7816094 L44.7314028,45.6097653 C44.7314028,45.7608858 44.7406141,45.8580332 44.7590369,45.9012105 C44.7774597,45.9443877 44.8075175,45.9787328 44.8492113,46.0042466 C44.890905,46.0297605 44.9505359,46.0425172 45.0281057,46.0425172 C45.086283,46.0425172 45.162882,46.0356482 45.257905,46.02191 Z" id="EuroopaLiit" fill="#1A1A18"></path>
                <path d="M4.61175456,52.6496326 L4.61175456,48.3338893 L7.69513762,48.3338893 L7.69513762,48.8431823 L5.17607184,48.8431823 L5.17607184,50.1649891 L7.53515076,50.1649891 L7.53515076,50.6713382 L5.17607184,50.6713382 L5.17607184,52.1403395 L7.79403858,52.1403395 L7.79403858,52.6496326 L4.61175456,52.6496326 Z M10.5306725,52.6496326 L10.5306725,52.1903857 C10.2902062,52.5436543 9.96344846,52.7202859 9.55038942,52.7202859 C9.36810045,52.7202859 9.19793432,52.6849596 9.0398859,52.6143059 C8.88183749,52.5436522 8.76451497,52.4548457 8.68791482,52.3478838 C8.61131467,52.2409219 8.55750145,52.1099201 8.52647354,51.9548744 C8.50514185,51.8508564 8.49447616,51.6860002 8.49447616,51.4603008 L8.49447616,49.523221 L9.01806951,49.523221 L9.01806951,51.2571724 C9.01806951,51.5338995 9.0287352,51.720344 9.05006688,51.8165116 C9.08303404,51.9558564 9.15284579,52.0652699 9.25950422,52.1447554 C9.36616266,52.2242408 9.4980293,52.2639829 9.65510809,52.2639829 C9.81218688,52.2639829 9.95956724,52.2232595 10.0972536,52.1418115 C10.2349399,52.0603634 10.3323855,51.949478 10.3895932,51.8091519 C10.4468009,51.6688257 10.4754043,51.4652087 10.4754043,51.1982946 L10.4754043,49.523221 L10.9989977,49.523221 L10.9989977,52.6496326 L10.5306725,52.6496326 Z M11.8146677,52.6496326 L11.8146677,49.523221 L12.2859017,49.523221 L12.2859017,49.9971873 C12.4061349,49.7754131 12.5171549,49.6292014 12.6189653,49.5585477 C12.7207756,49.4878939 12.8327653,49.4525676 12.9549377,49.4525676 C13.1314089,49.4525676 13.3107863,49.5094822 13.4930753,49.6233132 L13.3127264,50.1149429 C13.1847363,50.0384014 13.0567481,50.0001312 12.928758,50.0001312 C12.8143426,50.0001312 12.7115642,50.0349669 12.6204197,50.1046393 C12.5292752,50.1743117 12.4643115,50.2709685 12.4255266,50.3946125 C12.3673493,50.5830225 12.338261,50.7890927 12.338261,51.0128295 L12.338261,52.6496326 L11.8146677,52.6496326 Z M13.6100251,51.0864268 C13.6100251,50.5074588 13.7690407,50.0786364 14.0870768,49.7999467 C14.3527533,49.5683595 14.6766022,49.4525676 15.0586333,49.4525676 C15.4833278,49.4525676 15.8304474,49.5933823 16.1000023,49.8750159 C16.3695573,50.1566495 16.5043327,50.5457298 16.5043327,51.0422684 C16.5043327,51.4446021 16.4447019,51.7610672 16.3254384,51.9916731 C16.2061748,52.222279 16.0326151,52.4013638 15.8047539,52.5289331 C15.5768926,52.6565023 15.3281883,52.7202859 15.0586333,52.7202859 C14.6261818,52.7202859 14.2766383,52.5799619 14.0099922,52.2993096 C13.7433461,52.0186573 13.6100251,51.6143671 13.6100251,51.0864268 Z M14.1481627,51.0864268 C14.1481627,51.4867979 14.2344578,51.786581 14.4070505,51.9857853 C14.5796432,52.1849895 14.7968354,52.2845902 15.0586333,52.2845902 C15.3184921,52.2845902 15.5347146,52.1844989 15.7073073,51.9843133 C15.8799001,51.7841278 15.9661951,51.4789475 15.9661951,51.0687634 C15.9661951,50.6821306 15.8794153,50.3892164 15.7058529,50.1900121 C15.5322905,49.9908079 15.3165528,49.8912073 15.0586333,49.8912073 C14.7968354,49.8912073 14.5796432,49.9903173 14.4070505,50.1885402 C14.2344578,50.3867631 14.1481627,50.6860557 14.1481627,51.0864268 Z M16.9243989,51.0864268 C16.9243989,50.5074588 17.0834145,50.0786364 17.4014506,49.7999467 C17.6671271,49.5683595 17.990976,49.4525676 18.3730072,49.4525676 C18.7977017,49.4525676 19.1448212,49.5933823 19.4143761,49.8750159 C19.6839311,50.1566495 19.8187066,50.5457298 19.8187066,51.0422684 C19.8187066,51.4446021 19.7590757,51.7610672 19.6398122,51.9916731 C19.5205486,52.222279 19.3469889,52.4013638 19.1191277,52.5289331 C18.8912665,52.6565023 18.6425621,52.7202859 18.3730072,52.7202859 C17.9405557,52.7202859 17.5910121,52.5799619 17.324366,52.2993096 C17.0577199,52.0186573 16.9243989,51.6143671 16.9243989,51.0864268 Z M17.4625365,51.0864268 C17.4625365,51.4867979 17.5488316,51.786581 17.7214243,51.9857853 C17.8940171,52.1849895 18.1112092,52.2845902 18.3730072,52.2845902 C18.6328659,52.2845902 18.8490884,52.1844989 19.0216811,51.9843133 C19.1942739,51.7841278 19.280569,51.4789475 19.280569,51.0687634 C19.280569,50.6821306 19.1937891,50.3892164 19.0202267,50.1900121 C18.8466643,49.9908079 18.6309267,49.8912073 18.3730072,49.8912073 C18.1112092,49.8912073 17.8940171,49.9903173 17.7214243,50.1885402 C17.5488316,50.3867631 17.4625365,50.6860557 17.4625365,51.0864268 Z M20.4336658,53.8477959 L20.4336658,49.523221 L20.9107175,49.523221 L20.9107175,49.9294778 C21.0231937,49.770507 21.1502123,49.6512806 21.2917771,49.5717952 C21.4333419,49.4923097 21.6049625,49.4525676 21.8066439,49.4525676 C22.0703811,49.4525676 22.303087,49.5212577 22.5047684,49.6586399 C22.7064498,49.7960222 22.8586782,49.9898263 22.9614581,50.2400583 C23.0642381,50.4902902 23.1156273,50.7645599 23.1156273,51.0628756 C23.1156273,51.38278 23.0589052,51.6707877 22.9454594,51.9269075 C22.8320136,52.1830272 22.6671804,52.3792846 22.4509546,52.5156855 C22.2347289,52.6520865 22.0073559,52.7202859 21.7688288,52.7202859 C21.5942968,52.7202859 21.4377052,52.682997 21.2990492,52.6084181 C21.1603933,52.5338392 21.0464644,52.4396356 20.9572591,52.3258046 L20.9572591,53.8477959 L20.4336658,53.8477959 Z M20.9078087,51.1040901 C20.9078087,51.5064238 20.9882861,51.8037538 21.1492434,51.9960889 C21.3102006,52.188424 21.5050918,52.2845902 21.7339226,52.2845902 C21.9666319,52.2845902 22.1658863,52.1849895 22.3316917,51.9857853 C22.4974971,51.786581 22.5803985,51.4779663 22.5803985,51.0599318 C22.5803985,50.6615233 22.4994363,50.363212 22.3375094,50.1649891 C22.1755825,49.9667661 21.9821458,49.8676561 21.7571934,49.8676561 C21.5341803,49.8676561 21.3368652,49.9731445 21.1652421,50.1841244 C20.9936189,50.3951042 20.9078087,50.7017564 20.9078087,51.1040901 Z M25.763874,52.2639829 C25.5699496,52.4308042 25.3833001,52.5485586 25.20392,52.6172498 C25.0245399,52.6859409 24.8320728,52.7202859 24.6265129,52.7202859 C24.2871451,52.7202859 24.0263207,52.6363859 23.8440317,52.4685833 C23.6617428,52.3007807 23.5705996,52.0863695 23.5705996,51.8253433 C23.5705996,51.6722602 23.6050207,51.5324268 23.6738639,51.4058389 C23.7427071,51.279251 23.8328806,51.1776878 23.9443871,51.1011462 C24.0558937,51.0246047 24.1814579,50.9667088 24.3210834,50.9274567 C24.4238634,50.8999802 24.5790006,50.8734855 24.7864998,50.8479716 C25.209255,50.796944 25.5204991,50.7361042 25.7202412,50.6654504 C25.7221805,50.5928341 25.7231501,50.5467136 25.7231501,50.5270876 C25.7231501,50.3112012 25.6737001,50.1591017 25.5747986,50.0707846 C25.4409908,49.9510658 25.2422212,49.8912073 24.978484,49.8912073 C24.7322,49.8912073 24.5503985,49.9348745 24.4330742,50.0222104 C24.31575,50.1095462 24.2289701,50.2640989 24.172732,50.4858731 L23.6607741,50.4152198 C23.7073159,50.1934456 23.7839149,50.0143607 23.8905734,49.8779598 C23.9972318,49.7415588 24.1513994,49.6365611 24.3530808,49.5629635 C24.5547622,49.4893659 24.7884377,49.4525676 25.0541141,49.4525676 C25.3178514,49.4525676 25.5321346,49.4839688 25.6969704,49.5467721 C25.8618062,49.6095754 25.9830071,49.688569 26.0605769,49.7837553 C26.1381467,49.8789415 26.1924447,49.9991492 26.2234726,50.1443818 C26.2409258,50.2346616 26.2496523,50.3975552 26.2496523,50.6330676 L26.2496523,51.3396013 C26.2496523,51.8322148 26.2608028,52.1437734 26.2831041,52.2742865 C26.3054054,52.4047997 26.3495225,52.5299138 26.4154568,52.6496326 L25.8685927,52.6496326 C25.8142938,52.5397268 25.779388,52.4111782 25.763874,52.2639829 Z M25.7202412,51.080539 C25.5301953,51.1590431 25.2451306,51.2257706 24.8650388,51.2807235 C24.6497826,51.3121252 24.4975542,51.3474515 24.408349,51.3867036 C24.3191438,51.4259557 24.2503016,51.4833609 24.2018205,51.5589212 C24.1533394,51.6344814 24.1290992,51.7183814 24.1290992,51.8106238 C24.1290992,51.9519312 24.1819428,52.0696857 24.2876316,52.1638906 C24.3933205,52.2580956 24.5479729,52.3051974 24.7515935,52.3051974 C24.9532749,52.3051974 25.1326524,52.2605488 25.2897311,52.1712504 C25.4468099,52.0819519 25.5621932,51.9597817 25.6358845,51.804736 C25.6921226,51.6850172 25.7202412,51.5083856 25.7202412,51.2748358 L25.7202412,51.080539 Z M28.507922,51.7164193 L29.0256977,51.6339904 C29.0547863,51.8439889 29.1357486,52.00492 29.2685868,52.1167884 C29.401425,52.2286568 29.5871049,52.2845902 29.825632,52.2845902 C30.0660983,52.2845902 30.2445061,52.2350352 30.3608607,52.1359237 C30.4772154,52.0368122 30.5353918,51.9205297 30.5353918,51.7870727 C30.5353918,51.6673539 30.4840026,51.5731503 30.3812227,51.5044592 C30.3094706,51.4573567 30.1310628,51.3974982 29.8459939,51.3248819 C29.4620235,51.2267517 29.1958663,51.1418704 29.0475141,51.0702354 C28.8991619,50.9986003 28.7866874,50.8994904 28.7100872,50.7729024 C28.6334871,50.6463145 28.5951876,50.5064811 28.5951876,50.3533981 C28.5951876,50.2140532 28.6266998,50.085014 28.6897253,49.9662765 C28.7527507,49.847539 28.838561,49.7489196 28.9471587,49.6704155 C29.0286069,49.6095748 29.139627,49.5580572 29.2802222,49.5158612 C29.4208174,49.4736653 29.5715914,49.4525676 29.7325487,49.4525676 C29.9749542,49.4525676 30.1877831,49.4878939 30.3710417,49.5585477 C30.5543003,49.6292014 30.6895605,49.7248769 30.7768265,49.845577 C30.8640925,49.9662771 30.9242082,50.1276988 30.9571754,50.3298469 L30.4452174,50.4005003 C30.4219465,50.2395668 30.3545588,50.1139621 30.2430522,50.0236823 C30.1315457,49.9334026 29.9739844,49.8882634 29.7703638,49.8882634 C29.5298975,49.8882634 29.3582769,49.9284961 29.255497,50.0089629 C29.152717,50.0894296 29.1013278,50.1836332 29.1013278,50.2915764 C29.1013278,50.3602675 29.1226592,50.4220886 29.1653226,50.4770415 C29.2079859,50.533957 29.2748889,50.5810587 29.3660334,50.6183482 C29.4183929,50.6379742 29.5725606,50.6831134 29.8285408,50.7537672 C30.1989365,50.8538599 30.4573369,50.9357974 30.6037498,50.999582 C30.7501628,51.0633666 30.8650613,51.1560982 30.9484488,51.2777796 C31.0318363,51.3994611 31.0735294,51.5505792 31.0735294,51.7311388 C31.0735294,51.9077731 31.022625,52.0741012 30.9208147,52.2301282 C30.8190044,52.3861551 30.6721088,52.5068534 30.4801236,52.5922267 C30.2881385,52.6775999 30.0709463,52.7202859 29.8285408,52.7202859 C29.4271172,52.7202859 29.121206,52.6358952 28.910798,52.4671114 C28.70039,52.2983275 28.5660994,52.0480993 28.507922,51.7164193 Z M32.8397983,52.1756662 L32.9154284,52.6437448 C32.7680459,52.6751464 32.6361792,52.690847 32.5198246,52.690847 C32.3297786,52.690847 32.1823983,52.6604271 32.0776791,52.5995864 C31.9729599,52.5387457 31.8992697,52.4587708 31.8566063,52.3596594 C31.813943,52.2605479 31.7926116,52.0520244 31.7926116,51.7340827 L31.7926116,49.9353656 L31.4086431,49.9353656 L31.4086431,49.523221 L31.7926116,49.523221 L31.7926116,48.7489778 L32.3132961,48.4310376 L32.3132961,49.523221 L32.8397983,49.523221 L32.8397983,49.9353656 L32.3132961,49.9353656 L32.3132961,51.7635216 C32.3132961,51.914642 32.3225074,52.0117894 32.3409302,52.0549667 C32.359353,52.098144 32.3894108,52.132489 32.4311046,52.1580029 C32.4727984,52.1835167 32.5324292,52.1962734 32.609999,52.1962734 C32.6681763,52.1962734 32.7447753,52.1894044 32.8397983,52.1756662 Z M33.3447471,52.6496326 L33.3447471,49.523221 L33.8159811,49.523221 L33.8159811,49.9971873 C33.9362142,49.7754131 34.0472343,49.6292014 34.1490446,49.5585477 C34.250855,49.4878939 34.3628446,49.4525676 34.485017,49.4525676 C34.6614883,49.4525676 34.8408657,49.5094822 35.0231546,49.6233132 L34.8428058,50.1149429 C34.7148157,50.0384014 34.5868275,50.0001312 34.4588374,50.0001312 C34.3444219,50.0001312 34.2416435,50.0349669 34.1504991,50.1046393 C34.0593546,50.1743117 33.9943909,50.2709685 33.955606,50.3946125 C33.8974286,50.5830225 33.8683404,50.7890927 33.8683404,51.0128295 L33.8683404,52.6496326 L33.3447471,52.6496326 Z M37.3595585,52.6496326 L37.3595585,52.1903857 C37.1190922,52.5436543 36.7923344,52.7202859 36.3792754,52.7202859 C36.1969864,52.7202859 36.0268203,52.6849596 35.8687719,52.6143059 C35.7107234,52.5436522 35.5934009,52.4548457 35.5168008,52.3478838 C35.4402006,52.2409219 35.3863874,52.1099201 35.3553595,51.9548744 C35.3340278,51.8508564 35.3233621,51.6860002 35.3233621,51.4603008 L35.3233621,49.523221 L35.8469555,49.523221 L35.8469555,51.2571724 C35.8469555,51.5338995 35.8576212,51.720344 35.8789528,51.8165116 C35.91192,51.9558564 35.9817317,52.0652699 36.0883902,52.1447554 C36.1950486,52.2242408 36.3269153,52.2639829 36.483994,52.2639829 C36.6410728,52.2639829 36.7884532,52.2232595 36.9261395,52.1418115 C37.0638259,52.0603634 37.1612714,51.949478 37.2184792,51.8091519 C37.2756869,51.6688257 37.3042903,51.4652087 37.3042903,51.1982946 L37.3042903,49.523221 L37.8278836,49.523221 L37.8278836,52.6496326 L37.3595585,52.6496326 Z M38.6522802,52.6496326 L38.6522802,48.3338893 L39.1758735,48.3338893 L39.1758735,50.7949816 L40.4150445,49.523221 L41.092807,49.523221 L39.9118131,50.6831138 L41.2120699,52.6496326 L40.5663048,52.6496326 L39.5452977,51.0511001 L39.1758735,51.4102547 L39.1758735,52.6496326 L38.6522802,52.6496326 Z M42.7718103,52.1756662 L42.8474404,52.6437448 C42.7000579,52.6751464 42.5681912,52.690847 42.4518366,52.690847 C42.2617906,52.690847 42.1144103,52.6604271 42.0096911,52.5995864 C41.9049719,52.5387457 41.8312817,52.4587708 41.7886183,52.3596594 C41.7459549,52.2605479 41.7246236,52.0520244 41.7246236,51.7340827 L41.7246236,49.9353656 L41.3406551,49.9353656 L41.3406551,49.523221 L41.7246236,49.523221 L41.7246236,48.7489778 L42.2453081,48.4310376 L42.2453081,49.523221 L42.7718103,49.523221 L42.7718103,49.9353656 L42.2453081,49.9353656 L42.2453081,51.7635216 C42.2453081,51.914642 42.2545193,52.0117894 42.2729422,52.0549667 C42.291365,52.098144 42.3214228,52.132489 42.3631166,52.1580029 C42.4048103,52.1835167 42.4644412,52.1962734 42.542011,52.1962734 C42.6001883,52.1962734 42.6767873,52.1894044 42.7718103,52.1756662 Z M45.3071377,52.6496326 L45.3071377,52.1903857 C45.0666714,52.5436543 44.7399136,52.7202859 44.3268546,52.7202859 C44.1445656,52.7202859 43.9743995,52.6849596 43.8163511,52.6143059 C43.6583027,52.5436522 43.5409801,52.4548457 43.46438,52.3478838 C43.3877798,52.2409219 43.3339666,52.1099201 43.3029387,51.9548744 C43.281607,51.8508564 43.2709413,51.6860002 43.2709413,51.4603008 L43.2709413,49.523221 L43.7945347,49.523221 L43.7945347,51.2571724 C43.7945347,51.5338995 43.8052004,51.720344 43.8265321,51.8165116 C43.8594992,51.9558564 43.929311,52.0652699 44.0359694,52.1447554 C44.1426278,52.2242408 44.2744945,52.2639829 44.4315733,52.2639829 C44.5886521,52.2639829 44.7360324,52.2232595 44.8737188,52.1418115 C45.0114051,52.0603634 45.1088507,51.949478 45.1660584,51.8091519 C45.2232661,51.6688257 45.2518695,51.4652087 45.2518695,51.1982946 L45.2518695,49.523221 L45.7754629,49.523221 L45.7754629,52.6496326 L45.3071377,52.6496326 Z M48.6215115,52.6496326 L48.6215115,52.1903857 C48.3810452,52.5436543 48.0542875,52.7202859 47.6412284,52.7202859 C47.4589395,52.7202859 47.2887733,52.6849596 47.1307249,52.6143059 C46.9726765,52.5436522 46.855354,52.4548457 46.7787538,52.3478838 C46.7021537,52.2409219 46.6483404,52.1099201 46.6173125,51.9548744 C46.5959808,51.8508564 46.5853152,51.6860002 46.5853152,51.4603008 L46.5853152,49.523221 L47.1089085,49.523221 L47.1089085,51.2571724 C47.1089085,51.5338995 47.1195742,51.720344 47.1409059,51.8165116 C47.173873,51.9558564 47.2436848,52.0652699 47.3503432,52.1447554 C47.4570017,52.2242408 47.5888683,52.2639829 47.7459471,52.2639829 C47.9030259,52.2639829 48.0504062,52.2232595 48.1880926,52.1418115 C48.3257789,52.0603634 48.4232245,51.949478 48.4804322,51.8091519 C48.5376399,51.6688257 48.5662433,51.4652087 48.5662433,51.1982946 L48.5662433,49.523221 L49.0898367,49.523221 L49.0898367,52.6496326 L48.6215115,52.6496326 Z M49.9055067,52.6496326 L49.9055067,49.523221 L50.3767407,49.523221 L50.3767407,49.9971873 C50.4969739,49.7754131 50.6079939,49.6292014 50.7098043,49.5585477 C50.8116146,49.4878939 50.9236043,49.4525676 51.0457766,49.4525676 C51.2222479,49.4525676 51.4016253,49.5094822 51.5839143,49.6233132 L51.4035654,50.1149429 C51.2755753,50.0384014 51.1475871,50.0001312 51.019597,50.0001312 C50.9051816,50.0001312 50.8024032,50.0349669 50.7112587,50.1046393 C50.6201142,50.1743117 50.5551505,50.2709685 50.5163656,50.3946125 C50.4581883,50.5830225 50.4291,50.7890927 50.4291,51.0128295 L50.4291,52.6496326 L49.9055067,52.6496326 Z M51.898666,48.9432746 L51.898666,48.3338893 L52.4222593,48.3338893 L52.4222593,48.9432746 L51.898666,48.9432746 Z M51.898666,52.6496326 L51.898666,49.523221 L52.4222593,49.523221 L52.4222593,52.6496326 L51.898666,52.6496326 Z M53.0168566,51.3543208 L53.0168566,50.8214766 L54.6254517,50.8214766 L54.6254517,51.3543208 L53.0168566,51.3543208 Z" id="Euroopastruktuuri-" fill="#1A1A18"></path>
                <path d="M1.21870397,55.1029186 L1.21870397,54.4876455 L1.74229732,54.4876455 L1.74229732,55.1029186 L1.21870397,55.1029186 Z M0.555485726,60.0162716 L0.654386692,59.5658564 C0.759105885,59.5933329 0.841522533,59.6070709 0.901639107,59.6070709 C1.00829754,59.6070709 1.08780537,59.5712539 1.14016497,59.4996189 C1.19252456,59.4279839 1.21870397,59.248899 1.21870397,58.9623589 L1.21870397,55.6769772 L1.74229732,55.6769772 L1.74229732,58.9741345 C1.74229732,59.3588047 1.69284733,59.6266961 1.59394587,59.7778165 C1.46789499,59.9740769 1.25845974,60.0722056 0.965633849,60.0722056 C0.824069014,60.0722056 0.68735434,60.0535611 0.555485726,60.0162716 Z M4.56216631,58.4177392 C4.36824188,58.5845605 4.18159241,58.7023149 4.00221231,58.771006 C3.82283221,58.8396971 3.6303651,58.8740422 3.4248052,58.8740422 C3.08543745,58.8740422 2.824613,58.7901421 2.64232403,58.6223396 C2.46003506,58.454537 2.36889195,58.2401258 2.36889195,57.9790995 C2.36889195,57.8260164 2.40331302,57.686183 2.47215619,57.5595951 C2.54099937,57.4330072 2.63117287,57.331444 2.74267942,57.2549025 C2.85418597,57.1783609 2.97975016,57.120465 3.11937575,57.0812129 C3.2221557,57.0537365 3.37729292,57.0272417 3.58479206,57.0017279 C4.00754732,56.9507002 4.31879137,56.8898604 4.51853353,56.8192067 C4.52047277,56.7465904 4.52144238,56.7004699 4.52144238,56.6808438 C4.52144238,56.4649575 4.47199239,56.312858 4.37309093,56.2245408 C4.23928308,56.104822 4.04051351,56.0449635 3.77677629,56.0449635 C3.53049226,56.0449635 3.34869083,56.0886308 3.23136655,56.1759666 C3.11404227,56.2633025 3.02726238,56.4178552 2.9710243,56.6396294 L2.45906636,56.568976 C2.50560822,56.3472018 2.58220722,56.168117 2.68886566,56.031716 C2.7955241,55.8953151 2.94969171,55.7903174 3.15137312,55.7167197 C3.35305453,55.6431221 3.58672996,55.6063239 3.85240644,55.6063239 C4.11614366,55.6063239 4.33042695,55.637725 4.49526271,55.7005283 C4.66009848,55.7633317 4.78129943,55.8423253 4.85886921,55.9375115 C4.93643898,56.0326978 4.99073701,56.1529054 5.02176492,56.2981381 C5.03921811,56.3884179 5.04794458,56.5513115 5.04794458,56.7868239 L5.04794458,57.4933576 C5.04794458,57.985971 5.05909507,58.2975297 5.08139638,58.4280428 C5.10369769,58.5585559 5.14781484,58.68367 5.21374914,58.8033888 L4.66688498,58.8033888 C4.61258614,58.693483 4.57768026,58.5649344 4.56216631,58.4177392 Z M4.51853353,57.2342952 C4.32848759,57.3127994 4.04342295,57.3795269 3.66333106,57.4344798 C3.44807494,57.4658814 3.29584655,57.5012078 3.20664131,57.5404598 C3.11743607,57.5797119 3.04859393,57.6371172 3.00011282,57.7126774 C2.95163171,57.7882377 2.92739152,57.8721377 2.92739152,57.9643801 C2.92739152,58.1056875 2.98023514,58.2234419 3.08592395,58.3176469 C3.19161277,58.4118519 3.34626518,58.4589536 3.54988584,58.4589536 C3.75156724,58.4589536 3.93094465,58.4143051 4.08802344,58.3250066 C4.24510223,58.2357082 4.36048554,58.1135379 4.43417682,57.9584923 C4.49041491,57.8387735 4.51853353,57.6621418 4.51853353,57.428592 L4.51853353,57.2342952 Z M7.51856052,55.0970308 L7.51856052,54.4876455 L8.04215387,54.4876455 L8.04215387,55.0970308 L7.51856052,55.0970308 Z M7.51856052,58.8033888 L7.51856052,55.6769772 L8.04215387,55.6769772 L8.04215387,58.8033888 L7.51856052,58.8033888 Z M8.84037077,58.8033888 L8.84037077,55.6769772 L9.31160478,55.6769772 L9.31160478,56.1215047 C9.53849637,55.7780491 9.86622374,55.6063239 10.2947967,55.6063239 C10.4809642,55.6063239 10.6520999,55.6401783 10.8082091,55.7078881 C10.9643183,55.7755979 11.081156,55.8644044 11.1587258,55.9743102 C11.2362955,56.0842159 11.2905936,56.2147271 11.3216215,56.3658476 C11.3410139,56.4639777 11.35071,56.635703 11.35071,56.8810284 L11.35071,58.8033888 L10.8271166,58.8033888 L10.8271166,56.9016356 C10.8271166,56.6857492 10.8067549,56.5243275 10.7660307,56.4173657 C10.7253066,56.3104038 10.6530709,56.2250318 10.5493213,56.1612472 C10.4455717,56.0974626 10.323886,56.0655708 10.1842604,56.0655708 C9.96124727,56.0655708 9.76878015,56.1372047 9.60685325,56.2804748 C9.44492635,56.4237448 9.36396412,56.6955613 9.36396412,57.0959324 L9.36396412,58.8033888 L8.84037077,58.8033888 Z M13.0128559,58.8033888 L11.8376797,55.6769772 L12.3903616,55.6769772 L13.0535798,57.5492915 C13.1253319,57.7514397 13.1912652,57.9614351 13.2513818,58.179284 C13.2979236,58.0144254 13.3628873,57.8162054 13.4462748,57.5846182 L14.1327639,55.6769772 L14.6709015,55.6769772 L13.501543,58.8033888 L13.0128559,58.8033888 Z M17.2487401,57.7965783 L17.7897865,57.8642878 C17.7044598,58.1841921 17.5464137,58.4324577 17.3156437,58.609092 C17.0848736,58.7857263 16.7901129,58.8740422 16.4313527,58.8740422 C15.9795087,58.8740422 15.6212387,58.7332275 15.3565319,58.4515939 C15.091825,58.1699603 14.9594736,57.7749923 14.9594736,57.266678 C14.9594736,56.7407003 15.0932794,56.3324849 15.3608952,56.0420196 C15.6285109,55.7515543 15.9756304,55.6063239 16.4022642,55.6063239 C16.8153232,55.6063239 17.1527466,55.7486105 17.4145446,56.033188 C17.6763426,56.3177655 17.8072396,56.7181305 17.8072396,57.2342952 C17.8072396,57.2656969 17.80627,57.3127987 17.8043308,57.375602 L15.5005201,57.375602 C15.5199125,57.7190576 15.6159036,57.9820425 15.7884964,58.1645646 C15.9610891,58.3470867 16.176342,58.4383464 16.4342615,58.4383464 C16.6262467,58.4383464 16.7901104,58.3873195 16.9258575,58.2852641 C17.0616046,58.1832087 17.169231,58.0203151 17.2487401,57.7965783 Z M15.5296086,56.9399062 L17.2545578,56.9399062 C17.2312868,56.6769173 17.1653535,56.4796787 17.0567558,56.3481842 C16.8899808,56.1440735 16.6737583,56.0420196 16.4080819,56.0420196 C16.1676156,56.0420196 15.9654524,56.1234665 15.8015862,56.2863625 C15.6377201,56.4492586 15.5470618,56.6671043 15.5296086,56.9399062 Z M18.2389412,57.8701756 L18.7567168,57.7877466 C18.7858055,57.9977452 18.8667677,58.1586763 18.999606,58.2705446 C19.1324442,58.382413 19.3181241,58.4383464 19.5566511,58.4383464 C19.7971174,58.4383464 19.9755252,58.3887914 20.0918799,58.2896799 C20.2082345,58.1905685 20.266411,58.074286 20.266411,57.9408289 C20.266411,57.8211101 20.2150218,57.7269066 20.1122418,57.6582155 C20.0404898,57.611113 19.862082,57.5512545 19.5770131,57.4786381 C19.1930427,57.380508 18.9268854,57.2956266 18.7785332,57.2239916 C18.630181,57.1523566 18.5177065,57.0532466 18.4411064,56.9266587 C18.3645062,56.8000708 18.3262067,56.6602374 18.3262067,56.5071543 C18.3262067,56.3678095 18.357719,56.2387702 18.4207444,56.1200327 C18.4837699,56.0012952 18.5695801,55.9026759 18.6781778,55.8241717 C18.7596261,55.763331 18.8706462,55.7118135 19.0112414,55.6696175 C19.1518366,55.6274215 19.3026106,55.6063239 19.4635679,55.6063239 C19.7059734,55.6063239 19.9188023,55.6416502 20.1020609,55.7123039 C20.2853194,55.7829576 20.4205797,55.8786331 20.5078457,55.9993332 C20.5951117,56.1200333 20.6552274,56.281455 20.6881945,56.4836032 L20.1762366,56.5542566 C20.1529656,56.3933231 20.0855779,56.2677183 19.9740714,56.1774386 C19.8625648,56.0871588 19.7050036,56.0420196 19.5013829,56.0420196 C19.2609166,56.0420196 19.0892961,56.0822524 18.9865161,56.1627191 C18.8837362,56.2431859 18.832347,56.3373894 18.832347,56.4453326 C18.832347,56.5140237 18.8536784,56.5758448 18.8963417,56.6307977 C18.9390051,56.6877132 19.005908,56.734815 19.0970525,56.7721044 C19.1494121,56.7917305 19.3035797,56.8368697 19.55956,56.9075234 C19.9299556,57.0076162 20.1883561,57.0895536 20.334769,57.1533383 C20.481182,57.2171229 20.5960805,57.3098545 20.679468,57.4315359 C20.7628555,57.5532173 20.8045486,57.7043355 20.8045486,57.884895 C20.8045486,58.0615293 20.7536442,58.2278575 20.6518339,58.3838844 C20.5500235,58.5399114 20.403128,58.6606097 20.2111428,58.7459829 C20.0191576,58.8313562 19.8019655,58.8740422 19.55956,58.8740422 C19.1581364,58.8740422 18.8522252,58.7896515 18.6418172,58.6208676 C18.4314092,58.4520837 18.2971185,58.2018555 18.2389412,57.8701756 Z M22.5708175,58.3294225 L22.6464476,58.797501 C22.499065,58.8289027 22.3671984,58.8446033 22.2508437,58.8446033 C22.0607978,58.8446033 21.9134174,58.8141834 21.8086982,58.7533427 C21.7039791,58.692502 21.6302889,58.6125271 21.5876255,58.5134156 C21.5449621,58.4143041 21.5236308,58.2057807 21.5236308,57.8878389 L21.5236308,56.0891219 L21.1396623,56.0891219 L21.1396623,55.6769772 L21.5236308,55.6769772 L21.5236308,54.9027341 L22.0443153,54.5847939 L22.0443153,55.6769772 L22.5708175,55.6769772 L22.5708175,56.0891219 L22.0443153,56.0891219 L22.0443153,57.9172778 C22.0443153,58.0683983 22.0535265,58.1655457 22.0719493,58.208723 C22.0903722,58.2519002 22.12043,58.2862453 22.1621238,58.3117591 C22.2038175,58.337273 22.2634484,58.3500297 22.3410182,58.3500297 C22.3991955,58.3500297 22.4757945,58.3431607 22.5708175,58.3294225 Z M25.1963193,57.7965783 L25.7373657,57.8642878 C25.652039,58.1841921 25.493993,58.4324577 25.2632229,58.609092 C25.0324528,58.7857263 24.7376921,58.8740422 24.3789319,58.8740422 C23.927088,58.8740422 23.568818,58.7332275 23.3041111,58.4515939 C23.0394043,58.1699603 22.9070528,57.7749923 22.9070528,57.266678 C22.9070528,56.7407003 23.0408587,56.3324849 23.3084744,56.0420196 C23.5760901,55.7515543 23.9232096,55.6063239 24.3498434,55.6063239 C24.7629024,55.6063239 25.1003259,55.7486105 25.3621238,56.033188 C25.6239218,56.3177655 25.7548189,56.7181305 25.7548189,57.2342952 C25.7548189,57.2656969 25.7538493,57.3127987 25.75191,57.375602 L23.4480993,57.375602 C23.4674917,57.7190576 23.5634829,57.9820425 23.7360756,58.1645646 C23.9086684,58.3470867 24.1239213,58.4383464 24.3818407,58.4383464 C24.5738259,58.4383464 24.7376896,58.3873195 24.8734367,58.2852641 C25.0091838,58.1832087 25.1168103,58.0203151 25.1963193,57.7965783 Z M23.4771878,56.9399062 L25.202137,56.9399062 C25.1788661,56.6769173 25.1129327,56.4796787 25.0043351,56.3481842 C24.83756,56.1440735 24.6213376,56.0420196 24.3556611,56.0420196 C24.1151948,56.0420196 23.9130316,56.1234665 23.7491655,56.2863625 C23.5852993,56.4492586 23.494641,56.6671043 23.4771878,56.9399062 Z M28.5106931,57.7965783 L29.0517396,57.8642878 C28.9664128,58.1841921 28.8083668,58.4324577 28.5775967,58.609092 C28.3468266,58.7857263 28.0520659,58.8740422 27.6933057,58.8740422 C27.2414618,58.8740422 26.8831918,58.7332275 26.6184849,58.4515939 C26.3537781,58.1699603 26.2214266,57.7749923 26.2214266,57.266678 C26.2214266,56.7407003 26.3552325,56.3324849 26.6228482,56.0420196 C26.8904639,55.7515543 27.2375834,55.6063239 27.6642172,55.6063239 C28.0772762,55.6063239 28.4146997,55.7486105 28.6764977,56.033188 C28.9382957,56.3177655 29.0691927,56.7181305 29.0691927,57.2342952 C29.0691927,57.2656969 29.0682231,57.3127987 29.0662838,57.375602 L26.7624731,57.375602 C26.7818655,57.7190576 26.8778567,57.9820425 27.0504494,58.1645646 C27.2230422,58.3470867 27.4382951,58.4383464 27.6962146,58.4383464 C27.8881998,58.4383464 28.0520634,58.3873195 28.1878105,58.2852641 C28.3235576,58.1832087 28.4311841,58.0203151 28.5106931,57.7965783 Z M26.7915616,56.9399062 L28.5165108,56.9399062 C28.4932399,56.6769173 28.4273066,56.4796787 28.3187089,56.3481842 C28.1519339,56.1440735 27.9357114,56.0420196 27.6700349,56.0420196 C27.4295686,56.0420196 27.2274054,56.1234665 27.0635393,56.2863625 C26.8996731,56.4492586 26.8090148,56.6671043 26.7915616,56.9399062 Z M29.7045139,58.8033888 L29.7045139,55.6769772 L30.1757479,55.6769772 L30.1757479,56.1509436 C30.295981,55.9291694 30.4070011,55.7829576 30.5088114,55.7123039 C30.6106218,55.6416502 30.7226114,55.6063239 30.8447838,55.6063239 C31.0212551,55.6063239 31.2006325,55.6632385 31.3829214,55.7770695 L31.2025726,56.2686992 C31.0745825,56.1921577 30.9465943,56.1538875 30.8186042,56.1538875 C30.7041887,56.1538875 30.6014103,56.1887232 30.5102659,56.2583956 C30.4191214,56.328068 30.3541577,56.4247248 30.3153728,56.5483688 C30.2571954,56.7367787 30.2281072,56.942849 30.2281072,57.1665858 L30.2281072,58.8033888 L29.7045139,58.8033888 Z M31.6976732,55.0970308 L31.6976732,54.4876455 L32.2212665,54.4876455 L32.2212665,55.0970308 L31.6976732,55.0970308 Z M31.6976732,58.8033888 L31.6976732,55.6769772 L32.2212665,55.6769772 L32.2212665,58.8033888 L31.6976732,58.8033888 Z M33.0194834,58.8033888 L33.0194834,55.6769772 L33.4878086,55.6769772 L33.4878086,56.1156169 C33.5847708,55.9625338 33.7137286,55.8393823 33.8746859,55.7461586 C34.0356432,55.652935 34.218899,55.6063239 34.4244589,55.6063239 C34.6532897,55.6063239 34.8409088,55.6544069 34.9873218,55.7505745 C35.1337347,55.8467421 35.2369979,55.9811784 35.2971145,56.1538875 C35.5414593,55.7888432 35.8594906,55.6063239 36.2512179,55.6063239 C36.5576185,55.6063239 36.7932332,55.6921865 36.9580689,55.8639143 C37.1229047,56.0356421 37.2053214,56.3000989 37.2053214,56.6572927 L37.2053214,58.8033888 L36.6846369,58.8033888 L36.6846369,56.8339261 C36.6846369,56.621965 36.6676687,56.4693749 36.633732,56.3761512 C36.5997952,56.2829275 36.5382251,56.2078591 36.4490199,56.1509436 C36.3598146,56.0940281 36.255097,56.0655708 36.1348639,56.0655708 C35.9176685,56.0655708 35.7373215,56.1386766 35.5938174,56.2848906 C35.4503133,56.4311045 35.3785623,56.6651415 35.3785623,56.9870084 L35.3785623,58.8033888 L34.854969,58.8033888 L34.854969,56.7721044 C34.854969,56.536592 34.8123063,56.3599604 34.7269795,56.2422042 C34.6416528,56.124448 34.5020293,56.0655708 34.3081048,56.0655708 C34.1607223,56.0655708 34.0244924,56.1048222 33.8994111,56.1833264 C33.7743299,56.2618305 33.6836716,56.3766411 33.6274335,56.5277615 C33.5711954,56.678882 33.5430768,56.8967277 33.5430768,57.1813052 L33.5430768,58.8033888 L33.0194834,58.8033888 Z M37.9854894,55.0970308 L37.9854894,54.4876455 L38.5090828,54.4876455 L38.5090828,55.0970308 L37.9854894,55.0970308 Z M37.9854894,58.8033888 L37.9854894,55.6769772 L38.5090828,55.6769772 L38.5090828,58.8033888 L37.9854894,58.8033888 Z M39.0978623,57.8701756 L39.615638,57.7877466 C39.6447266,57.9977452 39.7256889,58.1586763 39.8585271,58.2705446 C39.9913653,58.382413 40.1770452,58.4383464 40.4155722,58.4383464 C40.6560385,58.4383464 40.8344463,58.3887914 40.950801,58.2896799 C41.0671557,58.1905685 41.1253321,58.074286 41.1253321,57.9408289 C41.1253321,57.8211101 41.0739429,57.7269066 40.971163,57.6582155 C40.8994109,57.611113 40.7210031,57.5512545 40.4359342,57.4786381 C40.0519638,57.380508 39.7858065,57.2956266 39.6374544,57.2239916 C39.4891022,57.1523566 39.3766277,57.0532466 39.3000275,56.9266587 C39.2234274,56.8000708 39.1851279,56.6602374 39.1851279,56.5071543 C39.1851279,56.3678095 39.2166401,56.2387702 39.2796656,56.1200327 C39.342691,56.0012952 39.4285013,55.9026759 39.537099,55.8241717 C39.6185472,55.763331 39.7295673,55.7118135 39.8701625,55.6696175 C40.0107577,55.6274215 40.1615317,55.6063239 40.322489,55.6063239 C40.5648945,55.6063239 40.7777234,55.6416502 40.960982,55.7123039 C41.1442406,55.7829576 41.2795008,55.8786331 41.3667668,55.9993332 C41.4540328,56.1200333 41.5141485,56.281455 41.5471157,56.4836032 L41.0351577,56.5542566 C41.0118868,56.3933231 40.9444991,56.2677183 40.8329925,56.1774386 C40.721486,56.0871588 40.5639247,56.0420196 40.3603041,56.0420196 C40.1198378,56.0420196 39.9482172,56.0822524 39.8454373,56.1627191 C39.7426573,56.2431859 39.6912681,56.3373894 39.6912681,56.4453326 C39.6912681,56.5140237 39.7125995,56.5758448 39.7552629,56.6307977 C39.7979262,56.6877132 39.8648292,56.734815 39.9559736,56.7721044 C40.0083332,56.7917305 40.1625009,56.8368697 40.4184811,56.9075234 C40.7888768,57.0076162 41.0472772,57.0895536 41.1936901,57.1533383 C41.3401031,57.2171229 41.4550016,57.3098545 41.5383891,57.4315359 C41.6217766,57.5532173 41.6634697,57.7043355 41.6634697,57.884895 C41.6634697,58.0615293 41.6125653,58.2278575 41.510755,58.3838844 C41.4089447,58.5399114 41.2620491,58.6606097 41.0700639,58.7459829 C40.8780787,58.8313562 40.6608866,58.8740422 40.4184811,58.8740422 C40.0170575,58.8740422 39.7111463,58.7896515 39.5007383,58.6208676 C39.2903303,58.4520837 39.1560397,58.2018555 39.0978623,57.8701756 Z M42.4116404,58.8033888 L42.4116404,56.0891219 L41.949133,56.0891219 L41.949133,55.6769772 L42.4116404,55.6769772 L42.4116404,55.3443176 C42.4116404,55.134319 42.430063,54.9782944 42.4669086,54.876239 C42.5173289,54.7388568 42.606048,54.6274807 42.7330685,54.5421075 C42.8600891,54.4567342 43.0380121,54.4140483 43.2668429,54.4140483 C43.4142254,54.4140483 43.5771195,54.4317114 43.75553,54.4670383 L43.676991,54.9292291 C43.5683933,54.909603 43.4656149,54.8997902 43.3686527,54.8997902 C43.2096347,54.8997902 43.0971602,54.9341352 43.0312259,55.0028263 C42.9652916,55.0715174 42.9323249,55.200066 42.9323249,55.388476 L42.9323249,55.6769772 L43.5344573,55.6769772 L43.5344573,56.0891219 L42.9323249,56.0891219 L42.9323249,58.8033888 L42.4116404,58.8033888 Z M43.745612,57.240183 C43.745612,56.661215 43.9046276,56.2323926 44.2226637,55.9537029 C44.4883402,55.7221157 44.8121891,55.6063239 45.1942202,55.6063239 C45.6189148,55.6063239 45.9660343,55.7471385 46.2355892,56.0287721 C46.5051442,56.3104057 46.6399197,56.699486 46.6399197,57.1960247 C46.6399197,57.5983584 46.5802888,57.9148234 46.4610253,58.1454293 C46.3417617,58.3760352 46.168202,58.5551201 45.9403408,58.6826893 C45.7124796,58.8102585 45.4637752,58.8740422 45.1942202,58.8740422 C44.7617688,58.8740422 44.4122252,58.7337181 44.1455791,58.4530659 C43.878933,58.1724136 43.745612,57.7681233 43.745612,57.240183 Z M44.2837496,57.240183 C44.2837496,57.6405541 44.3700447,57.9403373 44.5426374,58.1395415 C44.7152302,58.3387458 44.9324223,58.4383464 45.1942202,58.4383464 C45.454079,58.4383464 45.6703015,58.3382551 45.8428942,58.1380696 C46.015487,57.937884 46.1017821,57.6327038 46.1017821,57.2225197 C46.1017821,56.8358868 46.0150022,56.5429726 45.8414398,56.3437684 C45.6678774,56.1445642 45.4521397,56.0449635 45.1942202,56.0449635 C44.9324223,56.0449635 44.7152302,56.1440735 44.5426374,56.3422965 C44.3700447,56.5405194 44.2837496,56.8398119 44.2837496,57.240183 Z M47.2548789,58.8033888 L47.2548789,55.6769772 L47.7261129,55.6769772 L47.7261129,56.1215047 C47.9530045,55.7780491 48.2807319,55.6063239 48.7093049,55.6063239 C48.8954723,55.6063239 49.0666081,55.6401783 49.2227172,55.7078881 C49.3788264,55.7755979 49.4956641,55.8644044 49.5732339,55.9743102 C49.6508037,56.0842159 49.7051017,56.2147271 49.7361296,56.3658476 C49.755522,56.4639777 49.7652181,56.635703 49.7652181,56.8810284 L49.7652181,58.8033888 L49.2416248,58.8033888 L49.2416248,56.9016356 C49.2416248,56.6857492 49.221263,56.5243275 49.1805389,56.4173657 C49.1398147,56.3104038 49.067579,56.2250318 48.9638294,56.1612472 C48.8600798,56.0974626 48.7383941,56.0655708 48.5987685,56.0655708 C48.3757554,56.0655708 48.1832883,56.1372047 48.0213614,56.2804748 C47.8594345,56.4237448 47.7784722,56.6955613 47.7784722,57.0959324 L47.7784722,58.8033888 L47.2548789,58.8033888 Z M52.5734517,58.8033888 L52.5734517,58.4089075 C52.377588,58.7189988 52.0896146,58.8740422 51.7095227,58.8740422 C51.4632386,58.8740422 51.2368353,58.8053521 51.0303057,58.6679699 C50.8237762,58.5305876 50.663791,58.338746 50.5503452,58.0924393 C50.4368994,57.8461326 50.3801773,57.5630313 50.3801773,57.2431269 C50.3801773,56.931073 50.4315665,56.6479717 50.5343465,56.3938145 C50.6371264,56.1396574 50.791294,55.9448719 50.9968539,55.8094523 C51.2024138,55.6740327 51.4322108,55.6063239 51.6862519,55.6063239 C51.8724193,55.6063239 52.0382222,55.646066 52.1836655,55.7255514 C52.3291089,55.8050369 52.447401,55.9085626 52.5385455,56.0361319 L52.5385455,54.4876455 L53.05923,54.4876455 L53.05923,58.8033888 L52.5734517,58.8033888 Z M50.9183149,57.2431269 C50.9183149,57.643498 51.0017012,57.9427905 51.1684762,58.1410135 C51.3352512,58.3392364 51.5320816,58.4383464 51.7589732,58.4383464 C51.987804,58.4383464 52.1822103,58.3436522 52.342198,58.154261 C52.5021856,57.9648698 52.5821782,57.6758807 52.5821782,57.2872853 C52.5821782,56.8594377 52.5007312,56.5454259 52.3378347,56.3452403 C52.1749382,56.1450548 51.9742294,56.0449635 51.7357023,56.0449635 C51.502993,56.0449635 51.3085867,56.1411296 51.1524775,56.3334648 C50.9963684,56.5257999 50.9183149,56.8290176 50.9183149,57.2431269 Z M53.8865354,55.0970308 L53.8865354,54.4876455 L54.4101287,54.4876455 L54.4101287,55.0970308 L53.8865354,55.0970308 Z M53.8865354,58.8033888 L53.8865354,55.6769772 L54.4101287,55.6769772 L54.4101287,58.8033888 L53.8865354,58.8033888 Z M57.2125446,58.8033888 L57.2125446,58.4089075 C57.0166809,58.7189988 56.7287075,58.8740422 56.3486156,58.8740422 C56.1023316,58.8740422 55.8759282,58.8053521 55.6693987,58.6679699 C55.4628691,58.5305876 55.3028839,58.338746 55.1894381,58.0924393 C55.0759923,57.8461326 55.0192703,57.5630313 55.0192703,57.2431269 C55.0192703,56.931073 55.0706595,56.6479717 55.1734394,56.3938145 C55.2762194,56.1396574 55.430387,55.9448719 55.6359469,55.8094523 C55.8415068,55.6740327 56.0713038,55.6063239 56.3253448,55.6063239 C56.5115122,55.6063239 56.6773151,55.646066 56.8227585,55.7255514 C56.9682018,55.8050369 57.0864939,55.9085626 57.1776384,56.0361319 L57.1776384,54.4876455 L57.6983229,54.4876455 L57.6983229,58.8033888 L57.2125446,58.8033888 Z M55.5574079,57.2431269 C55.5574079,57.643498 55.6407941,57.9427905 55.8075691,58.1410135 C55.9743441,58.3392364 56.1711745,58.4383464 56.3980661,58.4383464 C56.6268969,58.4383464 56.8213032,58.3436522 56.9812909,58.154261 C57.1412785,57.9648698 57.2212712,57.6758807 57.2212712,57.2872853 C57.2212712,56.8594377 57.1398241,56.5454259 56.9769276,56.3452403 C56.8140311,56.1450548 56.6133223,56.0449635 56.3747953,56.0449635 C56.1420859,56.0449635 55.9476796,56.1411296 55.7915704,56.3334648 C55.6354613,56.5257999 55.5574079,56.8290176 55.5574079,57.2431269 Z" id="jainvesteerimisfondid" fill="#1A1A18"></path>
                <path d="M85.2804806,46.5135663 L85.2804806,42.197823 L88.3638636,42.197823 L88.3638636,42.707116 L85.8447979,42.707116 L85.8447979,44.0289228 L88.2038768,44.0289228 L88.2038768,44.535272 L85.8447979,44.535272 L85.8447979,46.0042733 L88.4627646,46.0042733 L88.4627646,46.5135663 L85.2804806,46.5135663 Z M91.289573,45.5067558 L91.8306194,45.5744653 C91.7452927,45.8943696 91.5872466,46.1426352 91.3564766,46.3192695 C91.1257065,46.4959038 90.8309458,46.5842197 90.4721856,46.5842197 C90.0203416,46.5842197 89.6620716,46.443405 89.3973648,46.1617714 C89.1326579,45.8801378 89.0003065,45.4851698 89.0003065,44.9768555 C89.0003065,44.4508778 89.1341123,44.0426624 89.4017281,43.7521971 C89.6693438,43.4617318 90.0164633,43.3165014 90.443097,43.3165014 C90.8561561,43.3165014 91.1935795,43.458788 91.4553775,43.7433655 C91.7171755,44.027943 91.8480725,44.428308 91.8480725,44.9444727 C91.8480725,44.9758744 91.8471029,45.0229762 91.8451637,45.0857795 L89.5413529,45.0857795 C89.5607454,45.4292351 89.6567365,45.69222 89.8293293,45.8747421 C90.001922,46.0572642 90.2171749,46.1485239 90.4750944,46.1485239 C90.6670796,46.1485239 90.8309433,46.097497 90.9666904,45.9954416 C91.1024375,45.8933862 91.2100639,45.7304926 91.289573,45.5067558 Z M89.5704415,44.6500837 L91.2953907,44.6500837 C91.2721197,44.3870948 91.2061864,44.1898562 91.0975887,44.0583617 C90.9308137,43.854251 90.7145912,43.7521971 90.4489147,43.7521971 C90.2084485,43.7521971 90.0062853,43.833644 89.8424191,43.99654 C89.678553,44.1594361 89.5878947,44.3772818 89.5704415,44.6500837 Z M92.2797741,45.5803531 L92.7975497,45.4979241 C92.8266384,45.7079227 92.9076006,45.8688538 93.0404389,45.9807221 C93.1732771,46.0925905 93.358957,46.1485239 93.597484,46.1485239 C93.8379503,46.1485239 94.0163581,46.0989689 94.1327128,45.9998574 C94.2490674,45.900746 94.3072439,45.7844635 94.3072439,45.6510064 C94.3072439,45.5312876 94.2558547,45.4370841 94.1530747,45.368393 C94.0813227,45.3212905 93.9029149,45.261432 93.617846,45.1888156 C93.2338756,45.0906855 92.9677183,45.0058041 92.8193661,44.9341691 C92.6710139,44.8625341 92.5585394,44.7634241 92.4819393,44.6368362 C92.4053391,44.5102483 92.3670396,44.3704149 92.3670396,44.2173318 C92.3670396,44.077987 92.3985519,43.9489477 92.4615773,43.8302102 C92.5246028,43.7114727 92.610413,43.6128534 92.7190107,43.5343492 C92.800459,43.4735085 92.9114791,43.421991 93.0520743,43.379795 C93.1926695,43.337599 93.3434435,43.3165014 93.5044007,43.3165014 C93.7468063,43.3165014 93.9596352,43.3518277 94.1428937,43.4224814 C94.3261523,43.4931351 94.4614126,43.5888106 94.5486786,43.7095107 C94.6359446,43.8302108 94.6960603,43.9916325 94.7290274,44.1937807 L94.2170695,44.2644341 C94.1937985,44.1035006 94.1264108,43.9778958 94.0149043,43.8876161 C93.9033977,43.7973363 93.7458365,43.7521971 93.5422158,43.7521971 C93.3017495,43.7521971 93.130129,43.7924299 93.027349,43.8728966 C92.9245691,43.9533634 92.8731799,44.0475669 92.8731799,44.1555101 C92.8731799,44.2242012 92.8945112,44.2860223 92.9371746,44.3409752 C92.979838,44.3978907 93.0467409,44.4449925 93.1378854,44.4822819 C93.190245,44.501908 93.3444126,44.5470472 93.6003929,44.6177009 C93.9707885,44.7177937 94.229189,44.7997311 94.3756019,44.8635158 C94.5220148,44.9273004 94.6369134,45.020032 94.7203009,45.1417134 C94.8036884,45.2633948 94.8453815,45.414513 94.8453815,45.5950725 C94.8453815,45.7717068 94.7944771,45.938035 94.6926668,46.0940619 C94.5908564,46.2500889 94.4439609,46.3707872 94.2519757,46.4561604 C94.0599905,46.5415337 93.8427984,46.5842197 93.6003929,46.5842197 C93.1989693,46.5842197 92.8930581,46.499829 92.6826501,46.3310451 C92.4722421,46.1622612 92.3379514,45.912033 92.2797741,45.5803531 Z M96.6116503,46.0396 L96.6872805,46.5076785 C96.5398979,46.5390802 96.4080313,46.5547808 96.2916766,46.5547808 C96.1016307,46.5547808 95.9542503,46.5243609 95.8495311,46.4635202 C95.7448119,46.4026795 95.6711218,46.3227046 95.6284584,46.2235931 C95.585795,46.1244816 95.5644637,45.9159582 95.5644637,45.5980164 L95.5644637,43.7992994 L95.1804952,43.7992994 L95.1804952,43.3871547 L95.5644637,43.3871547 L95.5644637,42.6129116 L96.0851481,42.2949714 L96.0851481,43.3871547 L96.6116503,43.3871547 L96.6116503,43.7992994 L96.0851481,43.7992994 L96.0851481,45.6274553 C96.0851481,45.7785758 96.0943594,45.8757232 96.1127822,45.9189005 C96.1312051,45.9620777 96.1612629,45.9964228 96.2029567,46.0219366 C96.2446504,46.0474505 96.3042813,46.0602072 96.381851,46.0602072 C96.4400284,46.0602072 96.5166274,46.0533382 96.6116503,46.0396 Z M97.1253257,42.8072083 L97.1253257,42.197823 L97.648919,42.197823 L97.648919,42.8072083 L97.1253257,42.8072083 Z M97.1253257,46.5135663 L97.1253257,43.3871547 L97.648919,43.3871547 L97.648919,46.5135663 L97.1253257,46.5135663 Z" id="Eesti" fill="#1A1A18"></path>
                <path d="M74.0917231,52.16827 L74.1673533,52.6363485 C74.0199707,52.6677502 73.8881041,52.6834508 73.7717494,52.6834508 C73.5817035,52.6834508 73.4343231,52.6530309 73.3296039,52.5921902 C73.2248847,52.5313495 73.1511946,52.4513746 73.1085312,52.3522631 C73.0658678,52.2531516 73.0445364,52.0446282 73.0445364,51.7266864 L73.0445364,49.9279694 L72.660568,49.9279694 L72.660568,49.5158247 L73.0445364,49.5158247 L73.0445364,48.7415816 L73.5652209,48.4236414 L73.5652209,49.5158247 L74.0917231,49.5158247 L74.0917231,49.9279694 L73.5652209,49.9279694 L73.5652209,51.7561253 C73.5652209,51.9072458 73.5744322,52.0043932 73.592855,52.0475705 C73.6112779,52.0907477 73.6413357,52.1250928 73.6830294,52.1506066 C73.7247232,52.1761205 73.7843541,52.1888772 73.8619238,52.1888772 C73.9201012,52.1888772 73.9967002,52.1820082 74.0917231,52.16827 Z M76.6270506,52.6422363 L76.6270506,52.1829894 C76.3865843,52.536258 76.0598265,52.7128897 75.6467675,52.7128897 C75.4644785,52.7128897 75.2943124,52.6775633 75.1362639,52.6069096 C74.9782155,52.5362559 74.860893,52.4474494 74.7842929,52.3404875 C74.7076927,52.2335257 74.6538795,52.1025238 74.6228516,51.9474782 C74.6015199,51.8434602 74.5908542,51.678604 74.5908542,51.4529046 L74.5908542,49.5158247 L75.1144476,49.5158247 L75.1144476,51.2497762 C75.1144476,51.5265032 75.1251132,51.7129478 75.1464449,51.8091153 C75.1794121,51.9484602 75.2492238,52.0578737 75.3558823,52.1373591 C75.4625407,52.2168445 75.5944073,52.2565867 75.7514861,52.2565867 C75.9085649,52.2565867 76.0559453,52.2158633 76.1936316,52.1344152 C76.331318,52.0529672 76.4287635,51.9420817 76.4859712,51.8017556 C76.5431789,51.6614295 76.5717824,51.4578124 76.5717824,51.1908984 L76.5717824,49.5158247 L77.0953757,49.5158247 L77.0953757,52.6422363 L76.6270506,52.6422363 Z M77.905228,52.6422363 L77.905228,48.326493 L78.4288214,48.326493 L78.4288214,52.6422363 L77.905228,52.6422363 Z M81.3563179,51.6354258 L81.8973644,51.7031353 C81.8120376,52.0230396 81.6539916,52.2713052 81.4232215,52.4479395 C81.1924514,52.6245738 80.8976907,52.7128897 80.5389305,52.7128897 C80.0870866,52.7128897 79.7288166,52.572075 79.4641097,52.2904414 C79.1994029,52.0088078 79.0670514,51.6138398 79.0670514,51.1055255 C79.0670514,50.5795478 79.2008573,50.1713324 79.468473,49.8808671 C79.7360887,49.5904018 80.0832082,49.4451714 80.509842,49.4451714 C80.922901,49.4451714 81.2603245,49.587458 81.5221225,49.8720355 C81.7839204,50.156613 81.9148175,50.556978 81.9148175,51.0731427 C81.9148175,51.1045444 81.9138479,51.1516462 81.9119086,51.2144495 L79.6080979,51.2144495 C79.6274903,51.5579051 79.7234815,51.82089 79.8960742,52.0034121 C80.068667,52.1859342 80.2839199,52.2771939 80.5418393,52.2771939 C80.7338245,52.2771939 80.8976882,52.226167 81.0334353,52.1241116 C81.1691824,52.0220562 81.2768089,51.8591626 81.3563179,51.6354258 Z M79.6371864,50.7787537 L81.3621356,50.7787537 C81.3388647,50.5157648 81.2729313,50.3185262 81.1643337,50.1870317 C80.9975587,49.982921 80.7813362,49.8808671 80.5156597,49.8808671 C80.2751934,49.8808671 80.0730302,49.962314 79.9091641,50.12521 C79.7452979,50.2881061 79.6546396,50.5059518 79.6371864,50.7787537 Z M83.4140677,52.6422363 L82.2388915,49.5158247 L82.7915734,49.5158247 L83.4547916,51.388139 C83.5265436,51.5902872 83.592477,51.8002826 83.6525935,52.0181315 C83.6991354,51.8532729 83.7640991,51.6550529 83.8474866,51.4234657 L84.5339757,49.5158247 L85.0721133,49.5158247 L83.9027548,52.6422363 L83.4140677,52.6422363 Z M85.5381253,48.9358783 L85.5381253,48.326493 L86.0617187,48.326493 L86.0617187,48.9358783 L85.5381253,48.9358783 Z M85.5381253,52.6422363 L85.5381253,49.5158247 L86.0617187,49.5158247 L86.0617187,52.6422363 L85.5381253,52.6422363 Z M86.8628444,52.6422363 L86.8628444,48.326493 L87.3864378,48.326493 L87.3864378,50.7875854 L88.6256087,49.5158247 L89.3033712,49.5158247 L88.1223773,50.6757175 L89.4226341,52.6422363 L88.776869,52.6422363 L87.755862,51.0437038 L87.3864378,51.4028585 L87.3864378,52.6422363 L86.8628444,52.6422363 Z M91.8637566,52.6422363 L91.8637566,52.1829894 C91.6232903,52.536258 91.2965326,52.7128897 90.8834735,52.7128897 C90.7011846,52.7128897 90.5310184,52.6775633 90.37297,52.6069096 C90.2149216,52.5362559 90.0975991,52.4474494 90.0209989,52.3404875 C89.9443988,52.2335257 89.8905856,52.1025238 89.8595576,51.9474782 C89.838226,51.8434602 89.8275603,51.678604 89.8275603,51.4529046 L89.8275603,49.5158247 L90.3511536,49.5158247 L90.3511536,51.2497762 C90.3511536,51.5265032 90.3618193,51.7129478 90.383151,51.8091153 C90.4161181,51.9484602 90.4859299,52.0578737 90.5925883,52.1373591 C90.6992468,52.2168445 90.8311134,52.2565867 90.9881922,52.2565867 C91.145271,52.2565867 91.2926513,52.2158633 91.4303377,52.1344152 C91.568024,52.0529672 91.6654696,51.9420817 91.7226773,51.8017556 C91.779885,51.6614295 91.8084884,51.4578124 91.8084884,51.1908984 L91.8084884,49.5158247 L92.3320818,49.5158247 L92.3320818,52.6422363 L91.8637566,52.6422363 Z M94.8085154,52.6422363 L94.8085154,48.326493 L95.3321088,48.326493 L95.3321088,49.8749794 C95.5764536,49.5884393 95.8847888,49.4451714 96.2571237,49.4451714 C96.4859545,49.4451714 96.6847241,49.4908012 96.8534383,49.5820623 C97.0221526,49.6733233 97.1428688,49.7994187 97.2155904,49.9603522 C97.2883121,50.1212857 97.3246724,50.354832 97.3246724,50.6609981 L97.3246724,52.6422363 L96.801079,52.6422363 L96.801079,50.6609981 C96.801079,50.3960466 96.744357,50.2032237 96.6309112,50.0825236 C96.5174654,49.9618235 96.3569953,49.9014744 96.1494962,49.9014744 C95.9943566,49.9014744 95.8484307,49.9421978 95.711714,50.0236458 C95.5749972,50.1050939 95.4775517,50.2154886 95.4193743,50.3548335 C95.361197,50.4941783 95.3321088,50.6865106 95.3321088,50.931836 L95.3321088,52.6422363 L94.8085154,52.6422363 Z M100.237625,51.6354258 L100.778671,51.7031353 C100.693344,52.0230396 100.535298,52.2713052 100.304528,52.4479395 C100.073758,52.6245738 99.7789974,52.7128897 99.4202372,52.7128897 C98.9683933,52.7128897 98.6101233,52.572075 98.3454164,52.2904414 C98.0807096,52.0088078 97.9483581,51.6138398 97.9483581,51.1055255 C97.9483581,50.5795478 98.082164,50.1713324 98.3497797,49.8808671 C98.6173954,49.5904018 98.964515,49.4451714 99.3911487,49.4451714 C99.8042077,49.4451714 100.141631,49.587458 100.403429,49.8720355 C100.665227,50.156613 100.796124,50.556978 100.796124,51.0731427 C100.796124,51.1045444 100.795155,51.1516462 100.793215,51.2144495 L98.4894046,51.2144495 C98.508797,51.5579051 98.6047882,51.82089 98.7773809,52.0034121 C98.9499737,52.1859342 99.1652266,52.2771939 99.4231461,52.2771939 C99.6151313,52.2771939 99.778995,52.226167 99.9147421,52.1241116 C100.050489,52.0220562 100.158116,51.8591626 100.237625,51.6354258 Z M98.5184931,50.7787537 L100.243442,50.7787537 C100.220171,50.5157648 100.154238,50.3185262 100.04564,50.1870317 C99.8788654,49.982921 99.6626429,49.8808671 99.3969664,49.8808671 C99.1565001,49.8808671 98.9543369,49.962314 98.7904708,50.12521 C98.6266046,50.2881061 98.5359463,50.5059518 98.5184931,50.7787537 Z M103.453097,52.2565867 C103.259173,52.423408 103.072524,52.5411624 102.893143,52.6098535 C102.713763,52.6785446 102.521296,52.7128897 102.315736,52.7128897 C101.976369,52.7128897 101.715544,52.6289896 101.533255,52.4611871 C101.350966,52.2933845 101.259823,52.0789733 101.259823,51.817947 C101.259823,51.6648639 101.294244,51.5250305 101.363087,51.3984426 C101.431931,51.2718547 101.522104,51.1702915 101.633611,51.09375 C101.745117,51.0172084 101.870681,50.9593125 102.010307,50.9200604 C102.113087,50.892584 102.268224,50.8660892 102.475723,50.8405754 C102.898478,50.7895477 103.209723,50.7287079 103.409465,50.6580542 C103.411404,50.5854379 103.412374,50.5393174 103.412374,50.5196913 C103.412374,50.303805 103.362924,50.1517055 103.264022,50.0633883 C103.130214,49.9436695 102.931445,49.883811 102.667707,49.883811 C102.421423,49.883811 102.239622,49.9274783 102.122298,50.0148141 C102.004973,50.10215 101.918194,50.2567027 101.861955,50.4784769 L101.349998,50.4078235 C101.396539,50.1860493 101.473138,50.0069645 101.579797,49.8705635 C101.686455,49.7341626 101.840623,49.6291649 102.042304,49.5555672 C102.243986,49.4819696 102.477661,49.4451714 102.743338,49.4451714 C103.007075,49.4451714 103.221358,49.4765725 103.386194,49.5393758 C103.55103,49.6021792 103.672231,49.6811728 103.7498,49.776359 C103.82737,49.8715453 103.881668,49.9917529 103.912696,50.1369856 C103.930149,50.2272654 103.938876,50.390159 103.938876,50.6256714 L103.938876,51.3322051 C103.938876,51.8248185 103.950026,52.1363772 103.972328,52.2668903 C103.994629,52.3974034 104.038746,52.5225175 104.10468,52.6422363 L103.557816,52.6422363 C103.503517,52.5323305 103.468611,52.4037819 103.453097,52.2565867 Z M103.409465,51.0731427 C103.219419,51.1516469 102.934354,51.2183744 102.554262,51.2733273 C102.339006,51.3047289 102.186778,51.3400553 102.097572,51.3793073 C102.008367,51.4185594 101.939525,51.4759647 101.891044,51.5515249 C101.842563,51.6270852 101.818323,51.7109852 101.818323,51.8032276 C101.818323,51.944535 101.871166,52.0622894 101.976855,52.1564944 C102.082544,52.2506994 102.237196,52.2978011 102.440817,52.2978011 C102.642498,52.2978011 102.821876,52.2531526 102.978955,52.1638541 C103.136033,52.0745557 103.251417,51.9523854 103.325108,51.7973398 C103.381346,51.677621 103.409465,51.5009893 103.409465,51.2674395 L103.409465,51.0731427 Z M104.754546,52.6422363 L104.754546,48.326493 L105.278139,48.326493 L105.278139,50.7875854 L106.51731,49.5158247 L107.195073,49.5158247 L106.014079,50.6757175 L107.314335,52.6422363 L106.66857,52.6422363 L105.647563,51.0437038 L105.278139,51.4028585 L105.278139,52.6422363 L104.754546,52.6422363 Z M107.52146,51.7090231 L108.039235,51.6265941 C108.068324,51.8365927 108.149286,51.9975238 108.282124,52.1093921 C108.414963,52.2212605 108.600643,52.2771939 108.83917,52.2771939 C109.079636,52.2771939 109.258044,52.2276389 109.374398,52.1285274 C109.490753,52.029416 109.548929,51.9131335 109.548929,51.7796764 C109.548929,51.6599576 109.49754,51.5657541 109.39476,51.497063 C109.323008,51.4499605 109.1446,51.390102 108.859532,51.3174856 C108.475561,51.2193555 108.209404,51.1344741 108.061052,51.0628391 C107.9127,50.9912041 107.800225,50.8920941 107.723625,50.7655062 C107.647025,50.6389183 107.608725,50.4990849 107.608725,50.3460018 C107.608725,50.206657 107.640237,50.0776177 107.703263,49.9588802 C107.766288,49.8401427 107.852099,49.7415234 107.960696,49.6630192 C108.042145,49.6021785 108.153165,49.550661 108.29376,49.508465 C108.434355,49.466269 108.585129,49.4451714 108.746086,49.4451714 C108.988492,49.4451714 109.201321,49.4804977 109.384579,49.5511514 C109.567838,49.6218051 109.703098,49.7174806 109.790364,49.8381807 C109.87763,49.9588808 109.937746,50.1203025 109.970713,50.3224507 L109.458755,50.3931041 C109.435484,50.2321706 109.368096,50.1065658 109.25659,50.0162861 C109.145083,49.9260063 108.987522,49.8808671 108.783901,49.8808671 C108.543435,49.8808671 108.371815,49.9210999 108.269035,50.0015666 C108.166255,50.0820334 108.114865,50.1762369 108.114865,50.2841801 C108.114865,50.3528712 108.136197,50.4146923 108.17886,50.4696452 C108.221524,50.5265607 108.288427,50.5736625 108.379571,50.6109519 C108.431931,50.630578 108.586098,50.6757172 108.842078,50.7463709 C109.212474,50.8464637 109.470875,50.9284011 109.617288,50.9921858 C109.7637,51.0559704 109.878599,51.148702 109.961986,51.2703834 C110.045374,51.3920648 110.087067,51.543183 110.087067,51.7237425 C110.087067,51.9003768 110.036163,52.066705 109.934352,52.2227319 C109.832542,52.3787589 109.685646,52.4994572 109.493661,52.5848304 C109.301676,52.6702037 109.084484,52.7128897 108.842078,52.7128897 C108.440655,52.7128897 108.134744,52.628499 107.924336,52.4597151 C107.713928,52.2909312 107.579637,52.040703 107.52146,51.7090231 Z" id="tulevikuheaks" fill="#1A1A18"></path>
                <polygon id="Fill-1" fill="#134094" points="0 39.7495825 58.7142329 39.7495825 58.7142329 0 0 0"></polygon>
                <polygon id="Fill-2" fill="#FFED00" points="29.7888288 5.7887475 31.4803425 5.7887475 30.1164932 6.82536625 30.6444178 8.46672375 29.2863699 7.45908 27.9284726 8.46672375 28.4632534 6.82536625 27.0876507 5.7887475 28.7778082 5.7887475 29.2863699 4.1884125"></polygon>
                <polygon id="Fill-3" fill="#FFED00" points="29.8610822 32.276015 31.5535753 32.276015 30.1931164 33.31027 30.7185548 34.95422 29.3629932 33.9413913 28.0025342 34.95422 28.5403288 33.31027 27.1632192 32.276015 28.8497603 32.276015 29.3629932 30.6759087"></polygon>
                <polygon id="Fill-4" fill="#FFED00" points="36.3398562 30.5205112 38.0334795 30.5205112 36.6685753 31.5547663 37.1984589 33.19376 35.8410137 32.1837525 34.4779932 33.19376 35.0153356 31.5547663 33.6395068 30.5205112 35.3296644 30.5205112 35.8410137 28.9156775"></polygon>
                <polygon id="Fill-5" fill="#FFED00" points="36.3398562 7.5342625 38.0334795 7.5342625 36.6685753 8.57111 37.1984589 10.2075112 35.8410137 9.1998675 34.4779932 10.2075112 35.0153356 8.57111 33.6395068 7.5342625 35.3296644 7.5342625 35.8410137 5.93415625"></polygon>
                <polygon id="Fill-6" fill="#FFED00" points="41.1500959 12.3977162 42.8389726 12.3977162 41.4788151 13.431895 42.0088493 15.078285 40.6511781 14.0658375 39.2907945 15.078285 39.8246712 13.431895 38.4484658 12.3977162 40.1375685 12.3977162 40.6511781 10.7999737"></polygon>
                <polygon id="Fill-7" fill="#FFED00" points="41.1500959 25.7176762 42.8389726 25.7176762 41.4788151 26.751855 42.0088493 28.39367 40.6511781 27.3857975 39.2907945 28.39367 39.8246712 26.751855 38.4484658 25.7176762 40.1375685 25.7176762 40.6511781 24.1177987"></polygon>
                <polygon id="Fill-8" fill="#FFED00" points="42.9517603 18.9582662 44.6443288 18.9582662 43.2817603 19.992445 43.8084041 21.6362425 42.4528425 20.6263875 41.0937397 21.6362425 41.6300274 19.992445 40.2563082 18.9582662 41.9405137 18.9582662 42.4528425 17.3555675"></polygon>
                <polygon id="Fill-9" fill="#FFED00" points="23.1803904 7.5513425 24.8740137 7.5513425 23.5091096 8.58796125 24.0393699 10.226955 22.6814726 9.21458375 21.3225205 10.226955 21.8584315 8.58796125 20.4851644 7.5513425 22.1706507 7.5513425 22.6814726 5.9488725"></polygon>
                <polygon id="Fill-10" fill="#FFED00" points="18.5044863 12.41716 20.1985616 12.41716 18.8332055 13.451415 19.3634658 15.0927725 18.0056438 14.0829175 16.6475205 15.0927725 17.1827534 13.451415 15.8066986 12.41716 17.4942945 12.41716 18.0056438 10.8194175"></polygon>
                <polygon id="Fill-11" fill="#FFED00" points="16.7701027 18.9751175 18.4589795 18.9751175 17.0998767 20.0097537 17.6278014 21.65073 16.2708082 20.640875 14.913363 21.65073 15.4455822 20.0097537 14.0710342 18.9751175 15.7575753 18.9751175 16.2708082 17.37524"></polygon>
                <polygon id="Fill-12" fill="#FFED00" points="18.5044863 25.7349087 20.1985616 25.7349087 18.8332055 26.7691637 19.3634658 28.41075 18.0056438 27.400285 16.6475205 28.41075 17.1827534 26.7691637 15.8066986 25.7349087 17.4942945 25.7349087 18.0056438 24.1348025"></polygon>
                <polygon id="Fill-13" fill="#FFED00" points="23.2476712 30.5352275 24.9401644 30.5352275 23.5763151 31.572075 24.1043151 33.21084 22.7487534 32.2006037 21.3882945 33.21084 21.925637 31.572075 20.5498836 30.5352275 22.2374795 30.5352275 22.7487534 28.9325287"></polygon>
                <path d="M91.4160274,7.9200875 C95.9968493,8.34975625 100.220548,9.866445 103.870137,12.1890962 C103.873904,12.1939 103.970342,12.261305 104.121781,12.3587525 C99.5085616,5.6975525 92.07,1.0331875 83.3513699,0.21571125 C75.7199315,-0.4951675 68.5296986,1.86728625 63.002726,6.27804375 C67.1982466,7.1209875 70.886637,9.2532425 73.6933699,12.2172325 C78.7908904,8.96295875 84.9508904,7.3161875 91.4160274,7.9200875" id="Fill-14" fill="#0076BE"></path>
                <path d="M109.049932,26.1817337 C109.047671,26.1817337 109.047671,26.1792937 109.047671,26.1792937 C109.047671,26.1931712 109.049932,26.2050662 109.049932,26.2188675 C109.049932,26.2050662 109.049932,26.1931712 109.049932,26.1817337" id="Fill-15" fill="#FFFFFF"></path>
                <path d="M109.074795,26.5070162 C109.068014,26.4162025 109.03637,26.0191687 109.028836,25.9378862 C108.599384,20.9624975 106.860479,16.3076637 104.121781,12.3587525 C103.970342,12.261305 103.873904,12.1939 103.870137,12.1890962 C100.220548,9.866445 95.9968493,8.34975625 91.4160274,7.9200875 C84.9508904,7.3161875 78.7908904,8.96295875 73.6933699,12.2172325 C76.8470548,15.5481375 78.8918493,19.9242012 79.2911644,24.7181912 C79.389863,25.9124188 79.3921233,27.13402 79.279863,28.3742262 C79.1005479,30.3138737 78.6650685,32.1675112 78.0013014,33.8953362 C76.8033562,37.0497225 74.8615548,39.8047113 72.4175205,41.971965 L72.4608425,41.9321625 C81.859589,36.4227187 93.5113014,34.0511912 104.996507,35.8142437 C103.954521,36.8109075 102.388904,37.6585787 101.115616,38.3275962 C102.666918,37.9185912 108.122466,35.7142037 108.200068,35.5469112 C108.200068,35.5469112 108.205342,35.5445475 108.205342,35.542565 L108.200068,35.542565 C108.200068,35.542565 109.47411,31.3708512 109.074795,26.5070162" id="Fill-16" fill="#1A1A18"></path>
                <path d="M108.57226,25.852105 C104.936986,23.3617037 101.93911,21.8564525 95.609589,21.261855 C90.7967123,20.8114462 86.1510959,21.6081062 81.9944521,23.3850362 C82.0999315,24.56043 82.109726,25.763655 81.9974658,26.9829687 C81.4557534,32.8946312 78.3478767,37.9324687 73.8909178,41.0913537 C85.4172603,34.3831837 95.8966438,33.486865 104.771986,34.85723 C105.361164,34.94995 107.185959,35.2685225 108.028288,35.4961287 C109.061233,30.2371662 108.700342,26.7577262 108.57226,25.852105" id="Fill-17" fill="#FFFFFF"></path>
            </g>
        </g>
    </g>
</svg>